<svg width="16" height="16" viewBox="0 0 16 16" fill="none" xmlns="http://www.w3.org/2000/svg">
<path d="M8.24634 1.43355L14.2463 3.83354C14.4797 3.92687 14.6663 4.20687 14.6663 4.45353V6.66687C14.6663 7.03354 14.3663 7.33354 13.9997 7.33354H1.99967C1.63301 7.33354 1.33301 7.03354 1.33301 6.66687V4.45353C1.33301 4.20687 1.51968 3.92687 1.75301 3.83354L7.75301 1.43355C7.88634 1.38022 8.113 1.38022 8.24634 1.43355Z" stroke="#828282" stroke-miterlimit="10" stroke-linecap="round" stroke-linejoin="round"/>
<path d="M14.6663 14.6667H1.33301V12.6667C1.33301 12.3 1.63301 12 1.99967 12H13.9997C14.3663 12 14.6663 12.3 14.6663 12.6667V14.6667Z" stroke="#828282" stroke-miterlimit="10" stroke-linecap="round" stroke-linejoin="round"/>
<path d="M2.66699 11.9997V7.33301" stroke="#828282" stroke-miterlimit="10" stroke-linecap="round" stroke-linejoin="round"/>
<path d="M5.33301 11.9997V7.33301" stroke="#828282" stroke-miterlimit="10" stroke-linecap="round" stroke-linejoin="round"/>
<path d="M8 11.9997V7.33301" stroke="#828282" stroke-miterlimit="10" stroke-linecap="round" stroke-linejoin="round"/>
<path d="M10.667 11.9997V7.33301" stroke="#828282" stroke-miterlimit="10" stroke-linecap="round" stroke-linejoin="round"/>
<path d="M13.333 11.9997V7.33301" stroke="#828282" stroke-miterlimit="10" stroke-linecap="round" stroke-linejoin="round"/>
<path d="M0.666992 14.667H15.3337" stroke="#828282" stroke-miterlimit="10" stroke-linecap="round" stroke-linejoin="round"/>
<path d="M8 5.66699C8.55228 5.66699 9 5.21928 9 4.66699C9 4.11471 8.55228 3.66699 8 3.66699C7.44772 3.66699 7 4.11471 7 4.66699C7 5.21928 7.44772 5.66699 8 5.66699Z" stroke="#828282" stroke-miterlimit="10" stroke-linecap="round" stroke-linejoin="round"/>
</svg>
