<svg width="120" height="121" viewBox="0 0 120 121" fill="none" xmlns="http://www.w3.org/2000/svg">
<path d="M30.0087 105.5H89.9899C91.6385 105.504 93.2278 104.881 94.4391 103.756C99.492 99.0495 103.534 93.3528 106.317 87.0165C109.101 80.6799 110.566 73.8378 110.623 66.9104C110.882 38.7432 88.1217 15.5666 60.1221 15.5001C32.1066 15.4336 9.37503 38.2613 9.37503 66.4302C9.36704 73.4413 10.802 80.3778 13.5896 86.8037C16.3772 93.2293 20.457 99.0048 25.5722 103.766C26.7809 104.886 28.3655 105.505 30.0087 105.5Z" fill="#F2F2F2"/>
<path d="M79.0805 18.4033C83.258 18.4033 87.2644 20.0628 90.2185 23.0168C93.1725 25.9708 94.8319 29.9772 94.8319 34.1547V56.7627C94.8319 57.2805 94.73 57.7933 94.5317 58.2719C94.3336 58.7502 94.043 59.185 93.6769 59.5513C93.3108 59.9174 92.8761 60.2078 92.3975 60.4061C91.9191 60.6044 91.4063 60.7063 90.8883 60.7063H67.2727C66.2269 60.7063 65.2238 60.2908 64.4841 59.5513C63.7447 58.8116 63.3291 57.8085 63.3291 56.7627V34.1547C63.3291 29.9772 64.9887 25.9708 67.9425 23.0168C70.8966 20.0628 74.903 18.4033 79.0805 18.4033Z" fill="white" stroke="#D4D9E3" stroke-linecap="round" stroke-linejoin="round"/>
<path d="M53.0323 34.2627H89.3888C90.3842 34.2627 91.1912 35.0696 91.1912 36.065V58.2006C91.1912 59.196 90.3842 60.0029 89.3888 60.0029H53.0323C52.0369 60.0029 51.23 59.196 51.23 58.2006V36.065C51.23 35.0696 52.0369 34.2627 53.0323 34.2627Z" fill="white" stroke="#D4D9E3"/>
<path d="M67.7568 37.7949H57.9018C57.3568 37.7949 56.915 38.2367 56.915 38.7816C56.915 39.3266 57.3568 39.7684 57.9018 39.7684H67.7568C68.3017 39.7684 68.7435 39.3266 68.7435 38.7816C68.7435 38.2367 68.3017 37.7949 67.7568 37.7949Z" fill="#D4D9E3"/>
<path d="M65.0931 41.6621H57.9018C57.3568 41.6621 56.915 42.1037 56.915 42.6488C56.915 43.1938 57.3568 43.6356 57.9018 43.6356H65.0931C65.638 43.6356 66.0798 43.1938 66.0798 42.6488C66.0798 42.1037 65.638 41.6621 65.0931 41.6621Z" fill="#D4D9E3"/>
<path d="M78.8136 50.6309H57.9018C57.3568 50.6309 56.915 51.0727 56.915 51.6176C56.915 52.1625 57.3568 52.6043 57.9018 52.6043H78.8136C79.3586 52.6043 79.8004 52.1625 79.8004 51.6176C79.8004 51.0727 79.3586 50.6309 78.8136 50.6309Z" fill="#D4D9E3"/>
<path d="M73.66 54.498H57.9018C57.3568 54.498 56.915 54.9398 56.915 55.4848C56.915 56.0297 57.3568 56.4715 57.9018 56.4715H73.66C74.2049 56.4715 74.6467 56.0297 74.6467 55.4848C74.6467 54.9398 74.2049 54.498 73.66 54.498Z" fill="#D4D9E3"/>
<path d="M55.9233 48.3594H50.1919V105.356H55.9233V48.3594Z" fill="white" stroke="#D4D9E3" stroke-linecap="round" stroke-linejoin="round"/>
<path d="M60.1048 48.3594H55.9233V105.356H60.1048V48.3594Z" fill="white" stroke="#D4D9E3" stroke-linecap="round" stroke-linejoin="round"/>
<path d="M63.3293 56.7626V34.1548C63.3296 30.1032 64.891 26.2074 67.6892 23.2774C70.4876 20.3473 74.3072 18.6083 78.3544 18.4217H36.4965C36.2553 18.4107 36.0132 18.4033 35.7694 18.4033C31.5919 18.4033 27.5855 20.0628 24.6315 23.0168C21.6776 25.9707 20.0181 29.9773 20.0181 34.1548V56.7626C20.0181 57.2806 20.1201 57.7934 20.3183 58.2718C20.5164 58.7501 20.8069 59.1849 21.1731 59.5512C21.5393 59.9173 21.9741 60.2079 22.4525 60.406C22.931 60.6043 23.4439 60.7062 23.9616 60.7062H67.2725C66.2267 60.706 65.2236 60.2904 64.4841 59.551C63.7449 58.8115 63.3293 57.8084 63.3293 56.7626Z" fill="white" stroke="#D4D9E3" stroke-linecap="round" stroke-linejoin="round"/>
<path d="M108.621 60.7061H67.5252C66.3702 60.7061 65.4341 61.6424 65.4341 62.7974C65.4341 63.9524 66.3702 64.8887 67.5252 64.8887H108.621C109.776 64.8887 110.713 63.9524 110.713 62.7974C110.713 61.6424 109.776 60.7061 108.621 60.7061Z" fill="white" stroke="#D4D9E3" stroke-linecap="round" stroke-linejoin="round"/>
<path d="M40.2013 49.9018C41.9893 49.9018 43.4389 48.4522 43.4389 46.6644C43.4389 44.8764 41.9893 43.4268 40.2013 43.4268C38.4132 43.4268 36.9639 44.8764 36.9639 46.6644C36.9639 48.4522 38.4132 49.9018 40.2013 49.9018Z" fill="white" stroke="#D4D9E3" stroke-linecap="round" stroke-linejoin="round"/>
<path d="M40.2023 29.3643C39.5727 29.3643 39.0625 29.8745 39.0625 30.504V46.3846C39.0625 47.0141 39.5727 47.5243 40.2023 47.5243C40.8318 47.5243 41.342 47.0141 41.342 46.3846V30.504C41.342 29.8745 40.8318 29.3643 40.2023 29.3643Z" fill="white" stroke="#D4D9E3" stroke-linecap="round" stroke-linejoin="round"/>
<path d="M32.7917 26.249H40.8542C41.1371 26.249 41.4087 26.3615 41.6089 26.5617C41.809 26.7618 41.9213 27.0332 41.9213 27.3164V36.8915C41.9213 37.1744 41.809 37.4461 41.6089 37.6462C41.4087 37.8464 41.1371 37.9586 40.8542 37.9586H32.7917C31.239 37.9586 29.7497 37.342 28.6517 36.2439C27.5539 35.1459 26.937 33.6567 26.937 32.1039C26.937 30.5512 27.5539 29.062 28.6517 27.9639C29.7497 26.8659 31.239 26.249 32.7917 26.249Z" fill="#F0DDCC"/>
</svg>
