<svg width="120" height="120" viewBox="0 0 120 120" fill="none" xmlns="http://www.w3.org/2000/svg">
<path d="M30.0087 105H89.9899C91.6385 105.004 93.2278 104.381 94.4391 103.256C99.492 98.5495 103.534 92.8528 106.317 86.5165C109.101 80.1799 110.566 73.3378 110.623 66.4104C110.882 38.2432 88.1217 15.0666 60.1221 15.0001C32.1066 14.9336 9.37503 37.7613 9.37503 65.9302C9.36704 72.9413 10.802 79.8778 13.5896 86.3037C16.3772 92.7293 20.457 98.5048 25.5722 103.266C26.7809 104.386 28.3655 105.005 30.0087 105Z" fill="#EFF1F8"/>
<path d="M103.289 44.2626L97.6564 39.2011H44.254C43.2896 39.2011 42.365 38.8179 41.6829 38.1361C41.0011 37.4543 40.6182 36.5294 40.6182 35.5652V15.3175C40.6182 14.3532 41.0011 13.4284 41.6829 12.7466C42.365 12.0647 43.2896 11.6816 44.254 11.6816H103.138C104.103 11.6816 105.027 12.0647 105.709 12.7466C106.391 13.4284 106.774 14.3532 106.774 15.3175V42.709C106.774 43.1125 106.657 43.5077 106.437 43.8464C106.218 44.1848 105.904 44.4525 105.536 44.617C105.167 44.7813 104.759 44.8354 104.36 44.7724C103.961 44.7096 103.589 44.5326 103.289 44.2626Z" fill="white" stroke="#D4D9E3" stroke-width="1.40625" stroke-linecap="round" stroke-linejoin="round"/>
<path d="M103.289 109.691L97.6564 104.629H44.254C43.2896 104.629 42.365 104.246 41.6829 103.564C41.0011 102.882 40.6182 101.957 40.6182 100.993V80.7452C40.6182 79.781 41.0011 78.8562 41.6829 78.1744C42.365 77.4923 43.2896 77.1094 44.254 77.1094H103.138C104.103 77.1094 105.027 77.4923 105.709 78.1744C106.391 78.8562 106.774 79.781 106.774 80.7452V108.137C106.774 108.54 106.657 108.935 106.437 109.274C106.218 109.613 105.904 109.88 105.536 110.045C105.167 110.209 104.759 110.263 104.36 110.2C103.961 110.137 103.589 109.96 103.289 109.691Z" fill="white" stroke="#D4D9E3" stroke-width="1.40625" stroke-linecap="round" stroke-linejoin="round"/>
<path d="M91.321 17.7422H52.5561C51.4644 17.7422 50.5796 18.6271 50.5796 19.7186C50.5796 20.8102 51.4644 21.6951 52.5561 21.6951H91.321C92.4127 21.6951 93.2975 20.8102 93.2975 19.7186C93.2975 18.6271 92.4127 17.7422 91.321 17.7422Z" fill="#D4D9E3"/>
<path d="M70.1979 29.0156H52.5561C51.4644 29.0156 50.5796 29.9004 50.5796 30.9921C50.5796 32.0836 51.4644 32.9686 52.5561 32.9686H70.1979C71.2894 32.9686 72.1744 32.0836 72.1744 30.9921C72.1744 29.9004 71.2894 29.0156 70.1979 29.0156Z" fill="#D4D9E3"/>
<path d="M91.321 83.3398H52.5561C51.4644 83.3398 50.5796 84.2248 50.5796 85.3163C50.5796 86.4078 51.4644 87.2928 52.5561 87.2928H91.321C92.4127 87.2928 93.2975 86.4078 93.2975 85.3163C93.2975 84.2248 92.4127 83.3398 91.321 83.3398Z" fill="#D4D9E3"/>
<path d="M70.1979 94.6133H52.5561C51.4644 94.6133 50.5796 95.4981 50.5796 96.5898C50.5796 97.6813 51.4644 98.566 52.5561 98.566H70.1979C71.2894 98.566 72.1744 97.6813 72.1744 96.5898C72.1744 95.4981 71.2894 94.6133 70.1979 94.6133Z" fill="#D4D9E3"/>
<path d="M16.6885 76.7892L22.321 71.7274H75.7234C76.6878 71.7274 77.6124 71.3444 78.2944 70.6624C78.9762 69.9806 79.3592 69.0557 79.3592 68.0915V47.8439C79.3592 46.8796 78.9762 45.9548 78.2944 45.273C77.6124 44.5912 76.6878 44.208 75.7234 44.208H16.839C15.8747 44.208 14.9499 44.5912 14.2681 45.273C13.5862 45.9548 13.2031 46.8796 13.2031 47.8439V75.2353C13.2031 75.6391 13.3201 76.034 13.5399 76.3727C13.7597 76.7114 14.0728 76.979 14.4416 77.1433C14.8103 77.3076 15.2187 77.3618 15.6175 77.2989C16.0163 77.2359 16.3883 77.0589 16.6885 76.7892Z" fill="#F0DDCC"/>
<path opacity="0.3" d="M61.4936 50.3545H22.7284C21.6368 50.3545 20.752 51.2395 20.752 52.331C20.752 53.4227 21.6368 54.3075 22.7284 54.3075H61.4936C62.5851 54.3075 63.4701 53.4227 63.4701 52.331C63.4701 51.2395 62.5851 50.3545 61.4936 50.3545Z" fill="white"/>
<path opacity="0.3" d="M54.1539 61.6279H22.7284C21.6368 61.6279 20.752 62.5127 20.752 63.6044C20.752 64.6959 21.6368 65.5809 22.7284 65.5809H54.1539C55.2456 65.5809 56.1304 64.6959 56.1304 63.6044C56.1304 62.5127 55.2456 61.6279 54.1539 61.6279Z" fill="white"/>
</svg>
