<svg width="200" height="200" viewBox="0 0 200 200" fill="none" xmlns="http://www.w3.org/2000/svg">
<path d="M50.0145 175H149.983C152.731 175.007 155.38 173.968 157.398 172.093C165.82 164.249 172.557 154.755 177.196 144.194C181.834 133.633 184.276 122.23 184.371 110.684C184.803 63.7387 146.87 25.111 100.204 25.0002C53.511 24.8894 15.6251 62.9356 15.6251 109.884C15.6117 121.569 18.0033 133.13 22.6493 143.839C27.2953 154.549 34.095 164.175 42.6203 172.111C44.6348 173.977 47.2758 175.009 50.0145 175Z" fill="#FAF4EE"/>
<path opacity="0.2" d="M101.546 67.3957C101.491 67.6105 101.394 67.8128 101.261 67.9902C101.127 68.1679 100.96 68.3175 100.769 68.4304C100.578 68.5433 100.366 68.6175 100.147 68.6484C99.9269 68.6796 99.7031 68.6671 99.4878 68.6117C99.273 68.5562 99.071 68.4589 98.8937 68.3253C98.7164 68.1918 98.5671 68.0246 98.4543 67.8332C98.3418 67.6418 98.2679 67.43 98.2371 67.2101C98.2062 66.9902 98.2191 66.7664 98.275 66.5515C99.0878 63.4007 98.8988 59.5445 98.716 55.8156C98.432 50.0179 98.1632 44.5421 101.665 41.6894C104.061 39.7371 107.815 39.4562 113.142 40.8304C118.469 42.2046 121.619 44.2668 122.772 47.1347C124.456 51.325 121.572 55.9879 118.519 60.9242C116.555 64.0992 114.524 67.3828 113.711 70.5336C113.598 70.9668 113.319 71.3378 112.933 71.5648C112.547 71.7921 112.087 71.8566 111.654 71.7449C111.221 71.6332 110.849 71.3539 110.622 70.9687C110.394 70.5832 110.328 70.1234 110.44 69.6898" stroke="#D4D9E3" stroke-width="5" stroke-miterlimit="10"/>
<path d="M145.397 68.3536L114.28 53.2028C112.939 52.5509 111.46 52.2333 109.97 52.2774L109.941 52.2661L106.847 52.4919L107.062 52.8333C106.339 53.0954 105.652 53.447 105.017 53.8798L76.4334 73.3942C75.0986 74.3056 74.0263 75.5513 73.324 77.0071C72.622 78.463 72.3146 80.0778 72.4322 81.6896L79.024 171.879C79.1002 172.921 79.3806 173.938 79.8502 174.872C80.3193 175.806 80.9677 176.638 81.7588 177.321C82.5494 178.004 83.4673 178.524 84.4591 178.853C85.4513 179.181 86.4982 179.311 87.5408 179.235L149.797 174.685C150.839 174.609 151.856 174.328 152.79 173.859C153.724 173.39 154.556 172.741 155.239 171.95C155.922 171.159 156.443 170.242 156.771 169.25C157.1 168.258 157.229 167.211 157.153 166.168L150.562 75.9794C150.444 74.3673 149.905 72.8146 148.999 71.4763C148.092 70.138 146.85 69.0614 145.397 68.3536Z" fill="white" stroke="#D4D9E3" stroke-width="1.66667" stroke-miterlimit="10"/>
<path d="M109.24 180.902L48.7966 165.309C46.7529 164.781 45.0025 163.464 43.9302 161.646C42.858 159.828 42.5517 157.659 43.079 155.615L65.6681 68.0528C66.072 66.4876 66.8794 65.0559 68.0103 63.9013C69.1412 62.7462 70.5552 61.9087 72.1115 61.472L105.433 52.1204C107.004 51.6794 108.663 51.6618 110.243 52.0692C111.822 52.477 113.266 53.295 114.427 54.4403L139.067 78.7446C140.218 79.8798 141.05 81.2973 141.481 82.8552C141.912 84.413 141.926 86.0563 141.522 87.6216L118.933 175.184C118.672 176.196 118.215 177.147 117.586 177.982C116.958 178.816 116.171 179.52 115.271 180.05C114.371 180.581 113.375 180.93 112.34 181.076C111.305 181.222 110.252 181.163 109.24 180.902Z" fill="white" stroke="#D4D9E3" stroke-width="1.66667" stroke-miterlimit="10"/>
<path d="M106.829 69.6208C109.212 69.6208 111.144 67.6892 111.144 65.306C111.144 62.9228 109.212 60.9907 106.829 60.9907C104.445 60.9907 102.514 62.9228 102.514 65.306C102.514 67.6892 104.445 69.6208 106.829 69.6208Z" fill="#D4D9E3"/>
<path d="M106.829 69.6208C109.212 69.6208 111.144 67.6892 111.144 65.306C111.144 62.9228 109.212 60.9907 106.829 60.9907C104.445 60.9907 102.514 62.9228 102.514 65.306C102.514 67.6892 104.445 69.6208 106.829 69.6208Z" fill="black" fill-opacity="0.15"/>
<path d="M108.766 66.2582L109.502 63.1316C110.596 58.9093 113.474 55.014 116.395 51.7757C119.73 48.0867 124.008 44.3316 125.25 39.5164L127.215 31.9007C127.968 28.9751 127.528 25.8701 125.992 23.2685C124.457 20.6668 121.951 18.7814 119.025 18.0268C116.1 17.2722 112.995 17.71 110.393 19.2441C107.79 20.7783 105.903 23.283 105.147 26.2079L103.183 33.8233C101.94 38.6385 103.858 44.0222 104.991 48.8644C105.981 53.1117 106.713 57.5355 105.628 61.7593L104.892 64.8859" stroke="#D4D9E3" stroke-width="1.66667" stroke-linecap="round" stroke-linejoin="round"/>
<path d="M54.6467 145.475C65.4334 145.475 74.1779 136.73 74.1779 125.943C74.1779 115.156 65.4334 106.412 54.6467 106.412C43.8596 106.412 35.1152 115.156 35.1152 125.943C35.1152 136.73 43.8596 145.475 54.6467 145.475Z" fill="#F0DDCC"/>
<path d="M50.9802 135.678C50.6939 135.678 50.4106 135.622 50.1462 135.513C49.8817 135.403 49.6419 135.242 49.4396 135.04L43.0493 128.65C42.6415 128.241 42.4126 127.687 42.4126 127.109C42.413 126.532 42.6423 125.979 43.0509 125.57C43.4591 125.162 44.0126 124.932 44.5899 124.932C45.1673 124.932 45.7212 125.161 46.1302 125.569L50.9802 130.419L63.1638 118.235C63.3661 118.033 63.606 117.872 63.8704 117.763C64.1349 117.654 64.4181 117.597 64.704 117.597C64.9903 117.597 65.2735 117.654 65.5376 117.763C65.8021 117.872 66.0423 118.033 66.2442 118.235C66.4466 118.438 66.6071 118.677 66.7165 118.942C66.8263 119.206 66.8825 119.49 66.8825 119.775C66.8825 120.061 66.8263 120.345 66.7165 120.609C66.6071 120.873 66.4466 121.113 66.2442 121.316L52.5204 135.04C52.3185 135.242 52.0782 135.403 51.8138 135.513C51.5497 135.622 51.2661 135.678 50.9802 135.678Z" fill="white"/>
</svg>
