<svg width="25" height="25" viewBox="0 0 25 25" fill="none" xmlns="http://www.w3.org/2000/svg">
<path d="M2.74609 10.6074V9.62744C2.74609 4.62744 4.74609 2.62744 9.74609 2.62744H15.7461C20.7461 2.62744 22.7461 4.62744 22.7461 9.62744V15.6274C22.7461 20.6274 20.7461 22.6274 15.7461 22.6274H14.7461" stroke="#4D4D4D" stroke-width="1.5" stroke-linecap="round" stroke-linejoin="round"/>
<path d="M13.7461 11.6274L18.7561 6.60742H14.7461" stroke="#4D4D4D" stroke-width="1.5" stroke-linecap="round" stroke-linejoin="round"/>
<path d="M18.7559 6.60742V10.6174" stroke="#4D4D4D" stroke-width="1.5" stroke-linecap="round" stroke-linejoin="round"/>
<path d="M11.7461 16.7774V19.4774C11.7461 21.7274 10.8461 22.6274 8.59609 22.6274H5.89609C3.64609 22.6274 2.74609 21.7274 2.74609 19.4774V16.7774C2.74609 14.5274 3.64609 13.6274 5.89609 13.6274H8.59609C10.8461 13.6274 11.7461 14.5274 11.7461 16.7774Z" stroke="#4D4D4D" stroke-width="1.5" stroke-linecap="round" stroke-linejoin="round"/>
</svg>
