<svg width="101" height="101" viewBox="0 0 101 101" fill="none" xmlns="http://www.w3.org/2000/svg">
<path d="M25.5072 88H75.4916C76.8654 88.0033 78.1898 87.4842 79.1992 86.5467C83.41 82.6246 86.7785 77.8773 89.0979 72.5971C91.4172 67.3166 92.6381 61.6148 92.6857 55.842C92.9014 32.3693 73.9348 13.0555 50.6018 13.0001C27.2555 12.9447 8.31253 31.9678 8.31253 55.4418C8.30587 61.2844 9.50167 67.0648 11.8247 72.4197C14.1476 77.7744 17.5475 82.5873 21.8102 86.5553C22.8174 87.4885 24.1379 88.0045 25.5072 88Z" fill="#FAF4EE"/>
<path d="M50.4994 14.8657C51.6459 14.8657 52.7453 15.3211 53.5559 16.1318C54.3666 16.9424 54.8221 18.0419 54.8221 19.1883V27.3508H46.1768V19.1883C46.1768 18.6207 46.2887 18.0586 46.5059 17.5341C46.723 17.0097 47.0414 16.5332 47.4428 16.1318C47.8443 15.7304 48.3207 15.412 48.8451 15.1947C49.3697 14.9775 49.9318 14.8657 50.4994 14.8657Z" fill="white" stroke="#D4D9E3" stroke-width="0.78125" stroke-linecap="round" stroke-linejoin="round"/>
<path d="M50.5004 66.0371H50.5002C45.1941 66.0371 40.8926 70.3387 40.8926 75.6449V82.3379C40.8926 87.6441 45.1941 91.9457 50.5004 91.9457C55.8064 91.9457 60.108 87.6441 60.108 82.3379V75.6449C60.108 70.3387 55.8064 66.0371 50.5004 66.0371Z" fill="white" stroke="#D4D9E3" stroke-width="0.78125" stroke-linecap="round" stroke-linejoin="round"/>
<path d="M77.4744 72.5123L75.2648 68.6879C74.6336 67.5951 74.3012 66.3555 74.3012 65.0934V45.1422C74.3012 42.3912 73.7594 39.667 72.7064 37.1254C71.6537 34.5838 70.1107 32.2744 68.1654 30.3291C66.2201 28.3838 63.9107 26.8406 61.3691 25.7879C58.8273 24.7352 56.1033 24.1934 53.3523 24.1934H47.6484C44.8973 24.1934 42.1732 24.7352 39.6314 25.7879C37.0898 26.8406 34.7805 28.3838 32.8352 30.3291C30.8898 32.2744 29.3469 34.5838 28.2941 37.1254C27.2412 39.667 26.6994 42.3912 26.6994 45.1422V65.0934C26.6994 66.3555 26.367 67.5951 25.7357 68.6879L23.5262 72.5123C22.8949 73.6051 22.5625 74.8449 22.5625 76.1068C22.5625 77.0504 22.7484 77.9848 23.1094 78.8564C23.4705 79.7283 23.9998 80.5203 24.667 81.1877C25.3342 81.8549 26.1264 82.3842 26.998 82.7451C27.8699 83.1063 28.8043 83.2922 29.7479 83.2922H71.2527C72.5143 83.2922 73.7535 82.96 74.8459 82.3293C75.9383 81.6984 76.8453 80.7912 77.476 79.6986C78.1064 78.6061 78.4383 77.3668 78.4381 76.1053C78.4379 74.8438 78.1055 73.6047 77.4744 72.5123Z" fill="white" stroke="#D4D9E3" stroke-width="0.78125" stroke-linecap="round" stroke-linejoin="round"/>
<path d="M78.0022 36.5894C77.7709 36.5894 77.5422 36.5382 77.333 36.4396C77.1237 36.3409 76.9387 36.1972 76.7914 36.0189C76.6442 35.8404 76.5381 35.6316 76.4809 35.4074C76.4237 35.1831 76.4166 34.949 76.4606 34.7218C76.7944 32.99 76.4276 31.1966 75.4408 29.7349C74.4541 28.2732 72.9278 27.2626 71.1969 26.9247C70.7885 26.8454 70.4282 26.6074 70.1953 26.2624C69.9625 25.9177 69.8762 25.4945 69.9555 25.0861C70.0346 24.6777 70.2729 24.3173 70.6176 24.0845C70.9625 23.8517 71.3858 23.7654 71.7942 23.8447C74.3414 24.3417 76.5877 25.829 78.0401 27.98C79.4922 30.1312 80.0321 32.7704 79.5409 35.3191C79.4713 35.6763 79.2799 35.9984 78.9994 36.2302C78.7188 36.4618 78.3662 36.589 78.0022 36.5894Z" fill="#F0DDCC"/>
<path d="M85.404 38.025C85.1728 38.0248 84.9441 37.9736 84.7349 37.875C84.5255 37.7764 84.3405 37.6326 84.1933 37.4543C84.046 37.2758 83.94 37.067 83.8827 36.8428C83.8255 36.6184 83.8187 36.3844 83.8626 36.1572C84.5747 32.4625 83.7923 28.6361 81.687 25.5178C79.5818 22.3992 76.3253 20.243 72.6323 19.5223C72.2239 19.4431 71.8638 19.2049 71.631 18.8601C71.3982 18.5153 71.3118 18.0921 71.3909 17.6837C71.4702 17.2752 71.7083 16.915 72.0532 16.6822C72.398 16.4494 72.8212 16.3631 73.2296 16.4423C77.7392 17.3222 81.7153 19.955 84.2862 23.7629C86.8569 27.5709 87.8122 32.2432 86.9425 36.7547C86.8732 37.1119 86.6818 37.434 86.4011 37.6656C86.1204 37.8975 85.7681 38.0244 85.404 38.025Z" fill="#F0DDCC"/>
<path d="M22.9978 36.5896C22.6339 36.589 22.2814 36.462 22.0007 36.2302C21.7203 35.9986 21.5289 35.6765 21.4595 35.3193C20.9681 32.7706 21.5078 30.1314 22.9599 27.9802C24.4123 25.829 26.6583 24.3417 29.2058 23.8446C29.6136 23.7665 30.0359 23.8534 30.3798 24.0864C30.7238 24.3193 30.9615 24.679 31.0406 25.0866C31.1197 25.4944 31.0337 25.9169 30.8019 26.2614C30.5699 26.606 30.2107 26.8446 29.8033 26.9247C28.0722 27.2624 26.5458 28.2732 25.5591 29.7349C24.5724 31.1966 24.2056 32.99 24.5396 34.7218C24.5833 34.9489 24.5765 35.1831 24.5193 35.4073C24.4621 35.6316 24.356 35.8403 24.2087 36.0189C24.0615 36.1974 23.8765 36.3411 23.6671 36.4398C23.4578 36.5384 23.2292 36.5896 22.9978 36.5896Z" fill="#F0DDCC"/>
<path d="M15.5957 38.0252C15.2317 38.0246 14.8793 37.8976 14.5987 37.6658C14.3181 37.4342 14.1267 37.1121 14.0574 36.7549C13.1822 32.2427 14.1352 27.5679 16.7068 23.7586C19.2784 19.9494 23.258 17.3177 27.7699 16.4425C28.1777 16.3649 28.5996 16.452 28.9432 16.6849C29.2869 16.9178 29.5242 17.2773 29.6031 17.6848C29.6822 18.0923 29.5965 18.5145 29.3648 18.859C29.1332 19.2034 28.7746 19.442 28.3674 19.5225C24.6723 20.2392 21.4133 22.3945 19.3072 25.514C17.2012 28.6338 16.4207 32.4623 17.1375 36.1574C17.1813 36.3845 17.1744 36.6187 17.1172 36.8429C17.06 37.0672 16.954 37.276 16.8067 37.4545C16.6593 37.633 16.4744 37.7767 16.265 37.8754C16.0557 37.974 15.8271 38.0252 15.5957 38.0252Z" fill="#F0DDCC"/>
</svg>
