<svg width="200" height="200" viewBox="0 0 101 100" fill="none" xmlns="http://www.w3.org/2000/svg">
<path d="M17.9536 81.6014L66.8983 91.7429C68.2429 92.0249 69.6451 91.7852 70.8237 91.072C75.7426 88.0859 80.0043 84.1208 83.3467 79.4209C86.6892 74.7209 89.0416 69.3854 90.2595 63.7423C95.2331 40.8016 80.5796 18.0413 57.7432 13.2529C34.8937 8.46185 12.4851 23.2459 7.72236 46.2317C6.53042 51.9514 6.52853 57.8542 7.71673 63.5691C8.90497 69.2837 11.2576 74.6863 14.6265 79.4366C15.4235 80.5547 16.6118 81.3279 17.9536 81.6014Z" fill="#FAF4EE"/>
<path d="M79.7227 21.7106L34.0882 12.255C32.7265 11.9729 31.3938 12.848 31.1117 14.2097L17.6901 78.9849C17.4079 80.3466 18.2831 81.6792 19.6448 81.9614L65.2794 91.417C66.6409 91.6991 67.9735 90.8239 68.2556 89.4622L81.6773 24.687C81.9594 23.3253 81.0842 21.9928 79.7227 21.7106Z" fill="white" stroke="#D4D9E3" stroke-miterlimit="10"/>
<path d="M77.0558 24.0467L35.7473 15.4875C34.8605 15.3037 33.9926 15.8738 33.8089 16.7606L21.1845 77.6879C21.0008 78.5747 21.5707 79.4426 22.4576 79.6264L63.7661 88.1856C64.6529 88.3694 65.5208 87.7994 65.7045 86.9126L78.3289 25.9853C78.5126 25.0984 77.9427 24.2305 77.0558 24.0467Z" fill="white" stroke="#D4D9E3" stroke-miterlimit="10"/>
<path d="M38.2201 36.5338C40.5954 37.026 42.9199 35.4995 43.412 33.1243C43.9042 30.749 42.3776 28.4245 40.0023 27.9324C37.6272 27.4402 35.3027 28.9668 34.8105 31.3421C34.3184 33.7172 35.8449 36.0417 38.2201 36.5338Z" fill="#F0DDCC"/>
<path d="M35.6707 48.8376C38.0461 49.3297 40.3705 47.8032 40.8627 45.4279C41.3548 43.0527 39.8283 40.7283 37.453 40.2361C35.0779 39.7439 32.7534 41.2705 32.2612 43.6456C31.7691 46.0209 33.2956 48.3454 35.6707 48.8376Z" fill="#F0DDCC"/>
<path d="M33.1214 61.1408C35.4967 61.633 37.8212 60.1064 38.3134 57.7311C38.8055 55.356 37.279 53.0315 34.9037 52.5393C32.5285 52.0472 30.2041 53.5737 29.7119 55.9488C29.2197 58.3242 30.7463 60.6486 33.1214 61.1408Z" fill="#F0DDCC"/>
<path d="M37.8146 34.17C37.7377 34.1541 37.6645 34.1232 37.5997 34.079C37.5346 34.035 37.4791 33.9784 37.4361 33.9127L36.4905 32.4731C36.4039 32.3405 36.3733 32.179 36.4057 32.0239C36.438 31.8688 36.5304 31.733 36.6629 31.646C36.7952 31.5591 36.9566 31.5283 37.1117 31.5602C37.2668 31.5922 37.403 31.6842 37.4902 31.8166L38.1075 32.7563L40.7774 31.0029C40.843 30.9597 40.9164 30.9296 40.9937 30.9147C41.071 30.9 41.1504 30.9005 41.2274 30.9163C41.3044 30.9322 41.3776 30.9631 41.4427 31.0073C41.5077 31.0515 41.5634 31.108 41.6066 31.1738C41.6497 31.2395 41.6795 31.3131 41.6942 31.3904C41.7089 31.4676 41.7082 31.5471 41.6921 31.6241C41.6761 31.701 41.645 31.7741 41.6006 31.8391C41.5565 31.904 41.4997 31.9596 41.4339 32.0026L38.2642 34.0843C38.1986 34.1275 38.125 34.1573 38.0479 34.1721C37.9707 34.1866 37.8915 34.1859 37.8146 34.17Z" fill="white"/>
<path d="M70.8622 37.4384L47.9866 32.6985C47.2591 32.5477 46.5472 33.0154 46.3965 33.7429C46.2458 34.4702 46.7132 35.1822 47.4407 35.3329L70.3163 40.0728C71.0438 40.2236 71.7557 39.7559 71.9064 39.0286C72.0571 38.3011 71.5897 37.5891 70.8622 37.4384Z" fill="#D4D9E3"/>
<path d="M35.2652 46.4738C35.1883 46.4578 35.1151 46.4269 35.0502 46.383C34.9852 46.3388 34.9297 46.2822 34.8867 46.2164L33.9411 44.7769C33.8545 44.6442 33.8239 44.4827 33.8563 44.3276C33.8886 44.1726 33.981 44.0367 34.1135 43.9499C34.2458 43.8628 34.4071 43.832 34.5623 43.864C34.7174 43.8959 34.8535 43.9881 34.9408 44.1203L35.5581 45.06L38.228 43.3067C38.3604 43.22 38.5219 43.1895 38.677 43.2218C38.8321 43.2541 38.9681 43.3467 39.0549 43.479C39.1418 43.6113 39.1728 43.7729 39.1408 43.9281C39.1089 44.083 39.0167 44.2191 38.8845 44.3064L35.7148 46.388C35.6492 46.4313 35.5756 46.4611 35.4985 46.4758C35.4213 46.4906 35.3421 46.4897 35.2652 46.4738Z" fill="white"/>
<path d="M68.3129 49.7418L45.4373 45.0019C44.7097 44.8512 43.9979 45.3186 43.8472 46.0461C43.6965 46.7735 44.1639 47.4855 44.8914 47.6362L67.767 52.3761C68.4946 52.5268 69.2064 52.0592 69.3571 51.3319C69.5078 50.6044 69.0404 49.8926 68.3129 49.7418Z" fill="#D4D9E3"/>
<path d="M32.7159 58.7772C32.639 58.7613 32.5658 58.7306 32.5009 58.6864C32.4359 58.6422 32.3804 58.5856 32.3373 58.5199L31.3918 57.0803C31.3052 56.9477 31.2746 56.7862 31.3069 56.6311C31.3393 56.476 31.4316 56.3402 31.5641 56.2534C31.6965 56.1663 31.8578 56.1355 32.013 56.1675C32.1681 56.1994 32.3042 56.2916 32.3915 56.4238L33.0088 57.3635L35.6787 55.6101C35.8111 55.5235 35.9726 55.4929 36.1277 55.5253C36.2827 55.5576 36.4187 55.6502 36.5056 55.7825C36.5925 55.9148 36.6234 56.0764 36.5915 56.2315C36.5596 56.3865 36.4673 56.5227 36.3352 56.6098L33.1655 58.6915C33.0999 58.7347 33.0263 58.7646 32.9492 58.7793C32.8719 58.794 32.7927 58.7934 32.7159 58.7772Z" fill="white"/>
<path d="M65.7636 62.0455L42.8879 57.3056C42.1604 57.1549 41.4486 57.6223 41.2979 58.3499C41.1472 59.0772 41.6146 59.7892 42.3421 59.9399L65.2177 64.6798C65.9452 64.8305 66.6571 64.3629 66.8078 63.6356C66.9585 62.9081 66.4911 62.1963 65.7636 62.0455Z" fill="#D4D9E3"/>
<path d="M30.5721 73.4445C32.9474 73.9367 35.2719 72.4101 35.7641 70.0348C36.2562 67.6597 34.7297 65.3352 32.3544 64.843C29.9792 64.3509 27.6547 65.8774 27.1626 68.2525C26.6704 70.6279 28.197 72.9524 30.5721 73.4445Z" fill="#D4D9E3"/>
<path d="M63.2142 74.3488L40.3386 69.6089C39.6111 69.4581 38.8993 69.9258 38.7486 70.6531C38.5978 71.3806 39.0653 72.0924 39.7928 72.2431L62.6684 76.983C63.3959 77.1338 64.1077 76.6663 64.2585 75.9388C64.4092 75.2115 63.9418 74.4995 63.2142 74.3488Z" fill="#D4D9E3"/>
<path d="M68.6072 15.8809L65.2933 15.1942C64.6121 15.0468 63.9866 14.7089 63.49 14.2199C62.9931 13.7309 62.6454 13.1109 62.4873 12.4321C62.2638 11.5211 61.7867 10.692 61.1114 10.0408C60.4363 9.38972 59.5904 8.94312 58.6718 8.75279C57.7534 8.5625 56.7997 8.63621 55.9213 8.96543C55.0431 9.29468 54.2758 9.86595 53.7087 10.6131C53.2939 11.1733 52.7285 11.6041 52.0782 11.8554C51.4282 12.1067 50.7199 12.1683 50.0363 12.0329L46.7223 11.3462C46.489 11.2979 46.2484 11.296 46.0146 11.3406C45.7805 11.3852 45.5576 11.4755 45.3584 11.6062C45.1593 11.737 44.9879 11.9057 44.854 12.1027C44.72 12.2997 44.6262 12.5212 44.5779 12.7545L43.1753 19.5239C43.0777 19.9949 43.1713 20.4856 43.4352 20.8878C43.6994 21.2898 44.1125 21.5706 44.5835 21.6683L66.4685 26.2029C66.7016 26.2512 66.9422 26.2532 67.1762 26.2085C67.4103 26.1638 67.6332 26.0736 67.8322 25.9429C68.0315 25.8121 68.2029 25.6433 68.3368 25.4463C68.4706 25.2492 68.5645 25.0279 68.6129 24.7946L70.0155 18.0253C70.1131 17.5541 70.0195 17.0635 69.7554 16.6614C69.4914 16.2593 69.0783 15.9785 68.6072 15.8809Z" fill="#F0DDCC"/>
<path d="M65.8756 22.9543L46.2317 18.8841C45.8452 18.804 45.4668 19.0525 45.3867 19.4392C45.3066 19.8257 45.5551 20.2041 45.9416 20.2842L65.5855 24.3545C65.972 24.4346 66.3504 24.186 66.4305 23.7995C66.5106 23.4128 66.2621 23.0344 65.8756 22.9543Z" fill="white"/>
</svg>
