<svg width="10" height="16" viewBox="0 0 10 16" fill="none" xmlns="http://www.w3.org/2000/svg">
<path d="M8.5153 4.64407H5.96066C5.23393 4.64407 4.64454 4.05468 4.64454 3.32841V2.32227C4.64454 1.03954 3.605 0 2.32227 0C1.03954 0 0 1.03954 0 2.32227C0 3.605 1.03954 4.64454 2.32227 4.64454H3.32841C4.05515 4.64454 4.64407 5.23393 4.64407 5.96066V8.36007C4.64407 9.08681 4.05515 9.67573 3.32841 9.67573H2.32227C1.03954 9.67573 0 10.7153 0 11.998V13.6777C0 14.9605 1.03954 16 2.32227 16C3.605 16 4.64454 14.9605 4.64454 13.6777V11.998V10.9919C4.64454 10.2651 5.23393 9.67573 5.96066 9.67573H8.5153C8.94288 9.67573 9.28955 9.32906 9.28955 8.90148V5.41831C9.28908 4.99074 8.94288 4.64407 8.5153 4.64407Z" fill="#333333"/>
</svg>
