<svg width="20" height="20" viewBox="0 0 20 20" fill="none" xmlns="http://www.w3.org/2000/svg">
<path d="M8.79981 11.2011L17.1998 2.80111M8.90188 11.4636L11.0044 16.87C11.1896 17.3462 11.2822 17.5844 11.4156 17.6539C11.5313 17.7142 11.6691 17.7143 11.7849 17.6541C11.9184 17.5848 12.0113 17.3467 12.1971 16.8707L17.4693 3.36047C17.637 2.93073 17.7209 2.71586 17.675 2.57855C17.6352 2.45932 17.5416 2.36574 17.4224 2.32591C17.2851 2.28004 17.0702 2.36389 16.6405 2.5316L3.13026 7.80387C2.6542 7.98965 2.41617 8.08254 2.3468 8.21606C2.28667 8.33181 2.28675 8.46961 2.34702 8.58529C2.41654 8.71873 2.65468 8.81134 3.13096 8.99656L8.53736 11.099C8.63404 11.1366 8.68238 11.1554 8.72308 11.1845C8.75916 11.2102 8.79071 11.2418 8.81645 11.2778C8.84548 11.3185 8.86428 11.3669 8.90188 11.4636Z" stroke="#828282" stroke-width="1.2" stroke-linecap="round" stroke-linejoin="round"/>
</svg>
