<svg width="35" height="48" viewBox="0 0 35 48" fill="none" xmlns="http://www.w3.org/2000/svg">
<path d="M3.27273 0C1.46525 0 0 1.46525 0 3.27273V44.7273C0 46.5347 1.46525 48 3.27273 48H31.6364C33.4438 48 34.9091 46.5347 34.9091 44.7273V13.0909L21.8182 0H3.27273Z" fill="#20A464"/>
<path d="M3.27273 47.9998C1.46525 47.9998 0 46.5346 0 44.7271V44.1816C0 45.9891 1.46525 47.4544 3.27273 47.4544H31.6364C33.4438 47.4544 34.9091 45.9891 34.9091 44.1816V44.7271C34.9091 46.5346 33.4438 47.9998 31.6364 47.9998H3.27273Z" fill="#149456"/>
<path d="M3.27273 0C1.46525 0 0 1.46525 0 3.27273V3.81818C0 2.0107 1.46525 0.545455 3.27273 0.545455H22.3636L21.8182 0H3.27273Z" fill="#38AE74"/>
<path d="M34.9091 24.2726V13.0907L33 11.1816H23.7935C23.0645 11.1816 22.6995 12.0629 23.2149 12.5784L34.9091 24.2726Z" fill="url(#paint0_linear_2056_48214)"/>
<path d="M21.8184 0L34.9093 13.0909H25.0911C23.2836 13.0909 21.8184 11.6257 21.8184 9.81818V0Z" fill="#8ED1B1"/>
<path fill-rule="evenodd" clip-rule="evenodd" d="M26.1821 23.4541V39.2723H8.72754V23.4541H26.1821ZM16.3639 25.6359H10.9094V28.3632H16.3639V25.6359ZM18.5457 28.3632V25.6359H24.0003V28.3632H18.5457ZM16.3639 29.9996H10.9094V32.7268H16.3639V29.9996ZM18.5457 32.7268V29.9996H24.0003V32.7268H18.5457ZM16.3639 34.3632H10.9094V37.0905H16.3639V34.3632ZM18.5457 37.0905V34.3632H24.0003V37.0905H18.5457Z" fill="white"/>
<defs>
<linearGradient id="paint0_linear_2056_48214" x1="28.9414" y1="24.2725" x2="28.9414" y2="10.9089" gradientUnits="userSpaceOnUse">
<stop stop-color="#20A464"/>
<stop offset="1" stop-color="#207E55"/>
</linearGradient>
</defs>
</svg>
