<svg width="3" height="8" viewBox="0 0 3 18" fill="none" xmlns="http://www.w3.org/2000/svg">
<path d="M1.5 10C2.05228 10 2.5 9.55228 2.5 9C2.5 8.44772 2.05228 8 1.5 8C0.947715 8 0.5 8.44772 0.5 9C0.5 9.55228 0.947715 10 1.5 10Z" fill="#B3B3B3"/>
<path d="M1.5 3C2.05228 3 2.5 2.55228 2.5 2C2.5 1.44772 2.05228 1 1.5 1C0.947715 1 0.5 1.44772 0.5 2C0.5 2.55228 0.947715 3 1.5 3Z" fill="#B3B3B3"/>
<path d="M1.5 17C2.05228 17 2.5 16.5523 2.5 16C2.5 15.4477 2.05228 15 1.5 15C0.947715 15 0.5 15.4477 0.5 16C0.5 16.5523 0.947715 17 1.5 17Z" fill="#B3B3B3"/>
<path d="M1.5 10C2.05228 10 2.5 9.55228 2.5 9C2.5 8.44772 2.05228 8 1.5 8C0.947715 8 0.5 8.44772 0.5 9C0.5 9.55228 0.947715 10 1.5 10Z" stroke="#B3B3B3" stroke-linecap="round" stroke-linejoin="round"/>
<path d="M1.5 3C2.05228 3 2.5 2.55228 2.5 2C2.5 1.44772 2.05228 1 1.5 1C0.947715 1 0.5 1.44772 0.5 2C0.5 2.55228 0.947715 3 1.5 3Z" stroke="#B3B3B3" stroke-linecap="round" stroke-linejoin="round"/>
<path d="M1.5 17C2.05228 17 2.5 16.5523 2.5 16C2.5 15.4477 2.05228 15 1.5 15C0.947715 15 0.5 15.4477 0.5 16C0.5 16.5523 0.947715 17 1.5 17Z" stroke="#B3B3B3" stroke-linecap="round" stroke-linejoin="round"/>
</svg>
