<svg width="637" height="762" viewBox="0 0 637 762" fill="none" xmlns="http://www.w3.org/2000/svg">
<path d="M405.087 202.223C359.383 200.703 267.047 199.845 212.434 199.172C209.388 199.158 206.369 199.749 203.553 200.912C200.738 202.074 198.181 203.784 196.031 205.942C193.881 208.1 192.182 210.664 191.031 213.485C189.88 216.305 189.301 219.326 189.327 222.372C189.594 379.9 189.849 490.634 190.116 648.162C190.082 654.208 192.446 660.022 196.69 664.329C200.934 668.637 206.712 671.086 212.759 671.141C273.079 671.327 357.91 670.387 397.675 669.888C403.662 669.774 409.369 667.326 413.579 663.066C417.789 658.807 420.169 653.072 420.213 647.083C422.313 494.021 424.946 378.624 427.046 225.574C427.181 219.579 424.955 213.771 420.847 209.403C416.739 205.034 411.079 202.456 405.087 202.223Z" fill="white"/>
<path d="M406.142 200.9C367.99 199.647 329.803 199.264 291.639 198.789C271.408 198.534 251.186 198.294 230.971 198.07L217.735 197.907C213.408 197.907 209.279 197.768 205.138 199.253C201.1 200.755 197.49 203.218 194.62 206.43C191.75 209.642 189.706 213.505 188.666 217.685C187.297 223.404 188.028 229.738 188.039 235.572V255.768L188.109 294.802L188.248 368.798C188.333 416.266 188.422 463.725 188.515 511.177L188.654 585.649L188.724 625.089V645.493C188.724 650.586 188.956 655.295 191.322 659.924C193.401 663.979 196.629 667.331 200.602 669.563C204.63 671.675 209.143 672.687 213.687 672.498C224.135 672.498 234.575 672.498 245.007 672.498C267.279 672.436 289.547 672.309 311.811 672.115C331.918 671.953 352.001 671.756 372.062 671.524L395.204 671.257C399.469 671.305 403.682 670.308 407.473 668.353C411.265 666.397 414.52 663.543 416.954 660.04C419.555 656.362 421.115 652.049 421.466 647.558C421.93 641.166 421.686 634.659 421.779 628.244C421.965 614.935 422.162 601.626 422.371 588.317C422.75 562.959 423.16 537.598 423.6 512.232C424.436 463.42 425.286 414.611 426.152 365.806C426.585 340.587 426.999 315.365 427.394 290.139C427.602 276.93 427.8 263.722 427.985 250.513C428.086 243.716 428.182 236.918 428.275 230.12C428.356 224.738 428.565 219.611 426.315 214.588C424.549 210.662 421.728 207.303 418.167 204.884C414.605 202.466 410.443 201.083 406.142 200.888C405.098 200.888 403.242 203.487 404.02 203.522C408.615 203.719 413.043 205.307 416.716 208.077C420.389 210.846 423.133 214.666 424.586 219.031C426.361 224.46 425.677 230.364 425.596 235.978C425.503 242.44 425.422 248.912 425.317 255.385C424.954 280.735 424.567 306.081 424.157 331.423C423.384 379.014 422.564 426.605 421.698 474.196C420.832 523.643 420.028 573.086 419.285 622.525L419.007 642.466C418.926 648.022 419.007 653.346 416.246 658.346C413.778 662.76 409.708 666.058 404.878 667.556C401.085 668.716 397.118 668.566 393.197 668.612C375.797 668.821 358.397 669.01 340.997 669.18C298.842 669.586 256.676 670.062 214.557 669.795C209.911 669.859 205.356 668.503 201.502 665.908C197.648 663.312 194.679 659.601 192.992 655.272C190.986 649.948 191.496 644.206 191.484 638.626V619.254C191.438 594.175 191.395 569.092 191.357 544.005L191.078 404.805C190.986 356.665 190.897 308.529 190.812 260.396C190.812 247.358 190.591 234.296 190.754 221.258C190.881 211.096 197.644 202.385 207.852 200.738C212.214 200.03 216.9 200.529 221.296 200.587L234.346 200.738L263.416 201.074C302.926 201.538 342.435 201.979 381.933 202.895C389.334 203.073 396.731 203.278 404.124 203.51C405.064 203.568 406.92 200.935 406.142 200.9Z" fill="black"/>
<path d="M265.575 304.222C260.529 302.702 256.724 301.194 256.295 299.907C254.149 293.469 251.156 275.419 251.156 275.419L234.521 275.871C234.521 275.871 231.355 296.96 229.093 300.371C228.385 301.438 225.207 302.772 220.868 304.175C222.028 318.722 241.539 335.345 243.175 345.935C249.787 333.639 264.159 319 265.575 304.222Z" fill="white"/>
<path d="M266.63 302.911C264.339 302.276 262.098 301.473 259.925 300.51C259.324 300.324 258.776 299.997 258.327 299.557C257.877 299.118 257.538 298.577 257.338 297.981C256.41 294.919 255.761 291.787 255.123 288.701C254.14 283.953 253.255 279.185 252.466 274.398C252.455 274.335 252.425 274.276 252.379 274.23C252.333 274.185 252.275 274.154 252.211 274.143L235.577 274.607C235.029 274.71 234.521 274.965 234.111 275.343C233.701 275.72 233.405 276.204 233.257 276.741C232.576 281.242 231.803 285.724 230.937 290.186C230.416 293.088 229.73 295.957 228.883 298.781C228.733 299.222 228.57 299.675 228.385 300.104C228.385 300.185 228.222 300.661 228.245 300.417C228.245 300.742 228.628 300.185 228.396 300.231C227.496 300.579 226.624 300.994 225.786 301.473C224.464 302.006 223.118 302.47 221.761 302.911C220.903 303.189 219.534 304.233 219.627 305.231C220.207 311.576 223.663 317.399 227.109 322.631C230.786 328.199 235.031 333.396 238.511 339.091C240.155 341.511 241.317 344.224 241.933 347.084C242.107 348.128 244.126 346.121 244.253 345.819C248.116 338.662 253.255 332.282 257.663 325.461C262.071 318.641 266.096 311.472 266.943 303.421C267.071 302.157 264.426 304.141 264.333 305.069C263.521 313.003 259.403 320.149 255.053 326.656C250.703 333.164 245.877 339.347 242.165 346.225L244.485 344.961C243.592 339.567 239.776 334.683 236.69 330.357C232.723 324.789 228.477 319.325 225.369 313.2C223.676 310.077 222.598 306.66 222.19 303.131L220.056 305.451C223.257 304.407 227.549 303.375 229.777 300.614C230.841 299.023 231.567 297.231 231.911 295.348C233.338 290.07 234.231 284.629 235.147 279.235C235.391 277.843 235.611 276.44 235.82 275.036L233.5 277.171L241.098 276.95L246.794 276.799C247.861 276.879 248.934 276.848 249.995 276.707C250.123 276.707 249.995 276.301 249.903 276.707C249.923 277.167 250.001 277.623 250.135 278.064C250.428 279.742 250.73 281.424 251.039 283.11C251.875 287.669 252.745 292.239 253.847 296.74C254.218 298.306 254.438 300.846 255.737 301.948C258.057 303.909 261.735 304.709 264.542 305.556C265.4 305.823 267.581 303.201 266.63 302.911Z" fill="black"/>
<path d="M233.848 281.184C234.966 282.601 236.385 283.752 238.001 284.554C239.618 285.357 241.393 285.791 243.197 285.824C244.908 285.814 246.594 285.413 248.127 284.651C249.659 283.889 250.996 282.786 252.036 281.428C251.364 277.774 250.876 275.06 250.876 275.06L234.741 275.5C234.741 275.5 234.416 277.902 233.848 281.184Z" fill="black"/>
<path d="M232.618 282.413C236.295 286.613 242.072 288.469 247.292 285.986C248.523 285.395 249.666 284.638 250.691 283.736C251.619 282.924 253.463 281.509 253.324 280.163C253.092 278.098 252.57 276.033 252.234 273.969C252.221 273.906 252.19 273.848 252.145 273.802C252.099 273.757 252.041 273.726 251.978 273.713L237.838 274.108H235.831C235.284 274.211 234.776 274.466 234.366 274.843C233.956 275.221 233.66 275.705 233.511 276.242C233.221 278.145 232.908 280.047 232.583 281.938C232.456 282.692 233.326 282.379 233.685 282.158C234.404 281.752 234.943 281.089 235.193 280.302C235.518 278.4 235.831 276.509 236.121 274.595L233.801 276.729L247.93 276.347L249.937 276.289L249.682 276.033C250.045 278.16 250.432 280.283 250.842 282.402L251.364 281.242C250.4 282.362 249.182 283.236 247.812 283.791C246.442 284.346 244.959 284.566 243.487 284.432C240.235 284.089 237.253 282.471 235.193 279.931C234.486 279.258 231.957 281.648 232.618 282.413Z" fill="black"/>
<path d="M258.648 260.919C260.968 258.784 266.675 259.283 266.548 263.436C266.42 267.589 263.265 271.556 260.353 271.335C257.442 271.115 255.365 266.243 255.365 266.243L258.648 260.919Z" fill="white"/>
<path d="M258.788 261.708L259.02 261.51C258.73 261.766 259.287 261.267 259.02 261.51L259.194 261.406C258.881 261.592 259.194 261.406 259.252 261.406C259.31 261.406 259.762 261.197 259.565 261.267C259.775 261.202 259.988 261.148 260.203 261.104C260.967 260.937 261.759 260.937 262.523 261.104C263.264 261.225 263.94 261.598 264.437 262.16C264.934 262.723 265.221 263.44 265.249 264.19C265.248 265.397 264.97 266.587 264.437 267.67C264.348 267.869 264.247 268.063 264.135 268.25C264.054 268.389 263.961 268.528 263.869 268.668C263.776 268.807 263.683 268.923 263.869 268.726C263.774 268.858 263.674 268.986 263.567 269.108C263.254 269.491 263.729 268.981 263.509 269.178C263.411 269.261 263.318 269.35 263.231 269.445C263.532 269.166 263.126 269.514 263.057 269.561C262.987 269.607 263.37 269.398 262.987 269.561C262.987 269.561 262.569 269.781 262.825 269.654C262.675 269.727 262.519 269.789 262.361 269.839C261.961 269.957 261.54 269.977 261.131 269.897C260.298 269.673 259.553 269.199 258.997 268.54C258.349 267.839 257.792 267.06 257.338 266.22C257.164 265.918 257.013 265.628 256.862 265.327C256.92 265.443 256.781 265.141 256.746 265.06L256.468 265.907L259.751 260.582C259.971 260.223 260.284 259.353 259.53 259.48C258.744 259.739 258.083 260.281 257.674 261L254.728 265.791C254.573 266.013 254.434 266.246 254.31 266.487C253.997 267.078 254.136 267.252 254.391 267.751C254.889 268.805 255.525 269.788 256.282 270.674C256.713 271.245 257.27 271.709 257.91 272.029C258.55 272.349 259.256 272.517 259.971 272.519C261.966 272.403 263.729 270.895 264.994 269.468C266.39 267.889 267.343 265.968 267.755 263.9C267.983 263.177 268.031 262.408 267.893 261.662C267.756 260.915 267.437 260.214 266.966 259.62C264.808 257.3 260.69 258.1 258.579 260.002C258.15 260.374 257.222 261.162 257.419 261.847C257.616 262.531 258.556 261.905 258.788 261.708Z" fill="black"/>
<path d="M226.97 260.919C224.65 258.784 218.943 259.283 219.07 263.436C219.198 267.589 222.353 271.556 225.265 271.335C228.176 271.115 230.253 266.243 230.253 266.243L226.97 260.919Z" fill="white"/>
<path d="M228.198 259.689C227.132 258.862 225.831 258.395 224.482 258.355C223.133 258.316 221.806 258.706 220.693 259.469C219.912 259.944 219.246 260.585 218.74 261.347C218.235 262.109 217.904 262.973 217.77 263.877C217.699 265.849 218.242 267.795 219.324 269.445C220.158 270.954 221.548 272.078 223.199 272.577C224.019 272.687 224.854 272.6 225.635 272.324C226.416 272.048 227.119 271.59 227.688 270.988C228.928 269.885 229.964 268.574 230.75 267.113C230.982 266.696 231.214 266.266 231.412 265.837C231.492 265.696 231.534 265.536 231.534 265.373C231.534 265.211 231.492 265.051 231.412 264.909C230.391 263.146 229.265 261.429 228.198 259.689C227.792 259.028 225.159 261.209 225.739 262.148L229.022 267.473V266.777L228.894 267.055L228.755 267.334L228.685 267.473C228.511 267.821 228.79 267.287 228.685 267.473C228.581 267.658 228.338 268.088 228.152 268.378L227.815 268.865C227.745 268.966 227.667 269.063 227.583 269.155C227.224 269.538 227.525 269.236 227.583 269.155L227.409 269.34C227.015 269.688 227.34 269.41 227.409 269.34L227.177 269.538C226.853 269.735 227.096 269.607 227.177 269.538L226.922 269.688C226.725 269.804 227.224 269.584 226.922 269.688L226.713 269.781C226.795 269.781 226.806 269.781 226.713 269.781C226.291 269.869 225.855 269.869 225.433 269.784C225.01 269.698 224.609 269.527 224.254 269.282C223.285 268.615 222.462 267.756 221.838 266.759C221.213 265.761 220.8 264.646 220.623 263.482C220.522 262.991 220.483 262.488 220.507 261.986C220.52 261.79 220.552 261.596 220.6 261.406C220.693 261.046 220.531 261.615 220.6 261.278C220.6 261.197 220.705 260.884 220.6 261.278C220.6 261.162 220.89 260.93 220.6 261.278C220.797 261.046 220.507 261.36 220.496 261.383C220.484 261.406 220.855 261.07 220.496 261.383C220.241 261.522 220.763 261.162 220.496 261.383L220.716 261.244C220.438 261.418 220.624 261.244 220.716 261.244L220.96 261.139L221.157 261.07C221.053 261.07 221.064 261.07 221.157 261.07C221.968 260.824 222.827 260.781 223.658 260.945C224.489 261.109 225.268 261.474 225.925 262.009C226.389 262.427 227.34 261.557 227.63 261.255C227.92 260.954 228.662 260.095 228.198 259.689Z" fill="black"/>
<path d="M227.121 255.942C227.1 259.537 227.313 263.129 227.759 266.696C228.791 272.681 233.814 282.762 243.268 282.762C253 282.762 257.107 272.032 258.011 266.696C258.458 263.373 258.694 260.026 258.719 256.673" fill="white"/>
<path d="M225.774 257.01C225.855 262.23 225.774 267.589 227.816 272.496C229.509 276.625 232.282 280.616 236.353 282.646C238.397 283.668 240.671 284.145 242.954 284.029C245.236 283.913 247.45 283.209 249.38 281.984C253.147 279.449 256.027 275.798 257.616 271.544C259.692 266.452 259.855 261.035 259.936 255.594C259.936 254.898 258.648 255.745 258.486 255.861C258.174 256.073 257.91 256.347 257.71 256.666C257.51 256.986 257.379 257.344 257.326 257.717C257.21 262.137 257.164 266.707 255.772 270.953C254.693 274.224 252.953 277.739 250.03 279.722C248.194 280.843 246.082 281.431 243.931 281.421C241.781 281.41 239.675 280.802 237.85 279.664C234.449 277.432 231.839 274.185 230.391 270.384C228.372 265.489 228.43 260.118 228.349 254.898C228.349 254.202 227.073 255.038 226.899 255.165C226.587 255.376 226.323 255.651 226.123 255.97C225.923 256.29 225.793 256.648 225.739 257.021L225.774 257.01Z" fill="black"/>
<path d="M226.447 254.933C226.316 255.209 226.249 255.512 226.251 255.817C226.253 256.123 226.324 256.424 226.459 256.699C226.594 256.973 226.79 257.214 227.03 257.402C227.271 257.59 227.552 257.722 227.85 257.787C228.478 257.905 229.125 257.876 229.739 257.7C230.353 257.525 230.918 257.209 231.388 256.777C232.363 255.989 233.105 254.968 234.022 254.109C234.9 253.172 236.114 252.621 237.397 252.578C238.836 252.648 240.007 253.669 241.167 254.504C242.327 255.339 243.835 256.058 245.158 255.49C245.645 255.214 246.118 254.912 246.573 254.585C247.354 254.24 248.206 254.081 249.059 254.121C249.913 254.161 250.746 254.4 251.491 254.817C252.979 255.672 254.526 256.42 256.12 257.056C257.724 257.503 259.431 257.41 260.978 256.792C262.525 256.173 263.826 255.064 264.68 253.634C265.4 252.177 265.588 250.515 265.211 248.934C264.834 247.354 263.916 245.955 262.616 244.98C262.01 244.513 261.318 244.169 260.58 243.97C259.841 243.771 259.07 243.72 258.312 243.82C256.224 244.18 254.716 245.839 253.22 247.3C251.723 248.762 249.74 250.142 247.698 249.771C246.097 249.469 244.926 248.205 243.603 247.289C241.969 246.198 240.069 245.574 238.106 245.484C236.144 245.394 234.194 245.841 232.467 246.778C229.092 248.692 225.902 251.673 226.389 255.409" fill="black"/>
<path d="M225.24 255.467C225.077 255.745 224.971 256.054 224.928 256.374C224.885 256.695 224.906 257.02 224.99 257.332C225.075 257.644 225.22 257.936 225.418 258.192C225.617 258.447 225.864 258.66 226.145 258.819C227.607 259.701 229.497 258.958 230.785 258.1C231.546 257.576 232.247 256.969 232.873 256.29C233.516 255.41 234.333 254.671 235.274 254.121C237.478 253.228 239.195 255.455 240.958 256.371C241.682 256.792 242.514 256.99 243.349 256.94C244.185 256.891 244.987 256.596 245.656 256.093C247.709 254.759 249.879 255.803 251.827 256.882C253.364 257.896 255.131 258.506 256.966 258.657C258.548 258.662 260.106 258.263 261.49 257.497C262.946 256.765 264.187 255.668 265.094 254.315C266 252.961 266.541 251.396 266.664 249.771C266.713 248.119 266.187 246.501 265.176 245.193C264.165 243.885 262.731 242.97 261.119 242.602C257.129 241.848 254.727 245.305 252.001 247.463C250.099 248.959 248.197 248.704 246.352 247.312C245.022 246.195 243.512 245.312 241.886 244.702C237.861 243.449 233.905 244.702 230.599 247.08C227.572 249.261 224.625 252.532 225.008 256.511C225.078 257.334 227.734 255.443 227.63 254.399C227.328 251.279 229.683 249.156 232.27 247.834C233.632 247.184 235.122 246.846 236.631 246.846C238.141 246.846 239.631 247.184 240.993 247.834C243.673 249.087 245.459 251.94 248.777 251.024C251.793 250.177 253.359 247.544 255.806 245.908C261.479 242.057 267.766 253.181 261.502 255.629C258.196 256.917 255.702 255.049 252.779 253.692C251.52 253.023 250.088 252.752 248.672 252.915C247.999 253.028 247.353 253.268 246.77 253.622C245.737 254.237 245.192 254.655 243.928 254.202C242.35 253.634 241.248 252.23 239.682 251.627C238.961 251.387 238.194 251.32 237.443 251.43C236.691 251.541 235.976 251.827 235.355 252.265C233.999 253.308 232.741 254.473 231.597 255.745C231.207 256.169 230.69 256.456 230.125 256.565C229.559 256.673 228.973 256.597 228.453 256.348C227.85 255.977 227.293 255.188 227.653 254.469C228.013 253.75 227.525 253.622 226.98 253.796C226.208 254.145 225.589 254.764 225.24 255.536V255.467Z" fill="black"/>
<path d="M201.078 653.834C201.078 660.249 203.398 664.17 210.439 665.33C214.679 665.98 219.017 665.398 222.935 663.652C226.853 661.905 230.186 659.069 232.537 655.481C237.862 647.071 242.328 637.861 242.328 637.861L241.957 629.869L219.65 638.859L201.078 653.834Z" fill="black"/>
<path d="M199.756 654.89C199.756 659.878 201.53 664.17 206.518 665.945C211.672 667.524 217.223 667.182 222.144 664.982C224.847 663.834 227.329 662.22 229.475 660.214C231.871 657.813 233.906 655.078 235.518 652.094C238.415 647.431 241.033 642.601 243.36 637.629C243.676 636.42 243.719 635.156 243.488 633.928L243.244 628.813C243.244 628.407 242.652 628.581 242.455 628.662L222.828 636.573C221.158 637.167 219.592 638.02 218.188 639.102L208.63 646.816L200.939 653.08C200.591 653.358 199.477 654.391 199.779 654.925C200.08 655.458 200.939 654.924 201.229 654.658L217.527 641.48C218.331 640.962 219.078 640.359 219.754 639.682C219.406 640.146 218.814 640.158 219.522 639.914C219.998 639.74 220.473 639.531 220.949 639.334L232.27 634.775L241.423 631.086L240.634 630.936L240.808 634.648L240.936 637.339C240.936 637.559 240.831 638.696 241.005 638.87C240.936 638.8 241.307 638.29 241.005 638.534C240.91 638.679 240.832 638.834 240.773 638.998C240.414 639.728 240.042 640.459 239.671 641.19C238.407 643.661 237.084 646.108 235.727 648.521C232.804 653.695 230.066 659.124 224.556 661.931C220.14 664.188 215.078 664.847 210.23 663.798C207.804 663.366 205.625 662.047 204.117 660.098C202.805 657.896 202.186 655.349 202.342 652.79C202.342 652.082 201.055 652.929 200.892 653.057C200.586 653.266 200.326 653.538 200.131 653.853C199.935 654.169 199.807 654.522 199.756 654.89Z" fill="black"/>
<path d="M245.041 610.845C241.334 610.667 237.62 610.698 233.917 610.937C227.618 611.274 221.284 611.842 214.986 611.413C216.656 619.22 217.804 625.542 217.7 627.351C217.491 631.029 204.94 643.267 203.107 646.816C201.274 650.366 198.734 654.287 204.604 658.602C210.473 662.917 222.41 662.917 229.3 652.802C236.19 642.687 240.83 635.089 240.83 635.089L246.201 610.949L245.041 610.845Z" fill="white"/>
<path d="M246.098 609.534C236.064 608.977 226.065 610.694 216.043 610.102C215.161 610.044 213.467 611.529 213.665 612.422C214.453 616.064 215.207 619.718 215.822 623.407C216.077 624.95 216.739 627.084 216.298 628.65C215.693 630.158 214.812 631.539 213.699 632.722C212.203 634.659 210.591 636.515 208.99 638.371C206.391 641.376 203.457 644.299 201.601 647.848C200.51 649.925 199.281 652.245 199.71 654.669C200.151 657.36 202.494 659.425 204.767 660.655C206.834 661.729 209.093 662.385 211.414 662.584C213.736 662.783 216.073 662.522 218.293 661.815C220.91 661.003 223.344 659.691 225.462 657.952C228.041 655.656 230.266 652.99 232.062 650.041C235.155 645.401 238.21 640.687 241.226 635.9C242.028 634.463 242.558 632.89 242.792 631.26L247.513 610.16C247.513 609.974 247.513 609.684 247.27 609.661L246.11 609.568C245.391 609.51 244.671 610.23 244.254 610.728C244.115 610.926 243.303 612.132 243.987 612.178L245.147 612.283L244.903 611.784L240.936 629.59L239.939 634.033C239.747 634.65 239.608 635.283 239.521 635.924C239.417 635.854 240.055 634.891 239.463 635.854C239.103 636.434 238.744 637.014 238.373 637.594C237.05 639.705 235.705 641.793 234.347 643.881C232.352 646.955 230.38 650.041 228.257 653.034C226.679 655.346 224.523 657.205 222.005 658.428C219.88 659.425 217.572 659.975 215.225 660.043C212.878 660.111 210.543 659.695 208.363 658.822C206.043 657.859 203.468 656.026 202.563 653.59C201.659 651.154 202.853 649.043 203.921 647.013C205.626 643.777 208.561 640.993 210.997 638.197C212.679 636.26 214.361 634.3 215.892 632.235C217.168 630.76 218.166 629.066 218.838 627.235C219.325 625.518 218.769 623.442 218.49 621.737C217.875 617.932 217.087 614.15 216.275 610.38L213.897 612.758C223.931 613.385 233.93 611.598 243.952 612.178C244.683 612.178 245.391 611.529 245.808 611.018C245.971 610.798 246.841 609.568 246.098 609.534Z" fill="black"/>
<path d="M273.032 693.68C274.598 699.55 273.995 705.187 270.387 709.352C267.801 712.178 264.434 714.172 260.713 715.082C256.95 715.998 253.057 716.257 249.206 715.848C246.351 715.745 243.564 714.949 241.086 713.528C238.012 711.521 235.146 709.34 236.515 699.411C236.58 698.648 236.735 697.897 236.979 697.172" fill="black"/>
<path d="M271.721 694.771C272.881 699.098 273.067 704.051 270.561 707.972C268.056 711.892 263.218 713.69 258.845 714.375C254.101 715.117 248.231 715.117 243.765 713.134C241.54 712.239 239.679 710.626 238.476 708.552C237.807 707.039 237.46 705.403 237.455 703.749C237.266 701.372 237.501 698.98 238.151 696.685C238.383 696.024 238.093 695.815 237.466 696C236.689 696.343 236.069 696.963 235.726 697.74C235.077 699.911 234.772 702.169 234.822 704.434C234.714 706.341 234.974 708.251 235.587 710.06C236.695 712.548 238.712 714.519 241.225 715.57C243.772 716.644 246.5 717.227 249.264 717.286C252.285 717.509 255.322 717.342 258.3 716.788C263.526 715.849 268.249 713.087 271.628 708.992C275.329 704.271 275.816 698.332 274.354 692.66C274.122 691.732 271.478 693.82 271.733 694.771H271.721Z" fill="black"/>
<path d="M268.532 674.899C269.147 672.22 270.075 666.872 271.2 659.726C270.374 659.46 269.534 659.239 268.683 659.065C264.402 658.385 260.073 658.052 255.738 658.068C250.935 657.905 246.121 657.58 241.481 658.845C242.096 664.645 242.49 668.31 242.537 669.099C242.954 674.899 236.4 692.102 236.4 699.839C236.4 707.576 246.04 711.869 254.612 711.242C266.827 710.337 274.054 701.962 273.033 692.682C272.012 683.402 267.198 680.757 268.532 674.899Z" fill="white"/>
<path d="M269.832 674.087C270.992 669.076 271.711 663.972 272.511 658.903C272.511 658.671 272.511 658.485 272.268 658.404C267.431 656.942 262.338 656.931 257.339 656.768C252.339 656.606 247.235 656.27 242.259 657.546C241.412 657.766 240.02 658.903 240.124 659.866C240.495 663.346 241.122 666.965 241.203 670.503C241.273 673.704 240.217 677.057 239.428 680.119C238.396 684.191 237.247 688.239 236.308 692.311C235.577 695.489 234.591 699.166 235.148 702.438C236.679 710.929 247.908 713.26 255.065 712.379C263.185 711.381 271.108 706.254 273.625 698.204C275.029 693.726 274.205 688.924 272.465 684.597C271.108 681.117 268.881 677.904 269.693 674.052C269.855 673.287 268.939 673.635 268.602 673.832C267.883 674.238 267.345 674.901 267.094 675.688C266.421 678.82 267.489 681.488 268.765 684.249C270.561 687.773 271.555 691.651 271.676 695.605C271.666 699.065 270.324 702.388 267.929 704.885C264.941 707.64 261.139 709.35 257.095 709.757C250.193 710.72 238.848 708.446 237.665 700.025C237.224 696.881 238.199 693.401 238.906 690.362C239.799 686.511 240.878 682.718 241.853 678.89C242.868 675.626 243.499 672.254 243.732 668.844C243.598 665.144 243.238 661.456 242.653 657.801L240.519 660.121C245.483 658.845 250.564 659.239 255.599 659.39C260.424 659.541 265.319 659.599 269.983 661.014L269.739 660.515C268.939 665.584 268.196 670.688 267.071 675.7C266.897 676.465 267.837 676.106 268.161 675.92C268.935 675.549 269.534 674.892 269.832 674.087Z" fill="black"/>
<path d="M186.521 437.807C185.361 452.029 185.755 497.362 188.841 520.028C191.926 542.694 207.667 618.779 207.667 618.779L236.493 619.162L237.247 666.037C237.247 666.037 249.543 664.494 256.851 664.877C264.159 665.26 287.197 666.42 287.197 666.42L298.727 428.98L198.121 412.833L186.521 437.807Z" fill="white"/>
<path d="M185.244 438.631C184.165 452.099 184.524 465.764 184.861 479.231C185.209 493.928 185.696 508.776 187.865 523.311C189.57 534.83 191.786 546.268 193.967 557.705C196.519 571.014 199.14 584.304 201.832 597.574L204.79 612.144C205.146 614.608 205.649 617.048 206.298 619.452C206.298 619.556 206.298 619.684 206.367 619.788C206.375 619.853 206.404 619.914 206.45 619.96C206.497 620.007 206.557 620.036 206.622 620.044L221.61 620.241L231.47 620.38H234.532C234.774 620.415 235.02 620.415 235.263 620.38C235.611 620.241 235.158 620.531 235.182 620.16C235.141 621.39 235.164 622.621 235.251 623.848L235.379 632.154L235.727 653.544L235.947 667C235.947 667.256 236.284 667.267 236.446 667.244C243.404 666.278 250.434 665.925 257.454 666.188L279.76 667.348L286.152 667.662C286.701 667.562 287.211 667.309 287.621 666.931C288.032 666.553 288.327 666.066 288.472 665.527L288.774 659.194L289.609 641.933L290.85 616.413L292.37 585.093L294.028 550.966L295.699 516.525L297.265 484.405L298.576 457.249L299.527 437.715L299.979 428.435C299.979 428.296 299.979 428.156 299.979 428.029C299.979 427.901 299.979 427.576 299.736 427.53L289.76 426.057L265.782 422.24L236.724 417.6L211.576 413.564L203.27 412.23C201.964 411.946 200.644 411.737 199.314 411.603H199.129C198.224 411.464 197.192 412.763 196.867 413.448L186.763 435.325L185.36 438.341C185.058 439.002 185.464 439.188 186.044 439.026C186.812 438.67 187.428 438.053 187.784 437.286L197.876 415.408L199.303 412.311L197.018 414.12L207.017 415.721L231.029 419.572L260.087 424.212L285.236 428.249L293.541 429.583L296.151 430.001C296.453 430.001 297.207 430.326 297.497 430.21C297.558 430.198 297.621 430.198 297.682 430.21L297.427 429.711L297.126 436.056L296.29 453.305L295.049 478.825L293.53 510.145L291.871 544.272L290.2 578.724L288.6 610.891L287.324 638L286.372 657.535C286.222 660.597 285.862 663.729 285.92 666.815C285.92 666.942 285.92 667.082 285.92 667.221L288.24 665.086L271.548 664.24C263.822 663.857 256.12 663.23 248.348 663.741C244.868 663.961 241.446 664.274 238.012 664.704L238.511 664.947L237.838 623.79L237.745 618.083C237.738 618.018 237.708 617.957 237.662 617.911C237.616 617.865 237.555 617.835 237.49 617.828L222.503 617.619L212.643 617.492H209.522C209.284 617.457 209.042 617.457 208.803 617.492C208.548 617.573 208.896 617.619 208.919 617.7C208.188 615.044 207.759 612.237 207.237 609.58C205.93 603.185 204.635 596.789 203.351 590.394C200.057 574.003 196.809 557.589 193.804 541.14C192.644 534.644 191.484 528.137 190.464 521.606C189.304 513.486 188.642 505.262 188.144 497.072C186.966 478.427 186.746 459.734 187.482 441.067C187.552 439.733 187.633 438.399 187.738 437.065C187.842 435.731 185.36 437.715 185.244 438.631Z" fill="black"/>
<path d="M236.331 469.603C236.331 474.626 236.331 479.637 236.331 484.683C236.331 495.997 236.3 507.303 236.238 518.601C236.238 532.127 236.199 545.66 236.122 559.201C236.122 570.995 236.091 582.788 236.029 594.581V606.483C236.029 608.501 235.878 610.566 236.029 612.584C236.029 612.724 236.029 612.863 236.029 613.002C236.029 613.698 237.317 612.863 237.479 612.735C237.792 612.524 238.056 612.25 238.256 611.93C238.456 611.611 238.586 611.253 238.639 610.879C238.639 605.868 238.639 600.845 238.639 595.799C238.639 584.485 238.67 573.179 238.732 561.881L238.836 521.339L238.941 485.947C238.941 481.98 238.941 478.017 238.941 474.057C238.941 472.039 239.103 469.962 238.941 467.956C238.941 467.816 238.941 467.677 238.941 467.538C238.941 466.842 237.653 467.677 237.491 467.805C237.179 468.014 236.915 468.287 236.716 468.604C236.516 468.922 236.385 469.278 236.331 469.649V469.603Z" fill="black"/>
<path d="M207.91 445.231C207.599 449.7 205.715 453.914 202.591 457.125C199.467 460.337 195.306 462.336 190.847 462.77C190.053 463.014 189.386 463.559 188.991 464.29C188.759 464.673 188.434 465.45 189.199 465.38C194.646 464.578 199.68 462.014 203.53 458.08C207.381 454.145 209.836 449.058 210.52 443.595C210.601 442.841 209.813 443.143 209.418 443.375C208.694 443.775 208.153 444.44 207.91 445.231Z" fill="black"/>
<path d="M275.922 445.022C276.53 450.538 278.966 455.692 282.843 459.663C286.719 463.634 291.813 466.194 297.312 466.935C298.008 467.028 298.774 466.239 299.157 465.775C299.331 465.566 300.108 464.418 299.435 464.325C294.062 463.609 289.084 461.11 285.298 457.23C281.513 453.35 279.138 448.312 278.555 442.923C278.485 442.238 277.302 443.039 277.105 443.19C276.618 443.584 275.852 444.35 275.945 445.046L275.922 445.022Z" fill="black"/>
<path d="M241.04 696.673C248.997 690.015 260.98 692.195 267.047 700.257C267.557 700.942 270.133 698.645 269.506 697.798C267.912 695.685 265.902 693.92 263.6 692.614C261.297 691.307 258.752 690.485 256.12 690.2C253.361 689.963 250.582 690.278 247.947 691.129C245.312 691.979 242.873 693.348 240.773 695.153C240.425 695.443 239.3 696.453 239.613 697.009C239.926 697.566 240.773 697.009 241.063 696.731L241.04 696.673Z" fill="black"/>
<path d="M205.777 647.21C207.406 646.377 209.186 645.88 211.012 645.749C212.837 645.617 214.67 645.855 216.402 646.447C218.134 647.039 219.729 647.973 221.092 649.195C222.455 650.416 223.558 651.899 224.337 653.555C224.789 654.541 227.353 652.28 226.958 651.444C225.389 647.99 222.534 645.285 219.001 643.904C217.023 643.182 214.914 642.888 212.815 643.042C210.715 643.196 208.672 643.794 206.821 644.797C206.058 645.16 205.443 645.775 205.081 646.537C204.872 647.094 205.081 647.558 205.753 647.21H205.777Z" fill="black"/>
<path d="M247.2 685.166C251.598 684.432 256.112 684.856 260.297 686.395C261.19 686.732 263.382 684.075 262.408 683.774C258.07 682.197 253.397 681.777 248.847 682.556C248.058 682.802 247.394 683.342 246.991 684.064C246.771 684.435 246.435 685.293 247.2 685.166Z" fill="black"/>
<path d="M248.997 678.762C252.959 678.452 256.945 678.864 260.76 679.98C261.699 680.258 263.822 677.66 262.882 677.358C258.888 676.227 254.722 675.834 250.586 676.198C249.856 676.256 249.09 677.126 248.73 677.706C248.475 678.112 248.197 678.866 248.951 678.808L248.997 678.762Z" fill="black"/>
<path d="M216.992 638C220.752 638.181 224.43 639.162 227.78 640.877C228.778 641.387 230.889 638.742 230.251 638.418C226.797 636.624 223.001 635.584 219.115 635.367C218.384 635.367 217.688 636.028 217.259 636.527C217.12 636.701 216.308 637.942 216.992 637.977V638Z" fill="black"/>
<path d="M220.067 631.771C223.784 632.307 227.379 633.484 230.693 635.251C231.679 635.773 233.801 633.14 233.152 632.792C229.736 630.965 226.025 629.752 222.19 629.208C221.482 629.103 220.728 629.904 220.334 630.368C220.16 630.588 219.394 631.725 220.067 631.818V631.771Z" fill="black"/>
<path d="M162.973 372.081C162.532 375.179 158.727 405.721 159.168 416.277C159.609 426.833 159.899 460.995 159.168 464.858C158.437 468.721 155.815 482.896 155.815 485.483C155.969 487.28 156.711 488.976 157.927 490.309C157.927 490.309 157.857 495.111 159.388 496.944C159.791 497.47 160.324 497.883 160.933 498.143C161.543 498.403 162.209 498.501 162.868 498.429C162.868 498.429 162.764 502.396 164.736 503.741C166.708 505.087 169.701 504.356 169.701 504.356C170.334 506.612 171.32 508.754 172.624 510.701C174.375 512.929 179.735 513.219 178.54 508.671C177.345 504.124 175.06 497.269 175.06 493.464C175.06 489.984 176.452 486.318 177.913 486.504C179.375 486.689 179.665 490.552 179.004 493.394C178.459 495.714 177.252 502.976 180.025 503.707C183.505 504.6 185.117 498.208 185.72 495.772C186.438 491.083 186.613 486.326 186.242 481.597C186.242 481.597 191.787 401.325 192.042 394.597C192.297 387.869 192.332 365.481 192.332 365.481L162.973 372.081Z" fill="white"/>
<path d="M161.662 372.905C160.502 380.839 159.736 388.832 158.982 396.801C158.518 401.847 158.089 406.905 157.892 411.974C157.753 415.674 157.892 419.375 158.031 423.075C158.271 433.26 158.352 443.452 158.275 453.653C158.275 457.237 158.275 460.845 158.008 464.429C157.741 468.013 156.743 471.679 156.129 475.252C155.641 478.013 155.166 480.762 154.783 483.534C154.458 485.912 154.342 487.919 155.641 490.088C155.908 490.541 156.279 490.923 156.546 491.364C156.685 491.619 156.546 491.283 156.616 491.817C156.625 493.045 156.757 494.269 157.01 495.471C157.544 497.86 159.33 500.111 162.033 499.739L161.546 499.484C161.414 501.248 161.898 503.002 162.915 504.449C164.283 506.05 166.963 506.108 168.865 505.667L168.367 505.412C169.283 508.567 170.687 513.126 174.538 513.532C175.475 513.607 176.414 513.423 177.253 512.999C178.092 512.576 178.798 511.929 179.294 511.131C180.616 509.135 179.677 506.966 179.085 504.878C177.612 499.763 175.083 493.568 177.032 488.267C177.032 488.186 177.519 487.246 177.507 487.235L177.159 487.513C176.73 487.71 176.672 487.826 177.009 487.861C177.125 488.209 177.554 488.545 177.693 489.021C178.029 490.332 178.088 491.699 177.867 493.035C177.612 495.041 177.078 496.979 176.951 499.009C176.858 500.667 176.684 503.045 177.89 504.403C179.097 505.76 181.173 504.959 182.368 503.997C185.314 501.677 186.706 497.315 187.217 493.684C187.799 489.456 187.912 485.177 187.553 480.924C187.544 480.235 187.571 479.546 187.634 478.859L190.07 443.259C191.033 429.177 192.007 415.083 192.901 401C193.655 389.4 193.62 377.8 193.643 366.2V364.472C193.643 364.228 193.307 364.193 193.144 364.228L167.462 370.028L163.785 370.852C162.997 371.101 162.334 371.64 161.929 372.36C161.731 372.696 161.372 373.636 162.149 373.462L187.831 367.662L191.509 366.838L191.01 366.595C191.01 377.441 191.184 388.333 190.523 399.156C189.745 411.719 188.864 424.258 188.017 436.809C187.12 449.956 186.219 463.126 185.314 476.319C185.036 478.822 184.932 481.341 185.001 483.859C185.371 487.998 185.188 492.169 184.456 496.259C184.129 497.993 183.579 499.678 182.82 501.271C182.519 501.885 182.252 502.431 181.834 502.489C181.438 502.541 181.036 502.454 180.697 502.243C180.359 502.031 180.104 501.708 179.978 501.329C179.178 499.531 179.526 497.141 179.781 495.273C180.223 493.238 180.498 491.17 180.605 489.091C180.605 487.733 180.303 484.799 178.285 485.274C176.266 485.75 174.805 488.557 174.259 490.494C172.751 495.772 174.828 501.352 176.289 506.421C176.637 507.639 177.067 508.869 177.299 510.11C177.368 510.458 177.206 511.212 177.299 511.444C177.391 511.676 178.203 511.003 177.832 510.875C177.601 510.882 177.371 510.917 177.148 510.98C176.272 510.961 175.42 510.696 174.689 510.213C173.959 509.731 173.379 509.052 173.018 508.254C172.15 506.697 171.473 505.042 171 503.324C170.986 503.273 170.961 503.226 170.928 503.186C170.894 503.146 170.852 503.113 170.805 503.09C170.758 503.067 170.707 503.054 170.654 503.053C170.602 503.051 170.55 503.06 170.501 503.08C168.726 503.498 166.325 503.382 165.188 501.758C164.421 500.438 164.066 498.919 164.167 497.396C164.167 497.141 163.831 497.129 163.68 497.153C160.931 497.582 159.783 494.508 159.458 492.385C159.319 491.469 159.458 490.483 159.237 489.566C159.133 488.975 158.808 488.719 158.449 488.197C157.872 487.316 157.479 486.328 157.292 485.292C157.104 484.256 157.127 483.193 157.358 482.165C157.66 479.845 158.043 477.641 158.425 475.379C159.11 471.424 160.107 467.445 160.56 463.466C160.825 460.345 160.933 457.213 160.885 454.082C161.012 443.967 160.885 433.84 160.722 423.713C160.641 420.082 160.421 416.428 160.455 412.797C160.455 408.041 160.885 403.285 161.291 398.553C162.079 389.458 162.996 380.329 164.272 371.281C164.376 370.527 163.541 370.852 163.17 371.072C162.45 371.466 161.91 372.123 161.662 372.905Z" fill="black"/>
<path d="M171.046 503.312C169.665 495.912 168.088 488.522 170.477 481.11C170.732 480.344 169.665 480.739 169.375 480.901C168.669 481.322 168.135 481.98 167.867 482.757C165.431 490.297 167.009 497.837 168.424 505.435C168.586 506.317 171.243 504.275 171.046 503.312Z" fill="black"/>
<path d="M164.329 495.552C163.47 490.517 163.354 485.112 165.199 480.309C165.431 479.694 165.141 479.381 164.514 479.625C163.742 479.974 163.123 480.592 162.774 481.365C160.985 486.588 160.617 492.193 161.707 497.605C161.823 498.289 162.925 497.524 163.157 497.338C163.609 496.967 164.445 496.178 164.317 495.494L164.329 495.552Z" fill="black"/>
<path d="M159.491 486.678C159.535 483.592 160.133 480.539 161.255 477.664C161.324 477.49 161.452 477.142 161.255 476.968C161.057 476.794 160.733 476.91 160.547 476.968C159.774 477.317 159.156 477.936 158.807 478.708C157.556 481.916 156.892 485.323 156.847 488.766C156.847 489.021 157.183 489.044 157.334 489.009C157.692 488.922 158.023 488.746 158.297 488.499C158.607 488.288 158.87 488.016 159.07 487.698C159.27 487.381 159.401 487.025 159.457 486.654L159.491 486.678Z" fill="black"/>
<path d="M178.713 504.6C178.175 504.102 177.517 503.752 176.804 503.583C176.091 503.415 175.346 503.433 174.642 503.637C173.667 503.95 172.77 504.467 172.01 505.153C171.25 505.838 170.645 506.678 170.234 507.616C170.152 507.79 170.036 508.149 170.234 508.323C170.431 508.497 170.756 508.323 170.93 508.323C171.695 507.964 172.311 507.349 172.67 506.583L172.739 506.421C172.809 506.282 172.739 506.316 172.739 506.502L172.832 506.351C172.925 506.212 172.89 506.258 172.739 506.479C172.739 506.479 173.041 506.119 172.797 506.374C172.554 506.63 172.855 506.374 172.89 506.293C172.658 506.502 172.612 506.548 172.751 506.432L172.89 506.328L172.762 506.421L172.925 506.328C172.623 506.467 172.925 506.398 172.925 506.328C172.925 506.328 173.342 506.142 173.041 506.27C173.242 506.195 173.453 506.148 173.667 506.131H173.853H174.224C174.687 506.182 175.138 506.311 175.558 506.514L175.384 506.432C175.715 506.6 176.019 506.815 176.289 507.07C176.474 507.244 176.811 507.128 176.996 507.07C177.374 506.889 177.716 506.642 178.006 506.34C178.308 506.05 178.556 505.708 178.736 505.33C178.806 505.133 178.945 504.808 178.736 504.623L178.713 504.6Z" fill="black"/>
<path d="M169.898 496.596C169.66 496.041 169.255 495.574 168.738 495.262C168.232 494.924 167.658 494.703 167.056 494.612C165.142 494.369 163.367 495.853 162.416 497.338C162.233 497.587 162.135 497.888 162.138 498.197C162.138 498.429 162.416 498.487 162.637 498.44C163.414 498.178 164.069 497.642 164.481 496.932C164.643 496.689 164.249 497.246 164.423 497.025L164.319 497.153C164.063 497.373 164.005 497.431 164.145 497.315H164.203L164.04 497.431H164.11C164.33 497.28 163.82 497.559 164.052 497.431L164.261 497.338C164.087 497.396 164.063 497.408 164.179 497.338H164.249L164.516 497.28C164.516 497.28 164.783 497.28 164.655 497.28H164.794C164.933 497.269 165.073 497.269 165.212 497.28C165.504 497.351 165.787 497.452 166.059 497.582L165.885 497.501C166.482 497.766 166.981 498.212 167.311 498.777L167.23 498.603C167.23 498.603 167.23 498.684 167.288 498.719C167.381 498.951 167.52 499.009 167.775 498.974C168.133 498.879 168.463 498.7 168.738 498.452C169.092 498.174 169.394 497.836 169.631 497.454C169.759 497.246 170.014 496.851 169.91 496.607L169.898 496.596Z" fill="black"/>
<path d="M180.105 496.48C180.1 496.446 180.1 496.41 180.105 496.376V496.503V496.411C180.105 496.306 180.105 496.411 180.013 496.573V496.515C180.105 496.376 180.013 496.434 179.885 496.689C180.047 496.48 179.595 497.002 179.746 496.851C179.897 496.701 179.34 497.199 179.607 496.979C179.873 496.759 179.259 497.211 179.467 497.083C179.676 496.956 179.154 497.223 179.398 497.083H179.502C179.583 497.083 179.502 497.083 179.375 497.083C179.491 497.083 179.641 497.014 179.757 497.002C179.873 496.991 179.885 497.002 179.757 497.002H179.978C180.28 497.031 180.574 497.114 180.848 497.246L180.674 497.153C181.329 497.483 181.856 498.021 182.17 498.684L182.089 498.51C182.259 498.879 182.376 499.269 182.437 499.67C182.449 499.871 182.449 500.072 182.437 500.273C182.443 500.374 182.443 500.475 182.437 500.575C182.437 500.389 182.437 500.726 182.437 500.761C182.437 500.981 182.437 501.19 182.681 501.248C182.99 501.257 183.294 501.159 183.539 500.969C183.916 500.725 184.253 500.424 184.537 500.076C184.784 499.803 184.96 499.472 185.047 499.113C185.169 498.184 185.041 497.239 184.676 496.376C184.321 495.549 183.66 494.893 182.831 494.543C182.391 494.38 181.919 494.318 181.451 494.363C180.983 494.407 180.531 494.556 180.129 494.798C179.473 495.127 178.891 495.587 178.42 496.15C177.949 496.712 177.599 497.366 177.391 498.069C177.373 498.117 177.365 498.168 177.368 498.219C177.37 498.27 177.384 498.32 177.406 498.366C177.429 498.412 177.461 498.452 177.501 498.485C177.54 498.518 177.585 498.542 177.635 498.557C177.944 498.564 178.247 498.466 178.493 498.278C179.199 497.857 179.733 497.2 180.001 496.422L180.105 496.48Z" fill="black"/>
<path d="M238.94 264.364L238.174 269.398C238.058 270.198 237.931 270.987 237.826 271.718C237.658 272.412 237.658 273.135 237.826 273.829C238.078 274.41 238.531 274.881 239.103 275.154C239.674 275.427 240.325 275.484 240.935 275.314C242.554 274.851 244.011 273.947 245.146 272.704C245.448 272.426 246.306 271.44 245.888 270.987C245.471 270.535 244.427 271.521 244.183 271.741C243.94 271.962 244.45 271.521 244.021 271.88L243.766 272.101C243.766 272.101 243.371 272.414 243.58 272.263L243.22 272.484C243.085 272.56 242.941 272.618 242.791 272.658C242.558 272.725 242.315 272.753 242.072 272.739C241.826 272.737 241.582 272.683 241.357 272.582C241.133 272.481 240.931 272.334 240.767 272.15C240.602 271.967 240.477 271.751 240.4 271.517C240.323 271.283 240.296 271.035 240.32 270.79C240.363 270.194 240.44 269.602 240.552 269.015L240.877 266.892L241.504 262.658C241.62 261.916 240.773 262.206 240.413 262.45C239.691 262.852 239.151 263.517 238.905 264.306L238.94 264.364Z" fill="black"/>
<path d="M226.702 301.994C219.742 304.488 195.58 310.636 183.852 317.167C172.124 323.698 168.876 332.34 166.951 345.007C165.025 357.674 160.42 381.129 160.42 381.129L191.543 383.449C191.543 383.449 188.469 416.869 187.889 425.708C187.332 434.362 186.358 439.35 193.271 439.35C200.185 439.35 228.071 438.77 231.308 438.19C234.544 437.61 238.418 430.708 238.418 430.708C238.418 430.708 239.95 439.35 245.529 439.535C251.109 439.721 301.209 439.733 301.209 439.733L301.592 315.056C301.592 315.056 277.963 307.945 274.912 307.179C271.861 306.414 259.6 302.18 259.6 302.18C259.6 302.18 255.378 316.401 243.847 316.401C229.962 316.401 226.702 301.994 226.702 301.994Z" fill="#80DEC6"/>
<path d="M227.224 300.776C220.264 303.259 213.142 305.057 206.147 307.319C197.888 309.998 189.188 312.736 181.787 317.469C174.611 322.048 169.437 329.178 167.31 337.421C166.287 341.628 165.49 345.888 164.921 350.181C164.201 354.484 163.436 358.776 162.659 363.068C161.499 369.394 160.304 375.704 159.074 381.999C159.074 382.173 159.074 382.475 159.318 382.487L186.52 384.47L190.452 384.76L190.197 384.261C188.944 397.949 187.61 411.637 186.636 425.349C186.473 427.611 186.288 429.873 186.183 432.135C185.944 434.089 186.154 436.073 186.798 437.935C188.248 441.159 192.227 440.672 195.173 440.637C203.827 440.545 212.481 440.343 221.134 440.034C224.237 440.105 227.34 439.926 230.414 439.501C232.827 439.013 234.799 436.844 236.284 435.023C237.448 433.61 238.485 432.096 239.381 430.499L237.061 431.763C237.815 435.858 240.205 440.73 244.891 440.869C248.626 440.974 252.385 440.951 256.12 440.962C267.813 441.024 279.505 441.051 291.198 441.043H300.2C300.779 440.944 301.313 440.667 301.728 440.252C302.144 439.836 302.42 439.302 302.52 438.723V426.3L302.613 396.499L302.717 360.447L302.81 329.405V319.127V315.926C302.868 315.37 302.868 314.811 302.81 314.255C302.798 314.186 302.798 314.116 302.81 314.047C302.802 313.981 302.773 313.921 302.727 313.874C302.68 313.828 302.62 313.799 302.555 313.791C291.651 310.509 280.607 307.585 269.785 304.047C266.691 303.027 263.598 301.983 260.505 300.915C259.577 300.602 258.347 302.342 258.185 303.05C258.092 303.363 258.254 302.876 258.185 303.201C258.115 303.525 257.918 303.943 257.767 304.361C257.307 305.51 256.768 306.626 256.155 307.701C254.646 310.65 252.179 312.998 249.16 314.36C241.666 317.271 233.755 312.585 230.124 306.066C229.204 304.477 228.513 302.767 228.071 300.985C227.862 300.08 225.217 302.145 225.438 303.108C226.049 305.774 227.207 308.285 228.838 310.482C230.47 312.678 232.539 314.512 234.915 315.868C236.948 316.95 239.19 317.585 241.489 317.729C243.788 317.873 246.091 317.523 248.243 316.703C252.139 314.928 255.406 312.017 257.616 308.351C259.034 306.196 260.143 303.854 260.911 301.391L258.591 303.525C271.235 307.864 284.111 311.425 296.871 315.265C297.929 315.652 299.01 315.978 300.107 316.239C300.274 316.271 300.438 316.322 300.594 316.39C300.142 316.169 300.397 316.019 300.351 316.227C300.287 316.933 300.287 317.644 300.351 318.35V329.857L300.223 371.095L300.084 416.161V432.401C300.084 435.046 299.887 437.772 300.084 440.417C300.084 440.533 300.084 440.649 300.084 440.765L302.404 438.445H279.076C268.81 438.445 258.544 438.445 248.278 438.306C245.958 438.306 244.021 437.853 242.478 435.87C241.124 434.047 240.226 431.927 239.857 429.687C239.671 428.655 237.676 430.661 237.537 430.951C236.377 433.074 234.497 436.647 231.864 436.995C229.231 437.343 226.238 437.355 223.454 437.459C215.11 437.761 206.77 437.958 198.433 438.051C195.777 438.051 191.566 438.828 189.861 436.264C188.875 434.791 188.944 432.691 188.979 430.986C188.979 428.666 189.257 426.404 189.408 424.107C189.942 416.498 190.649 408.9 191.322 401.302C191.879 395.115 192.44 388.905 193.004 382.672C193.004 382.487 193.004 382.197 192.761 382.173L165.57 380.167L161.638 379.877L161.881 380.364C162.856 375.445 163.784 370.527 164.7 365.597C166.22 357.477 167.449 349.299 168.934 341.167C170.419 333.036 173.168 325.705 179.896 320.728C186.624 315.752 195.301 313.061 203.201 310.462C210.868 307.933 218.733 305.973 226.331 303.247C227.118 302.919 227.743 302.293 228.071 301.507C228.094 300.823 227.909 300.544 227.224 300.776Z" fill="#80DEC6"/>
<path d="M302.845 314.278C302.839 314.205 302.839 314.131 302.845 314.058C302.835 313.998 302.806 313.943 302.762 313.901C302.718 313.859 302.661 313.833 302.601 313.826C297.304 312.225 291.995 310.64 286.674 309.07C281.118 307.411 275.492 305.926 269.97 304.117C266.815 303.096 263.672 302.029 260.528 300.95C259.67 300.648 258.51 302.296 258.312 302.957C258.31 302.984 258.31 303.011 258.312 303.038V303.154C258.189 303.525 258.049 303.912 257.895 304.314C257.45 305.426 256.93 306.508 256.34 307.55C254.798 310.591 252.259 313.011 249.148 314.406C241.608 317.364 233.651 312.643 230.008 306.066C229.1 304.496 228.42 302.805 227.99 301.043C227.985 301.008 227.972 300.974 227.953 300.945C227.934 300.915 227.909 300.889 227.879 300.87C227.85 300.85 227.817 300.837 227.782 300.83C227.747 300.824 227.711 300.826 227.677 300.834C227.53 300.822 227.383 300.846 227.247 300.904C220.311 303.328 213.2 305.08 206.24 307.4C197.992 310.068 189.339 312.794 181.973 317.48C174.777 322.025 169.586 329.144 167.461 337.386C166.448 341.552 165.654 345.769 165.083 350.018C164.376 354.356 163.598 358.683 162.763 363.01C161.603 369.336 160.408 375.646 159.179 381.941C159.179 382.115 159.179 382.394 159.399 382.405L186.682 384.424L190.255 384.69C189.014 398.204 187.703 411.707 186.775 425.29C186.624 427.471 186.439 429.652 186.346 431.844C186.079 433.876 186.273 435.942 186.914 437.888C188.306 441.101 192.169 440.672 195.034 440.637C203.742 440.56 212.454 440.363 221.169 440.046C224.295 440.103 227.421 439.92 230.519 439.5C232.955 439.013 234.938 436.774 236.423 434.93C236.806 434.443 237.177 433.932 237.583 433.422C238.616 437.064 240.947 440.753 245.019 440.869C248.766 440.974 252.524 440.95 256.271 440.962C267.956 441.016 279.645 441.043 291.337 441.043H300.2C300.757 440.954 301.272 440.691 301.67 440.29C302.068 439.89 302.329 439.374 302.416 438.816V426.392L302.508 396.673L302.613 360.597C302.613 350.235 302.644 339.876 302.706 329.521V319.266C302.706 318.188 302.706 317.097 302.706 316.018C302.816 315.445 302.863 314.862 302.845 314.278Z" fill="white"/>
<path d="M304.168 313.2C304.168 312.411 303.147 312.341 302.578 312.167L299.284 311.181L292.138 309.047C287.812 307.759 283.462 306.506 279.112 305.254C274.762 304.001 270.551 302.655 266.352 301.228L263.73 300.347C262.928 299.935 262.053 299.683 261.155 299.604C259.716 299.72 258.382 301.333 257.675 302.446C257.121 303.503 256.648 304.601 256.26 305.729C255.467 307.631 254.357 309.384 252.977 310.914C251.683 312.157 250.105 313.063 248.379 313.552C246.654 314.041 244.835 314.1 243.082 313.722C239.693 313.054 236.598 311.342 234.231 308.826C233.053 307.614 232.039 306.253 231.215 304.778C230.771 303.975 230.383 303.141 230.055 302.284C229.812 301.669 229.638 299.964 229.116 299.581C228.594 299.198 227.77 299.651 227.283 299.825C226.123 300.208 225.044 300.59 223.93 300.985C221.831 301.658 219.731 302.284 217.62 302.91C213.456 304.14 209.291 305.37 205.162 306.715C197.424 309.221 189.606 311.831 182.658 316.158C176.668 319.874 171.844 325.2 168.738 331.528C165.049 339.091 164.434 347.768 163.007 355.888C162.126 360.945 161.198 365.991 160.258 371.037C159.809 373.45 159.349 375.863 158.878 378.276C158.622 379.575 158.332 380.874 158.112 382.173C157.938 383.217 157.938 383.588 159.052 383.728C164.121 384.366 169.306 384.482 174.398 384.888L189.339 386.048L189.084 385.56C187.622 401.534 185.755 417.553 185.082 433.584C184.978 436.264 184.978 439.709 187.669 441.171C190.047 442.47 193.225 441.971 195.789 441.936C203.746 441.844 211.7 441.658 219.65 441.38C223.327 441.252 227.77 441.844 231.25 440.336C234.417 438.944 236.702 435.951 238.662 433.213L236.342 434.478C236.893 436.709 238.044 438.747 239.672 440.37C241.736 442.25 244.196 442.203 246.84 442.238C253.673 442.331 260.517 442.308 267.349 442.319H287.754H297.88C298.965 442.45 300.064 442.252 301.036 441.751C302.061 441.118 302.901 440.225 303.472 439.164C303.903 437.981 304.042 436.712 303.878 435.464V430.383C303.878 426.972 303.878 423.562 303.878 420.152L303.947 399.585C303.947 385.935 303.99 372.29 304.075 358.648L304.144 335.622V324.15C304.144 322.259 304.144 320.357 304.144 318.454C304.249 316.724 304.249 314.988 304.144 313.258C304.04 312.434 301.395 314.336 301.511 315.38C301.592 316.655 301.592 317.934 301.511 319.208C301.511 320.902 301.511 322.584 301.511 324.278V333.998C301.511 340.332 301.492 346.662 301.453 352.988C301.453 365.794 301.415 378.597 301.337 391.395C301.26 404.194 301.221 417.047 301.221 429.954C301.221 433.062 301.291 436.183 301.221 439.234C301.221 440.614 301.082 439.686 301.442 439.616C301.056 439.65 300.667 439.65 300.282 439.616H293.02H273.776L252.339 439.547C250.552 439.547 248.766 439.547 246.991 439.477C245.604 439.542 244.227 439.207 243.024 438.514C240.971 436.981 239.535 434.763 238.976 432.262C238.662 431.206 236.83 433.236 236.656 433.526C235.879 434.676 234.985 435.741 233.988 436.705C232.791 437.73 231.282 438.319 229.707 438.375C226.169 438.758 222.538 438.63 218.977 438.746C211.777 438.986 204.578 439.145 197.378 439.222C195.058 439.222 192.181 439.698 190.058 438.561C187.216 437.041 187.634 433.086 187.738 430.383C188.121 423.226 188.771 416.08 189.386 408.946C190.105 400.571 190.905 392.196 191.706 383.82C191.706 383.646 191.706 383.345 191.462 383.333L165.64 381.431L162.798 381.222C162.227 381.269 161.651 381.226 161.093 381.094C160.374 380.665 160.745 380.039 160.861 379.424C161.279 377.29 161.693 375.155 162.102 373.021C162.876 368.829 163.649 364.642 164.422 360.458C165.2 356.154 165.965 351.839 166.661 347.501C167.179 343.359 168.001 339.261 169.12 335.24C171.026 328.926 174.93 323.402 180.245 319.498C186.613 314.858 194.339 312.283 201.74 309.859C209.488 307.318 217.4 305.219 225.114 302.609C225.636 302.435 226.274 301.982 226.738 302.528C226.863 302.834 226.956 303.153 227.016 303.479C227.884 305.983 229.192 308.313 230.879 310.358C232.835 312.666 235.329 314.458 238.14 315.578C244.578 318.095 251.225 315.496 255.355 310.207C256.517 308.711 257.513 307.093 258.324 305.381C258.754 304.476 259.102 303.548 259.484 302.62C259.484 302.539 259.624 302.214 259.624 302.214L259.716 302.04C259.334 302.284 259.438 302.423 260.018 302.446C261.186 303.005 262.417 303.421 263.684 303.688L266.839 304.743C269.159 305.517 271.479 306.247 273.799 306.936C278.3 308.281 282.824 309.534 287.324 310.868L294.47 312.991L297.753 313.977C298.217 314.116 301.581 314.824 301.581 315.334C301.581 316.03 302.868 315.195 303.031 315.067C303.34 314.853 303.602 314.576 303.797 314.254C303.993 313.932 304.119 313.573 304.168 313.2Z" fill="black"/>
<path d="M260.238 307.47C260.229 314.213 258.031 320.771 253.974 326.157L256.085 325.229C255.493 321.042 251.677 318.814 248.255 317.04C247.269 316.518 245.158 319.162 245.796 319.499C249.067 321.204 252.883 323.315 253.452 327.352C253.591 328.303 255.401 326.633 255.551 326.424C260.234 320.391 262.802 312.984 262.859 305.347C262.859 304.651 261.572 305.486 261.409 305.625C261.098 305.835 260.834 306.107 260.634 306.425C260.435 306.742 260.303 307.098 260.249 307.47H260.238Z" fill="black"/>
<path d="M241.04 317.619C238.693 318.507 236.547 319.854 234.727 321.581C232.906 323.307 231.448 325.38 230.438 327.676L232.874 325.913C228.584 319.883 226.135 312.74 225.821 305.346C225.821 304.65 224.545 305.474 224.371 305.625C224.058 305.832 223.792 306.104 223.592 306.422C223.392 306.74 223.262 307.097 223.211 307.469C223.556 314.98 226.066 322.232 230.438 328.349C230.995 329.115 232.7 326.992 232.885 326.586C233.547 325.054 234.523 323.678 235.75 322.547C236.977 321.416 238.427 320.556 240.008 320.02C240.785 319.678 241.405 319.057 241.748 318.28C241.991 317.642 241.748 317.364 241.063 317.596L241.04 317.619Z" fill="black"/>
<path d="M241.863 322.839C241.666 334.811 240.97 346.793 240.506 358.799C239.787 377.174 239.076 395.552 238.372 413.934C238.198 418.505 237.943 423.063 237.873 427.634C237.873 428.33 239.161 427.483 239.323 427.367C239.635 427.155 239.899 426.881 240.098 426.561C240.298 426.242 240.429 425.884 240.483 425.511C240.68 413.54 241.376 401.557 241.84 389.551C242.559 371.177 243.271 352.798 243.975 334.416C244.149 329.857 244.404 325.287 244.473 320.717C244.473 320.021 243.186 320.867 243.023 320.983C242.713 321.196 242.45 321.471 242.25 321.79C242.05 322.11 241.919 322.467 241.863 322.839Z" fill="black"/>
<path d="M227.12 352.547L226.761 369.715L229.138 367.337C220.887 367.19 212.639 367.26 204.396 367.546L204.639 368.045L205.428 350.54C205.486 349.229 202.853 351.271 202.818 352.187L202.029 369.68C202.029 369.831 202.029 370.191 202.273 370.179C210.524 369.893 218.772 369.823 227.016 369.97C227.611 369.873 228.162 369.592 228.588 369.165C229.015 368.738 229.297 368.188 229.394 367.592L229.753 350.424C229.753 349.728 228.454 350.575 228.303 350.703C227.993 350.913 227.729 351.185 227.529 351.503C227.33 351.82 227.198 352.176 227.143 352.547H227.12Z" fill="black"/>
<path d="M280.41 352.547L280.051 369.715L282.429 367.337C274.177 367.19 265.929 367.26 257.686 367.546L257.929 368.045L258.718 350.54C258.776 349.229 256.143 351.271 256.108 352.187L255.319 369.68C255.319 369.831 255.319 370.191 255.563 370.179C263.814 369.893 272.062 369.823 280.306 369.97C280.891 369.862 281.428 369.576 281.844 369.15C282.259 368.724 282.532 368.18 282.626 367.592L282.985 350.424C282.985 349.728 281.686 350.575 281.535 350.703C281.225 350.913 280.961 351.185 280.761 351.503C280.562 351.82 280.43 352.176 280.375 352.547H280.41Z" fill="black"/>
<path d="M417.848 197.757C396.133 186.284 346.229 162.47 312.218 146.044C303.727 141.938 296.605 151.763 296.616 167.956C296.802 365.76 296.976 504.739 297.161 702.345C297.161 718.249 304.121 727.946 312.439 724.153C349.825 707.148 395.402 685.166 414.449 675.92C420.098 673.171 424.576 660.945 424.657 648.312C425.585 494.241 426.745 378.496 427.673 225.55C427.801 213.022 423.427 200.68 417.848 197.757Z" fill="white"/>
<path d="M419.077 196.527C386.747 179.475 353.49 164.117 320.581 148.248C317.287 146.659 313.435 143.921 309.665 143.793C307.049 143.846 304.554 144.91 302.705 146.763C296.824 152.134 295.444 160.973 295.351 168.513C295.061 193.546 295.351 218.59 295.421 243.623L295.56 381.64C295.606 426.045 295.657 470.449 295.711 514.854L295.85 655.005V693.111C295.85 702.507 294.69 713.748 300.49 721.903C301.259 723.125 302.296 724.156 303.521 724.92C304.747 725.683 306.13 726.159 307.566 726.311C311.208 726.496 314.781 724.107 318.006 722.645C328.059 718.005 338.113 713.338 348.166 708.644C365.999 700.269 383.786 691.793 401.526 683.217L410.806 678.739C413.52 677.428 416.037 676.257 418.091 673.971C424.308 667.011 425.967 656.247 426.106 647.291C426.837 598.873 426.744 550.431 427.104 502.001C427.452 456.328 427.804 410.651 428.159 364.971C428.33 341.423 428.5 317.875 428.67 294.327L428.913 257.798C428.913 251.612 428.952 245.456 429.029 239.331C429.029 233.044 429.435 226.652 429.029 220.377C428.496 212.802 426.605 200.819 419.262 196.573C418.299 196.017 416.13 198.65 416.791 199.033C420.271 201.063 422.255 205.088 423.601 208.753C425.4 213.837 426.383 219.173 426.512 224.564C426.895 236.501 426.408 248.53 426.327 260.466C426.18 283.759 426.021 307.052 425.851 330.345C425.526 374.695 425.19 419.042 424.842 463.385C424.486 508.695 424.154 554.004 423.844 599.314C423.767 611.424 423.69 623.535 423.612 635.645C423.543 647.129 424.505 659.529 418.972 670.062C418.117 672.032 416.696 673.703 414.889 674.865C413.601 675.595 412.198 676.175 410.864 676.813L401.677 681.256C393.789 685.061 385.897 688.85 378.001 692.624C359.151 701.614 340.266 710.535 321.3 719.304C317.762 720.928 313.099 724.269 309.039 723.689C305.953 723.248 303.657 720.754 302.195 718.167C296.94 708.887 298.611 696.673 298.599 686.511L298.46 547.543C298.413 504.546 298.371 461.548 298.332 418.551C298.278 375.059 298.232 331.578 298.193 288.109L298.123 218.776V182.468C298.123 176.111 297.775 169.708 298.239 163.328C298.564 158.92 299.399 154.152 301.719 150.324C303.564 147.285 306.487 145.823 309.99 146.937C313.981 148.201 317.855 150.626 321.59 152.447L347.18 164.72C364.301 172.979 381.435 181.25 398.44 189.729C404.53 192.757 410.597 195.819 416.606 199.009C417.603 199.52 419.68 196.863 419.077 196.527Z" fill="black"/>
<path d="M422.893 392.764L423.16 359.484C423.16 358.788 421.873 359.634 421.71 359.75C421.397 359.96 421.131 360.234 420.931 360.554C420.731 360.874 420.601 361.233 420.55 361.607C420.465 372.696 420.38 383.79 420.295 394.887C420.295 395.583 421.583 394.748 421.745 394.62C422.056 394.408 422.32 394.133 422.519 393.814C422.719 393.494 422.85 393.137 422.905 392.764H422.893Z" fill="black"/>
<path d="M300.688 601.855C300.688 618.721 300.688 635.588 300.688 652.454C300.688 661.324 300.688 670.198 300.688 679.076C300.688 685.792 300.838 692.764 304.168 698.796C306.221 702.577 309.875 705.512 314.352 704.167C317.516 703.038 320.615 701.733 323.632 700.257C327.066 698.796 330.492 697.319 333.91 695.826C347.637 689.887 361.325 683.855 374.974 677.73C385.599 672.99 396.206 668.214 406.793 663.404C408.947 662.631 410.952 661.493 412.72 660.04C414.697 658.082 416.273 655.758 417.36 653.196C420.423 646.387 421.142 638.963 421.177 631.585C421.385 597.675 421.614 563.768 421.861 529.865C422.078 498.313 422.313 466.769 422.569 435.232C422.569 431.366 422.6 427.518 422.661 423.69C422.661 422.994 421.374 423.83 421.211 423.957C420.9 424.166 420.635 424.438 420.436 424.756C420.236 425.074 420.105 425.43 420.051 425.802C419.804 456.526 419.568 487.247 419.344 517.964C419.104 550.444 418.884 582.924 418.683 615.404C418.683 619.773 418.656 624.142 418.601 628.512C418.601 632.664 418.706 636.84 418.277 640.97C417.946 644.696 417.167 648.369 415.957 651.909C415.063 654.379 413.915 657.314 411.873 659.089C410.574 660.249 408.567 660.794 407.001 661.502L400.413 664.495L384.532 671.64C371.533 677.464 358.51 683.236 345.463 688.959C338.735 691.905 331.992 694.829 325.233 697.729L320.407 699.794C318.901 700.529 317.352 701.172 315.767 701.719C314.849 701.973 313.886 702.021 312.948 701.858C312.009 701.696 311.118 701.327 310.339 700.779C305.873 697.694 304.365 691.36 303.738 686.314C303.379 682.366 303.262 678.399 303.39 674.436C303.39 670.167 303.39 665.914 303.39 661.676C303.39 644.972 303.39 628.276 303.39 611.587C303.39 607.678 303.39 603.757 303.39 599.848C303.39 599.152 302.103 599.987 301.94 600.115C301.629 600.324 301.365 600.597 301.165 600.914C300.965 601.232 300.834 601.588 300.78 601.959L300.688 601.855Z" fill="black"/>
<path d="M300.606 509.704C300.606 529.331 300.606 548.954 300.606 568.574C300.606 569.27 301.893 568.423 302.056 568.295C302.369 568.088 302.634 567.816 302.834 567.498C303.034 567.18 303.164 566.823 303.216 566.451C303.216 546.839 303.197 527.22 303.158 507.593C303.158 506.897 301.87 507.732 301.708 507.859C301.396 508.069 301.132 508.341 300.932 508.658C300.732 508.976 300.601 509.332 300.548 509.704H300.606Z" fill="black"/>
<path d="M423.543 304.001C423.682 283.338 423.813 262.678 423.937 242.022C423.995 232.348 424.424 222.523 420.457 213.44C419.297 210.714 417.662 207.698 415.028 206.12C411.618 204.079 407.836 202.501 404.264 200.761L397.64 197.536L394.473 196.028C393.572 195.459 392.585 195.04 391.55 194.787C388.383 194.485 386.481 198.905 386.075 201.364C385.75 203.348 385.97 205.355 385.553 207.327C385.466 207.778 385.338 208.221 385.17 208.649C385.066 208.916 384.694 209.426 384.915 209.334C384.365 209.259 383.827 209.115 383.314 208.904C379.857 207.791 376.404 206.631 372.955 205.424C368.617 203.939 364.302 202.397 360.021 200.784C357.938 200.18 355.928 199.352 354.024 198.314C352.65 197.234 351.605 195.792 351.008 194.149C350.138 192.071 349.59 189.873 349.384 187.63C349.164 185.437 349.291 183.257 348.874 181.076C348.189 177.596 346.751 173.756 343.329 172.167L329.061 165.59L322.17 162.4C320.187 161.483 318.215 160.405 316.173 159.662C310.628 157.632 305.849 162.551 303.541 167.063C299.516 174.951 300.293 184.243 300.293 192.804V224.506C300.293 244.683 300.312 264.851 300.351 285.012C300.351 304.291 300.351 323.566 300.351 342.838C300.351 361.398 300.37 379.958 300.409 398.518C300.409 416.946 300.428 435.371 300.467 453.792C300.467 458.258 300.467 462.724 300.467 467.19C300.467 467.886 301.754 467.039 301.917 466.911C302.229 466.703 302.494 466.431 302.694 466.113C302.894 465.795 303.024 465.439 303.077 465.067C303.077 447.079 303.057 429.084 303.019 411.081C302.98 393.077 302.98 375.04 303.019 356.967C303.019 338.36 303.019 319.754 303.019 301.147C303.019 281.706 302.999 262.264 302.961 242.823C302.961 222.302 302.822 201.782 302.903 181.261C302.832 176.975 303.487 172.708 304.84 168.641C305.664 166.321 306.87 163.548 309.19 162.4C311.928 161.043 314.63 162.551 317.124 163.711L330.36 169.801L337.32 173.037C339.222 173.907 341.624 174.592 343.12 176.146C345.892 179.116 346.6 183.744 346.6 187.63C346.6 191.516 347.54 195.959 349.941 199.23C350.942 200.488 352.301 201.414 353.838 201.886C355.888 202.706 357.952 203.503 360.033 204.276C364.116 205.807 368.234 207.257 372.364 208.661C375.532 209.889 378.761 210.954 382.038 211.851C385.008 212.535 387.2 208.951 387.896 206.573C388.296 204.736 388.494 202.861 388.488 200.981C388.543 199.961 388.742 198.954 389.079 197.989C389.184 197.7 389.32 197.424 389.485 197.165C389.16 197.641 389.184 197.409 389.752 197.525C390.836 197.878 391.876 198.357 392.849 198.951L396.48 200.68C398.607 201.693 400.726 202.714 402.837 203.742L408.753 206.654C410.281 207.302 411.752 208.078 413.149 208.974C415.864 210.957 417.441 214.368 418.566 217.43C420.036 221.604 420.922 225.96 421.2 230.376C421.559 235.434 421.304 240.572 421.269 245.63C421.269 250.873 421.238 256.112 421.176 261.348C421.107 271.463 421.041 281.578 420.979 291.693L420.875 306.112C420.875 306.808 422.162 305.973 422.325 305.845C422.635 305.634 422.897 305.362 423.097 305.044C423.297 304.727 423.429 304.372 423.485 304.001H423.543Z" fill="black"/>
<path d="M394.485 335.681C393.244 301.229 380.809 272.913 363.919 264.596C345.615 255.595 329.723 285.534 329.723 323.861C329.723 362.187 342.842 395.038 363.919 395.607C381.215 396.071 395.796 372.082 394.485 335.681Z" fill="black"/>
<path d="M395.807 334.625C395.447 320.955 392.969 307.424 388.464 294.512C384.984 284.792 379.857 274.955 371.992 268.03C369.047 265.218 365.465 263.16 361.552 262.032C358.111 261.287 354.516 261.793 351.414 263.459C343.201 267.716 338.201 276.799 335.023 285.116C330.325 297.412 328.539 310.764 328.446 323.872C328.189 337.379 329.916 350.851 333.573 363.857C336.403 373.474 340.684 383.577 348.212 390.537C353.873 395.734 361.668 398.402 369.197 396.059C377.317 393.507 383.407 386.419 387.327 379.123C392.93 368.683 395.227 356.688 395.784 344.972C395.946 341.492 395.958 338.082 395.842 334.637C395.842 333.941 394.566 334.764 394.392 334.904C394.079 335.111 393.814 335.383 393.614 335.701C393.414 336.019 393.284 336.376 393.232 336.748C393.649 348.916 392.501 361.491 388.197 372.963C385.413 380.399 381.029 388.438 373.709 392.242C367.167 395.641 359.453 394.562 353.537 390.363C345.927 385.016 341.287 376.13 338.155 367.604C334.098 356.063 331.779 343.983 331.276 331.76C330.393 318.551 331.567 305.285 334.756 292.436C336.068 287.257 337.947 282.239 340.359 277.472C342.148 273.717 344.672 270.361 347.783 267.6C350.216 265.496 353.313 264.317 356.529 264.271C360.276 264.271 363.71 266.058 366.703 268.18C374.463 273.679 379.776 282.24 383.546 290.8C388.364 302.17 391.386 314.219 392.501 326.517C392.849 329.904 393.085 333.299 393.209 336.702C393.209 337.398 394.485 336.574 394.659 336.435C394.965 336.229 395.225 335.962 395.423 335.65C395.62 335.339 395.751 334.99 395.807 334.625Z" fill="black"/>
<path d="M376.087 307.04C375.954 302.173 375.049 297.357 373.407 292.772C372.267 289.282 370.274 286.132 367.607 283.608C365.461 281.776 362.886 280.836 360.23 282.182C357.132 283.748 355.079 287.007 353.838 290.128C350.428 298.654 350.648 309.221 353.293 317.968C354.952 323.396 359.313 331.505 366.308 329.057C369.695 327.897 372.178 324.73 373.674 321.587C375.629 317.016 376.468 312.046 376.122 307.087C376.122 306.391 374.846 307.226 374.672 307.354C374.358 307.563 374.092 307.837 373.892 308.157C373.692 308.477 373.563 308.836 373.512 309.21C373.746 313.201 373.219 317.201 371.957 320.995C371.18 323.118 369.997 325.635 367.723 326.517C361.854 328.709 357.747 321.25 356.251 316.842C353.595 308.868 353.257 300.304 355.276 292.146C355.903 289.756 356.912 286.091 359.174 284.664C361.436 283.237 363.814 284.884 365.392 286.311C371.505 291.775 373.187 301.391 373.512 309.21C373.512 309.906 374.776 309.082 374.962 308.943C375.276 308.726 375.539 308.444 375.733 308.115C375.928 307.787 376.048 307.42 376.087 307.04Z" fill="white"/>
<path d="M383.279 381.304C383.279 374.437 383.174 367.627 381.574 360.899C379.973 354.171 377.177 347.153 371.876 342.618C367.758 339.138 362.457 338.036 357.666 340.82C351.97 344.126 348.56 350.61 346.542 356.642C343.874 364.635 343.456 372.882 343.456 381.257C343.456 381.953 344.732 381.118 344.894 380.991C345.207 380.78 345.472 380.506 345.672 380.186C345.871 379.866 346.002 379.508 346.054 379.135C345.862 372.421 346.489 365.709 347.922 359.148C349.291 353.638 351.599 346.666 356.552 343.314C360.763 340.449 365.925 342.073 369.498 345.181C374.44 349.462 377.131 355.969 378.708 362.164C380.495 369.124 380.634 376.258 380.634 383.427C380.634 384.123 381.922 383.287 382.084 383.16C382.398 382.95 382.663 382.676 382.863 382.356C383.063 382.036 383.193 381.678 383.244 381.304H383.279Z" fill="white"/>
<path d="M397.639 458.269L328.654 462.086C324.374 462.329 320.801 455.45 320.708 446.634V445.707C320.604 436.635 324.188 429.2 328.619 429.234L397.616 429.919C400.748 429.919 403.347 435.394 403.671 442.517C403.985 450.753 401.212 458.06 397.639 458.269Z" fill="black"/>
<path d="M398.405 456.958L365.368 458.791L341.96 460.09C337.853 460.311 333.7 460.728 329.594 460.775C325.488 460.821 323.69 455.88 322.854 452.724C321.312 446.924 321.37 439.64 323.84 434.037C324.571 432.401 325.499 430.673 327.471 430.557C327.738 430.557 328.016 430.557 328.283 430.557L333.84 430.615L379.08 431.067L395.064 431.218C396.793 431.218 398.022 431.38 399.229 432.923C401.096 435.301 401.769 438.607 402.094 441.542C402.508 445.057 402.284 448.617 401.433 452.052C401.027 453.606 400.354 456.761 398.359 456.958C397.466 457.051 395.436 459.696 396.723 459.568C399.043 459.348 400.934 457.248 402.059 455.346C403.614 452.562 404.533 449.468 404.75 446.286C405.135 442.754 404.899 439.182 404.054 435.73C403.451 433.41 402.442 430.487 400.284 429.165C399.083 428.619 397.754 428.418 396.445 428.585L389.114 428.515L340.8 428.04C337.053 428.04 333.271 427.831 329.513 427.924C324.246 428.063 321.277 434.594 320.233 438.92C318.713 445.022 318.852 452.562 321.544 458.316C322.878 461.146 324.919 463.547 328.237 463.373L333.167 463.095L354.87 461.935L396.062 459.615H396.816C397.64 459.522 399.728 456.889 398.405 456.958Z" fill="black"/>
<path d="M397.64 507.326L328.608 517.36C324.328 517.986 320.755 511.432 320.662 502.628V501.688C320.558 492.629 324.142 484.868 328.574 484.52L397.57 478.999C400.702 478.744 403.301 483.952 403.626 491.051C403.985 499.241 401.213 506.804 397.64 507.326Z" fill="black"/>
<path d="M398.405 506.027L365.496 510.806L342.145 514.193C337.993 514.796 333.828 515.515 329.652 516.014C325.882 516.455 323.852 512.012 323.005 509.054C321.214 502.796 321.494 496.127 323.806 490.042C324.571 488.186 325.546 486.098 327.738 485.831C327.982 485.831 328.237 485.831 328.481 485.773L333.875 485.344L379.08 481.713L395.25 480.414C396.921 480.286 398.081 480.24 399.333 481.725C401.224 483.975 401.885 487.246 402.199 490.077C402.607 493.61 402.383 497.189 401.537 500.644C401.143 502.199 400.377 505.655 398.463 506.027C397.676 506.276 397.013 506.815 396.607 507.535C396.399 507.883 396.051 508.776 396.828 508.695C399.148 508.254 401.027 506.131 402.164 504.147C403.704 501.278 404.622 498.116 404.855 494.867C405.245 491.354 405.01 487.8 404.159 484.369C403.567 482.154 402.547 479.3 400.389 478.129C399.229 477.479 397.698 477.792 396.387 477.897L389.079 478.477L340.707 482.339C336.96 482.641 333.167 482.78 329.443 483.244C324.015 483.917 321.173 490.715 320.163 495.308C318.806 501.305 318.876 508.718 321.671 514.309C323.029 517.035 325.151 519.077 328.318 518.636L333.445 517.893L355.103 514.738L396.051 508.799L396.851 508.683C397.643 508.436 398.309 507.891 398.707 507.163C398.8 506.746 399.171 505.911 398.405 506.027Z" fill="black"/>
<path d="M327.878 503.022L336.16 502.28C336.518 502.185 336.848 502.006 337.123 501.758C337.474 501.477 337.775 501.14 338.016 500.76C338.26 500.354 338.561 499.6 337.807 499.67L329.525 500.436C329.17 500.523 328.843 500.698 328.574 500.946C328.217 501.224 327.911 501.561 327.669 501.944C327.437 502.35 327.124 503.104 327.889 503.046L327.878 503.022Z" fill="white"/>
<path d="M332.042 507.57L336.276 493.511C336.508 492.745 335.464 493.105 335.116 493.29C334.41 493.711 333.876 494.369 333.608 495.146L329.432 509.24C329.212 510.006 330.244 509.635 330.534 509.449C331.238 509.031 331.772 508.378 332.042 507.605V507.57Z" fill="white"/>
<path d="M336.16 507.013L332.25 493.487C331.972 492.559 329.339 494.647 329.617 495.61L333.538 509.124C333.805 510.064 336.438 507.964 336.16 507.013Z" fill="white"/>
<path d="M340.046 501.7L347.992 500.969C348.349 500.878 348.679 500.703 348.954 500.459C349.308 500.181 349.61 499.843 349.848 499.461C350.091 499.055 350.393 498.301 349.639 498.359L341.681 499.09C341.327 499.186 341.001 499.365 340.73 499.612C340.373 499.89 340.067 500.227 339.825 500.61C339.593 501.016 339.28 501.77 340.046 501.7Z" fill="white"/>
<path d="M344.129 506.12L348.2 492.351C348.421 491.585 347.388 491.945 347.098 492.13C346.392 492.551 345.858 493.209 345.59 493.986L341.519 507.755C341.298 508.521 342.331 508.161 342.621 507.976C343.327 507.555 343.861 506.897 344.129 506.12Z" fill="white"/>
<path d="M348.051 505.586L344.281 492.316C344.014 491.388 341.381 493.476 341.659 494.439L345.441 507.697C345.708 508.625 348.341 506.537 348.062 505.586H348.051Z" fill="white"/>
<path d="M352.4 500.366L360.033 499.67C360.387 499.574 360.713 499.395 360.984 499.148C361.342 498.87 361.648 498.533 361.889 498.151C362.133 497.745 362.434 496.991 361.669 497.06L354.036 497.756C353.682 497.853 353.356 498.031 353.085 498.278C352.728 498.556 352.422 498.893 352.18 499.276C351.948 499.682 351.646 500.436 352.4 500.366Z" fill="white"/>
<path d="M356.39 504.658L360.288 491.167C360.508 490.402 359.487 490.773 359.186 490.958C358.479 491.38 357.945 492.037 357.678 492.814L353.78 506.294C353.56 507.059 354.58 506.7 354.87 506.514C355.581 506.095 356.119 505.437 356.39 504.658Z" fill="white"/>
<path d="M360.149 504.136L356.542 491.133C356.287 490.205 353.642 492.293 353.909 493.255L357.528 506.247C357.783 507.175 360.416 505.087 360.149 504.136Z" fill="white"/>
<path d="M363.907 499.125L371.25 498.452C371.604 498.356 371.93 498.177 372.201 497.93C372.558 497.653 372.865 497.315 373.106 496.933C373.338 496.527 373.651 495.773 372.886 495.842L365.543 496.515C365.188 496.602 364.861 496.778 364.592 497.026C364.235 497.303 363.929 497.641 363.687 498.023C363.455 498.429 363.153 499.183 363.907 499.125Z" fill="white"/>
<path d="M367.84 503.29L371.599 490.077C371.808 489.312 370.798 489.671 370.497 489.857C369.791 490.278 369.256 490.935 368.989 491.713L365.23 504.925C365.022 505.691 366.031 505.331 366.332 505.146C367.038 504.724 367.573 504.067 367.84 503.29Z" fill="white"/>
<path d="M371.471 502.778L367.991 490.018C367.747 489.09 365.103 491.178 365.369 492.141L368.849 504.901C369.105 505.829 371.738 503.741 371.483 502.79L371.471 502.778Z" fill="white"/>
<path d="M374.996 497.919L382.06 497.281C382.414 497.184 382.74 497.005 383.012 496.759C383.369 496.481 383.675 496.143 383.916 495.761C384.16 495.355 384.462 494.601 383.696 494.671L376.632 495.309C376.278 495.405 375.952 495.584 375.68 495.831C375.324 496.105 375.021 496.443 374.787 496.828C374.543 497.234 374.242 497.988 374.996 497.919Z" fill="white"/>
<path d="M378.871 501.967L382.478 489.01C382.687 488.256 381.678 488.615 381.376 488.801C380.666 489.217 380.13 489.877 379.868 490.657L376.261 503.614C376.04 504.38 377.049 504.009 377.351 503.823C378.062 503.404 378.6 502.746 378.871 501.967Z" fill="white"/>
<path d="M382.352 501.468L379.011 488.952C378.767 488.035 376.122 490.112 376.378 491.075L379.718 503.591C379.974 504.519 382.607 502.431 382.352 501.468Z" fill="white"/>
<path d="M327.878 447.83C340.916 447.029 354.036 447.006 367.097 446.588C369.417 446.507 371.737 446.461 374.115 446.31C375.009 446.252 377.062 443.619 375.751 443.7C362.829 444.524 349.825 444.5 336.891 444.93C334.432 445.011 331.973 445.069 329.513 445.22C328.62 445.278 326.567 447.911 327.878 447.83Z" fill="white"/>
<path d="M296.534 702.345C296.36 504.739 296.175 365.76 296.001 167.956C296.001 153.92 301.325 144.687 308.273 145.128L308.007 145C291.894 145 286.697 151.763 286.709 167.956C286.895 365.76 287.069 504.739 287.254 702.345C287.254 718.249 291.743 725 308.645 725H308.737C301.835 725.406 296.546 716.242 296.534 702.345Z" fill="black"/>
<path d="M297.88 701.289L297.776 585.046C297.776 549.248 297.737 513.447 297.66 477.641L297.555 372.801C297.509 336.624 297.47 300.447 297.439 264.271C297.439 245.077 297.439 225.879 297.439 206.677C297.439 196.678 297.439 186.686 297.439 176.703C297.439 168.142 296.453 158.386 300.838 150.614C302.265 148.097 304.318 146.357 307.334 146.45C308.1 146.45 310.571 144.362 309.457 143.817C308.343 143.271 305.745 143.817 304.434 143.898C302.723 144.054 301.03 144.368 299.377 144.837C296.792 145.556 294.394 146.826 292.347 148.561C287.881 152.435 286.187 158.131 285.712 163.838C284.807 174.603 285.526 185.658 285.538 196.457V231.965L285.677 363.428C285.677 405.188 285.72 446.948 285.805 488.708L285.944 618.384L286.013 688.483C286.013 694.213 285.874 699.979 286.013 705.709C286.028 709.004 286.508 712.281 287.44 715.441C288.229 717.923 289.662 720.15 291.591 721.899C293.521 723.647 295.879 724.853 298.425 725.394C300.152 725.798 301.91 726.054 303.68 726.16C304.979 726.264 306.998 726.717 308.216 726.16C308.564 726.009 310.814 723.608 309.805 723.643C299.585 723.956 297.938 708.493 297.857 701.289C297.857 700.547 295.224 702.345 295.235 703.401C295.305 710.801 297.173 726.601 307.694 726.264L309.283 723.747C308.193 724.246 305.246 723.526 304.028 723.376C302.457 723.191 300.905 722.873 299.388 722.425C296.721 721.676 294.338 720.15 292.544 718.04C288.333 712.866 288.577 705.28 288.565 698.969C288.565 676.419 288.546 653.872 288.507 631.33L288.368 505.505C288.368 465.577 288.326 425.65 288.241 385.723C288.241 344.357 288.198 302.984 288.113 261.603C288.113 239.555 288.094 217.515 288.055 195.483C288.055 189.613 288.055 183.744 288.055 177.874C288.055 172.677 287.788 167.434 288.229 162.226C288.751 156.031 290.456 149.965 296.836 147.726C298.298 147.232 299.806 146.886 301.337 146.693C302.926 146.473 305.803 145.765 307.241 146.473L309.364 143.84C304.504 143.689 300.757 147.32 298.518 151.345C294.69 158.154 294.702 166.077 294.713 173.663C294.713 194.195 294.733 214.727 294.771 235.259C294.771 273.47 294.81 311.684 294.887 349.902C294.887 386.102 294.926 422.305 295.003 458.513C295.003 495.347 295.042 532.181 295.119 569.015C295.119 608.648 295.158 648.281 295.235 687.915C295.235 693.088 295.235 698.258 295.235 703.424C295.224 704.12 297.88 702.345 297.88 701.289Z" fill="black"/>
<path d="M145.526 267.96C145.526 280.476 138.566 287.158 126.328 287.158C138.473 287.158 145.526 293.584 145.526 306.344C145.526 293.84 151.848 287.158 164.713 287.158C151.848 287.193 145.526 280.256 145.526 267.96Z" fill="white"/>
<path d="M144.215 269.05C144.215 273.482 143.345 278.562 140.051 281.81C136.757 285.058 131.792 285.859 127.395 285.882C127.023 285.938 126.666 286.07 126.347 286.269C126.028 286.469 125.753 286.732 125.539 287.042C125.412 287.204 124.588 288.492 125.273 288.492C130.295 288.492 135.539 289.594 139.251 293.225C142.963 296.856 144.181 302.296 144.215 307.435C144.215 308.131 145.491 307.296 145.665 307.156C145.978 306.949 146.243 306.677 146.443 306.359C146.643 306.041 146.773 305.684 146.825 305.312C146.825 300.939 147.556 295.835 150.758 292.552C153.959 289.269 159.226 288.504 163.645 288.48C164.019 288.429 164.377 288.298 164.697 288.099C165.017 287.899 165.291 287.634 165.501 287.32C165.629 287.158 166.453 285.882 165.768 285.87C160.629 285.87 155.224 284.768 151.512 280.964C147.8 277.159 146.872 271.962 146.872 266.939C146.872 266.243 145.584 267.078 145.422 267.206C145.108 267.413 144.842 267.685 144.642 268.003C144.442 268.321 144.312 268.678 144.262 269.05C144.262 274.189 145.422 279.63 149.111 283.423C152.799 287.216 158.46 288.469 163.703 288.504L165.826 285.87C159.957 285.87 154.099 287.32 149.865 291.612C145.631 295.904 144.239 301.6 144.215 307.4L146.837 305.277C146.837 300.034 145.584 294.512 141.71 290.719C137.835 286.926 132.523 285.859 127.395 285.824L125.273 288.457C131.073 288.457 136.78 286.903 141.002 282.657C145.225 278.412 146.802 272.681 146.802 266.835C146.802 266.139 145.515 266.974 145.352 267.102C145.032 267.324 144.765 267.614 144.569 267.951C144.372 268.287 144.252 268.663 144.215 269.05Z" fill="black"/>
<path d="M161.511 336.284C164.967 336.4 168.416 336.4 171.858 336.284C172.231 336.231 172.589 336.1 172.909 335.9C173.228 335.701 173.502 335.436 173.714 335.124C173.83 334.973 174.665 333.651 173.981 333.674C170.501 333.79 167.079 333.802 163.633 333.674C163.261 333.725 162.904 333.854 162.586 334.054C162.268 334.255 161.996 334.52 161.789 334.834C161.65 335.008 160.826 336.261 161.511 336.284Z" fill="black"/>
<path d="M153.936 333.651C150.34 333.651 146.744 333.651 143.159 333.57C142.786 333.622 142.427 333.752 142.107 333.952C141.787 334.152 141.513 334.417 141.303 334.73C141.175 334.892 140.352 336.168 141.036 336.18C144.632 336.18 148.217 336.261 151.813 336.261C152.184 336.208 152.541 336.078 152.859 335.878C153.177 335.678 153.449 335.413 153.657 335.101C153.785 334.939 154.62 333.651 153.936 333.651Z" fill="black"/>
<path d="M159.062 330.333C159.236 326.853 159.283 323.373 159.167 319.951C159.167 319.255 157.891 320.079 157.717 320.218C157.404 320.429 157.139 320.703 156.94 321.023C156.74 321.342 156.609 321.701 156.557 322.074C156.673 325.38 156.638 328.674 156.476 331.98C156.476 332.7 157.16 332.468 157.566 332.189C157.972 331.911 159.051 331.029 159.086 330.333H159.062Z" fill="black"/>
<path d="M156.835 339.962C156.617 341.619 156.52 343.29 156.545 344.961C156.603 346.603 156.777 348.239 157.067 349.856C157.183 350.529 158.296 349.775 158.517 349.59C158.969 349.207 159.804 348.43 159.677 347.734C159.395 346.169 159.217 344.588 159.143 343.001C159.122 341.449 159.215 339.898 159.422 338.361C159.515 337.618 158.703 337.897 158.331 338.152C157.607 338.549 157.063 339.21 156.812 339.996L156.835 339.962Z" fill="black"/>
<path d="M199.64 259.248C202.297 259.33 204.941 259.33 207.609 259.248C207.98 259.193 208.336 259.061 208.653 258.862C208.97 258.662 209.243 258.399 209.454 258.088C209.57 257.949 210.405 256.615 209.721 256.638C207.064 256.731 204.408 256.743 201.751 256.638C201.379 256.689 201.022 256.819 200.704 257.019C200.385 257.219 200.114 257.485 199.907 257.798C199.768 257.972 198.944 259.225 199.64 259.248Z" fill="black"/>
<path d="M194.281 256.615C191.52 256.615 188.748 256.615 185.987 256.557C185.614 256.608 185.257 256.737 184.939 256.937C184.621 257.137 184.349 257.403 184.143 257.717C184.015 257.88 183.18 259.156 183.864 259.167C186.636 259.167 189.397 259.225 192.17 259.225C192.542 259.173 192.898 259.043 193.216 258.843C193.534 258.643 193.806 258.378 194.014 258.065C194.142 257.903 194.965 256.615 194.281 256.615Z" fill="black"/>
<path d="M198.294 254.179C198.421 251.5 198.468 248.82 198.363 246.129C198.363 245.874 198.039 245.85 197.876 245.885C197.521 245.973 197.194 246.148 196.925 246.396C196.614 246.605 196.35 246.878 196.15 247.195C195.95 247.513 195.819 247.869 195.765 248.24C195.858 250.769 195.838 253.294 195.707 255.815C195.707 256.047 195.707 256.256 195.951 256.314C196.256 256.315 196.553 256.218 196.797 256.035C197.18 255.794 197.517 255.488 197.795 255.13C198.05 254.865 198.23 254.537 198.317 254.179H198.294Z" fill="black"/>
<path d="M195.974 261.974C195.81 263.267 195.732 264.569 195.742 265.872C195.791 267.136 195.926 268.396 196.148 269.642C196.264 270.315 197.378 269.561 197.598 269.375C197.952 269.095 198.258 268.758 198.503 268.378C198.684 268.128 198.781 267.828 198.781 267.519C198.565 266.315 198.43 265.099 198.375 263.877C198.358 262.69 198.427 261.504 198.584 260.327C198.677 259.596 197.865 259.875 197.494 260.118C197.112 260.356 196.774 260.658 196.496 261.012C196.248 261.286 196.069 261.616 195.974 261.974Z" fill="black"/>
</svg>
