<svg width="194" height="34" viewBox="0 0 194 34" fill="none" xmlns="http://www.w3.org/2000/svg">
<path d="M6.59868 24.2578L12.8309 15.7245L24.2408 0H17.231L5.63643 15.8633V0H0V34H5.63643V25.5573L6.59868 24.2578ZM13.6561 16.8853L10.126 21.7069L19.1079 34H26.1206L13.6561 16.8853Z" fill="#CC8F56"/>
<path d="M44.6374 0L27.8204 34H61.4124L44.6374 0ZM44.6374 11.5966L53.1158 28.8047H36.1618L44.6374 11.5966Z" fill="#CC8F56"/>
<path d="M89.0513 12.664C89.0513 5.65959 83.4596 0 76.584 0H63.1125V34H68.749V5.75302H76.584C80.3435 5.75302 83.4121 8.85886 83.4121 12.664C83.4121 16.4663 80.3435 19.575 76.584 19.575H69.7112L70.8553 25.2799H75.3029L81.6247 34H88.6373L81.5799 24.2578C85.9799 22.2646 89.0513 17.8111 89.0513 12.664Z" fill="#CC8F56"/>
<path d="M104.223 0H90.7515V34H96.3879V5.75302H104.223C107.982 5.75302 111.051 8.85886 111.051 12.664C111.051 16.4663 107.982 19.575 104.223 19.575H97.4425L98.5418 25.2799H104.223C111.099 25.2799 116.69 19.6203 116.69 12.664C116.69 5.65959 111.099 0 104.223 0Z" fill="#CC8F56"/>
<path d="M135.207 0L118.39 34H151.982L135.207 0ZM135.207 11.5966L143.686 28.8047H126.732L135.207 11.5966Z" fill="#CC8F56"/>
<path d="M173.157 0V34H178.796V0H173.157ZM171.462 18.3689H159.319V0H153.682V34H159.319V24.0738H170.362L171.462 18.3689Z" fill="#CC8F56"/>
</svg>
