<svg width="637" height="722" viewBox="0 0 637 722" fill="none" xmlns="http://www.w3.org/2000/svg">
<path d="M351.621 345.728C349.204 341.146 352.785 335.664 356.708 332.269C360.63 328.874 365.497 325.578 366.31 320.458C366.837 317.327 365.706 314.053 366.453 310.966C367.552 306.571 372.012 303.89 374.352 299.979C377.527 294.684 376.341 287.982 376.846 281.818C377.336 275.897 379.468 270.23 383.003 265.455C386.538 260.68 391.335 256.986 396.855 254.788C402.375 252.59 408.398 251.976 414.248 253.015C420.098 254.054 425.541 256.705 429.967 260.669C432.439 262.866 434.57 265.503 437.339 267.338C443.579 271.491 451.621 270.952 459.147 271.15C466.673 271.348 475.166 273.117 478.835 279.643C482.131 285.565 480.176 293.277 483.043 299.419C486.12 306.011 493.667 308.933 499.523 313.152C507.239 318.68 512.558 326.942 514.395 336.254C516.232 345.567 514.45 355.229 509.411 363.273L351.621 345.728Z" fill="#333333"/>
<path d="M352.784 344.564C350.422 339.741 354.41 335.038 357.915 332.105C361.42 329.171 365.034 326.359 366.792 322.217C368.814 317.449 365.891 311.933 368.99 307.528C370.328 305.832 371.755 304.207 373.263 302.661C374.829 300.922 376.035 298.891 376.812 296.684C378.427 291.872 377.757 286.73 378.076 281.753C378.352 277.171 379.667 272.711 381.921 268.712C384.154 264.724 387.297 261.319 391.094 258.774C394.892 256.229 399.236 254.616 403.773 254.067C408.512 253.516 413.313 254.019 417.835 255.538C422.357 257.057 426.488 259.556 429.933 262.856C431.722 264.753 433.642 266.523 435.679 268.152C437.605 269.518 439.759 270.53 442.04 271.14C447.006 272.513 452.225 272.326 457.322 272.425C465.694 272.59 476.22 274.436 478.922 283.731C480.318 288.521 479.669 293.619 481.12 298.442C482.427 302.771 485.514 305.902 489.173 308.418C492.831 310.934 497.017 313.043 500.533 315.954C504.205 319.015 507.266 322.743 509.553 326.941C511.996 331.446 513.471 336.412 513.884 341.52C514.296 346.628 513.637 351.767 511.948 356.605C511.098 359.033 509.994 361.365 508.652 363.56L510.63 362.109L494.787 360.297L457.136 356.111L411.486 351.035L372.044 346.64L359.091 345.201C357.058 344.981 354.982 344.608 352.927 344.52H352.652C351.686 344.41 349.851 346.926 350.653 347.014L366.452 348.772L404.103 352.958L449.742 358L489.184 362.395L502.137 363.834C504.17 364.054 506.257 364.45 508.301 364.516H508.575C509.333 364.603 510.212 363.637 510.553 363.076C513.301 358.783 515.153 353.978 515.999 348.952C516.845 343.925 516.667 338.779 515.476 333.822C514.284 328.866 512.105 324.201 509.067 320.107C506.029 316.014 502.196 312.576 497.797 310C493.897 307.561 489.656 305.33 486.602 301.804C483.075 297.739 482.79 292.652 482.35 287.521C481.922 282.654 480.823 277.886 476.857 274.678C473.44 271.909 468.968 270.711 464.673 270.195C459.652 269.58 454.565 269.997 449.522 269.525C446.935 269.325 444.388 268.77 441.952 267.877C439.389 266.822 437.067 265.255 435.129 263.273C433.285 261.362 431.329 259.561 429.273 257.879C427.401 256.46 425.374 255.259 423.231 254.297C416.676 251.302 409.323 250.53 402.289 252.101C395.256 253.672 388.929 257.499 384.272 262.999C381.15 266.521 378.76 270.629 377.241 275.084C375.626 279.83 375.516 284.555 375.461 289.51C375.538 292.216 375.231 294.92 374.549 297.541C373.731 299.876 372.372 301.984 370.583 303.693C368.945 305.294 367.516 307.095 366.331 309.055C365.206 311.264 364.759 313.756 365.045 316.218C365.243 319.031 365.496 321.766 364.002 324.293C362.67 326.275 361.014 328.017 359.102 329.446C355.399 332.566 351.521 335.895 350.06 340.707C349.384 342.757 349.538 344.989 350.488 346.926C350.741 347.486 353.257 345.531 352.784 344.564Z" fill="#333333"/>
<path d="M409.387 268.25C409.156 272.414 408.947 276.787 410.782 280.534C412.617 284.28 417.209 287.016 421.022 285.313C424.392 301.96 428.847 318.369 434.36 334.434C434.36 334.434 438.535 335.533 455.08 337.873C471.626 340.213 467.396 360.297 467.396 360.297L419.967 383.643L365.034 363.428C365.034 363.428 355.651 348.717 364.298 345.41C372.944 342.103 390.951 339.158 390.951 339.158L391.347 334.368C391.559 327.381 391.764 320.39 391.962 313.395C387.479 315.175 382.766 315.592 378.998 312.186C375.823 309.319 376.185 304.243 376.372 299.969C376.628 294.38 376.877 288.792 377.119 283.203C382.898 283.039 388.585 281.706 393.834 279.283C399.084 276.861 403.788 273.399 407.662 269.107" fill="white"/>
<path d="M408.157 269.019C407.893 273.678 407.553 278.995 410.354 283.005C412.629 286.213 416.705 288.004 420.473 286.466L419.737 286.323C421.978 297.405 424.699 308.392 427.9 319.283C428.699 322.001 429.53 324.707 430.394 327.402C430.823 328.743 431.262 330.094 431.702 331.435C431.921 332.105 432.152 332.775 432.372 333.445C432.505 334.177 432.749 334.885 433.097 335.544C433.47 335.939 434.47 335.95 434.976 336.06C441.568 337.367 448.28 338.027 454.872 339.279C457.661 339.772 460.231 341.111 462.234 343.113C464.236 345.116 465.575 347.686 466.068 350.474C466.829 353.983 466.855 357.612 466.145 361.132L467.892 359.209L441.59 372.151L425.11 380.259L420.968 382.303C420.111 382.731 420.968 382.303 420.968 382.446C420.737 382.33 420.494 382.241 420.242 382.182L389.117 370.69L371.967 364.373L367.111 362.56C366.755 362.467 366.409 362.338 366.078 362.175C365.902 362.054 366.232 362.296 366.078 362.175C365.922 361.951 365.783 361.716 365.661 361.472C364.126 358.936 362.967 356.19 362.222 353.32C361.778 351.778 361.688 350.156 361.958 348.574C362.31 347.003 363.189 346.684 364.639 346.168C372.253 343.465 380.416 342.037 388.359 340.674C388.93 340.564 389.458 340.466 390.084 340.378C390.561 340.239 390.996 339.982 391.347 339.63C391.698 339.279 391.956 338.844 392.095 338.367C392.82 329.721 392.875 321.03 393.127 312.373C393.127 311.977 392.545 312.164 392.38 312.23C389.238 313.438 385.689 314.076 382.492 312.625C381.06 311.962 379.838 310.916 378.96 309.605C378.083 308.293 377.583 306.764 377.515 305.187C377.31 301.738 377.369 298.278 377.691 294.838L378.251 282.401L376.054 284.423C382.113 284.219 388.068 282.796 393.565 280.24C399.061 277.685 403.987 274.048 408.047 269.547C408.3 269.261 409.146 268.349 408.761 267.921C408.377 267.492 407.355 268.393 407.135 268.635C403.434 272.694 398.952 275.963 393.956 278.248C388.961 280.532 383.556 281.784 378.065 281.929C377.546 282.027 377.065 282.268 376.677 282.625C376.288 282.983 376.008 283.442 375.867 283.95C375.67 288.462 375.468 292.97 375.263 297.475C375.109 301.045 374.626 304.825 375.263 308.363C375.522 309.947 376.203 311.433 377.236 312.663C378.268 313.893 379.614 314.821 381.13 315.35C384.503 316.603 388.183 315.768 391.424 314.515L390.677 314.372C390.425 322.887 390.381 331.424 389.667 339.916L391.677 337.906C387.623 338.565 383.58 339.356 379.592 340.213C376.296 340.927 373 341.685 369.704 342.619C367.056 343.377 364.057 344.058 362.013 345.981C358.069 349.65 359.321 355.067 361.2 359.462C361.842 361.118 362.652 362.705 363.617 364.197C363.82 364.516 364.139 364.745 364.507 364.834C371.022 367.273 377.57 369.635 384.096 372.041L411.134 381.984L418.375 384.654C419.473 385.06 420.374 384.324 421.385 383.819L444.04 372.668L465.639 362.043C466.112 361.813 466.595 361.604 467.046 361.34C467.595 361.02 468.051 360.562 468.367 360.01C468.683 359.459 468.849 358.834 468.847 358.198C469.382 354.633 469.214 350.998 468.353 347.497C467.819 345.18 466.706 343.036 465.119 341.264C463.532 339.493 461.523 338.152 459.278 337.367C455.63 336.115 451.532 335.95 447.731 335.357C444.951 334.928 442.183 334.478 439.414 333.972C438.217 333.819 437.032 333.588 435.865 333.28C435.756 333.28 435.47 333.28 435.371 333.17C435.272 333.061 435.481 332.973 435.371 332.907C435.097 332.35 434.897 331.758 434.778 331.149C434.36 329.885 433.943 328.633 433.536 327.369C430.453 317.848 427.735 308.234 425.384 298.529C424.242 293.805 423.187 289.044 422.22 284.247C422.143 283.884 421.715 284.016 421.484 284.104C418.067 285.499 414.31 283.126 412.464 280.292C410.047 276.556 410.343 271.645 410.585 267.404C410.651 266.174 408.157 268.085 408.113 268.953L408.157 269.019Z" fill="#333333"/>
<path d="M408.838 283.081C409.131 281.101 410.049 279.265 411.458 277.843C412.867 276.42 414.694 275.484 416.671 275.171C418.658 274.945 420.667 275.328 422.432 276.267C424.198 277.207 425.637 278.659 426.559 280.434C427.419 282.244 427.734 284.265 427.464 286.251C427.195 288.237 426.354 290.102 425.043 291.618C423.689 293.094 421.954 294.168 420.03 294.722C418.105 295.276 416.065 295.289 414.133 294.76" fill="white"/>
<path d="M410.067 282.357C410.181 281.154 410.624 280.005 411.346 279.036C412.069 278.067 413.044 277.316 414.165 276.864C415.432 276.418 416.783 276.269 418.117 276.427C419.45 276.585 420.729 277.046 421.856 277.776C423.042 278.497 424.053 279.473 424.813 280.635C425.573 281.796 426.065 283.113 426.251 284.489C426.463 285.81 426.365 287.164 425.965 288.441C425.564 289.719 424.872 290.885 423.944 291.85C422.721 292.815 421.284 293.471 419.754 293.764C418.224 294.057 416.647 293.977 415.154 293.531C414.242 293.289 412.254 295.728 413.144 296.014C420.494 297.98 428.426 292.014 428.8 284.456C428.893 282.772 428.558 281.091 427.826 279.572C427.095 278.052 425.99 276.743 424.616 275.765C423.241 274.788 421.641 274.175 419.966 273.983C418.29 273.79 416.593 274.026 415.033 274.666C413.121 275.464 411.439 276.727 410.14 278.341C408.84 279.954 407.966 281.868 407.595 283.906C407.497 284.62 408.288 284.324 408.639 284.115C409.323 283.734 409.834 283.104 410.067 282.357Z" fill="#333333"/>
<path d="M384.777 287.565L382.986 294.157L382.096 297.453L381.646 299.112C381.46 299.606 381.349 300.124 381.316 300.65C381.393 302.848 385.041 300.65 385.898 300.299L392.226 297.376C392.953 297.04 393.537 296.456 393.874 295.728C394.116 295.168 393.874 294.817 393.237 295.091L387.513 297.728C386.579 298.156 385.656 298.64 384.711 299.013C384.514 299.09 384.195 299.233 383.986 299.112C383.777 298.991 383.986 298.244 383.986 297.937L387.216 285.972C387.414 285.247 386.469 285.588 386.173 285.764C385.504 286.162 384.998 286.785 384.744 287.521L384.777 287.565Z" fill="#333333"/>
<path d="M391.753 313.46C396.983 311.439 401.916 307.506 404.707 305.517C405.364 309.278 404.503 313.146 402.312 316.273C398.631 321.426 385.766 330.71 385.766 330.71L391.929 313.395" fill="#333333"/>
<path d="M391.259 314.614C396.247 312.625 400.499 309.373 404.828 306.275L403.454 306.528C403.853 308.695 403.702 310.928 403.015 313.022C402.327 315.116 401.126 317.004 399.521 318.514C396.083 321.868 392.411 324.974 388.535 327.809C387.579 328.534 386.623 329.259 385.656 330.006L386.931 330.248L393.094 312.933C393.303 312.34 393.094 312.076 392.446 312.296C391.71 312.62 391.122 313.208 390.798 313.944L384.634 331.248C384.228 332.401 385.392 331.863 385.909 331.501C388.839 329.355 391.724 327.11 394.566 324.766C398.862 321.184 403.762 317.229 405.487 311.692C406.236 309.391 406.398 306.94 405.959 304.561C405.817 303.924 404.784 304.671 404.586 304.814C400.653 307.638 396.797 310.56 392.27 312.362C391.532 312.682 390.943 313.271 390.622 314.01C390.402 314.603 390.622 314.9 391.27 314.658L391.259 314.614Z" fill="#333333"/>
<path d="M554.391 245.003C554.391 259.901 546.14 267.866 531.527 267.866C545.986 267.866 554.391 275.557 554.391 290.729C554.391 275.821 561.916 267.866 577.254 267.866C561.916 267.811 554.391 259.549 554.391 245.003Z" fill="white"/>
<path d="M553.148 245.948C553.148 251.441 552.049 257.506 547.984 261.505C543.919 265.504 537.92 266.537 532.526 266.559C532.174 266.61 531.837 266.735 531.536 266.924C531.236 267.113 530.978 267.363 530.779 267.657C530.647 267.811 529.867 269.031 530.515 269.031C536.514 269.031 542.787 270.36 547.215 274.678C551.642 278.996 553.115 285.522 553.148 291.652C553.148 292.311 554.356 291.52 554.51 291.399C554.806 291.203 555.057 290.945 555.247 290.644C555.436 290.343 555.559 290.005 555.609 289.653C555.609 284.258 556.564 278.106 560.498 274.084C564.431 270.063 570.781 269.053 576.231 269.031C576.583 268.981 576.921 268.858 577.222 268.669C577.523 268.479 577.78 268.228 577.977 267.932C578.098 267.778 578.878 266.57 578.23 266.559C572.111 266.559 565.65 265.229 561.212 260.681C556.773 256.132 555.63 249.936 555.609 243.937C555.609 243.278 554.389 244.069 554.235 244.19C553.938 244.388 553.686 244.647 553.496 244.95C553.307 245.253 553.184 245.593 553.137 245.948C553.137 252.045 554.488 258.505 558.894 263.021C563.299 267.536 570.012 269.02 576.242 269.053L578.241 266.559C571.418 266.559 564.53 268.196 559.564 273.151C554.598 278.106 553.115 284.873 553.093 291.63L555.576 289.631C555.576 283.401 554.092 276.831 549.489 272.327C544.886 267.822 538.568 266.548 532.471 266.515L530.46 269.009C537.217 269.009 543.919 267.24 548.83 262.417C553.741 257.594 555.543 250.738 555.576 243.937C555.576 243.278 554.356 244.08 554.202 244.19C553.913 244.393 553.67 244.654 553.489 244.957C553.307 245.26 553.191 245.597 553.148 245.948Z" fill="#333333"/>
<path d="M574.748 334.301C580.131 334.499 585.537 334.488 590.92 334.301C591.273 334.248 591.611 334.124 591.913 333.935C592.215 333.746 592.476 333.496 592.678 333.203C592.788 333.06 593.579 331.807 592.931 331.829C587.532 332.034 582.138 332.034 576.747 331.829C576.395 331.879 576.057 332.002 575.756 332.191C575.455 332.381 575.197 332.632 575 332.928C574.869 333.093 574.099 334.279 574.748 334.301Z" fill="#333333"/>
<path d="M568.156 331.797C562.355 331.797 556.558 331.756 550.764 331.676C550.412 331.725 550.074 331.848 549.773 332.038C549.471 332.227 549.214 332.478 549.017 332.774C548.885 332.928 548.116 334.137 548.764 334.148C554.551 334.236 560.344 334.276 566.145 334.269C566.497 334.219 566.835 334.095 567.136 333.906C567.437 333.716 567.695 333.466 567.892 333.17C568.013 333.016 568.804 331.797 568.156 331.797Z" fill="#333333"/>
<path d="M572.418 328.315C572.682 322.503 572.737 316.702 572.55 310.89C572.55 310.231 571.341 311.022 571.177 311.154C570.88 311.351 570.629 311.608 570.44 311.909C570.251 312.21 570.127 312.548 570.078 312.9C570.254 318.555 570.213 324.209 569.957 329.864C569.957 330.556 570.594 330.314 570.99 330.073C571.385 329.831 572.396 328.974 572.429 328.315H572.418Z" fill="#333333"/>
<path d="M570.474 337.829C569.843 343.55 569.95 349.329 570.792 355.023C570.891 355.671 571.957 354.935 572.166 354.77C572.605 354.408 573.374 353.671 573.264 353.012C572.426 347.473 572.312 341.848 572.924 336.28C573.001 335.576 572.254 335.84 571.88 336.071C571.196 336.452 570.685 337.081 570.452 337.829H570.474Z" fill="#333333"/>
<path d="M478.306 246.3C481.236 246.41 484.166 246.41 487.096 246.3C487.448 246.247 487.787 246.123 488.089 245.934C488.392 245.745 488.652 245.495 488.853 245.201C488.952 245.058 489.754 243.795 489.106 243.828C486.162 243.938 483.239 243.949 480.317 243.828C479.963 243.877 479.624 244 479.321 244.189C479.018 244.379 478.758 244.63 478.559 244.926C478.438 245.091 477.658 246.267 478.306 246.289V246.3Z" fill="#333333"/>
<path d="M472.109 243.816C469.055 243.816 466.001 243.816 462.946 243.739C462.594 243.787 462.255 243.909 461.954 244.099C461.653 244.288 461.395 244.54 461.2 244.837C461.068 244.991 460.288 246.2 460.936 246.211C463.99 246.211 467.045 246.288 470.099 246.277C470.452 246.226 470.791 246.102 471.094 245.913C471.397 245.724 471.656 245.474 471.857 245.178C471.967 245.024 472.758 243.805 472.109 243.805V243.816Z" fill="#333333"/>
<path d="M476.494 240.696C476.648 237.429 476.677 234.166 476.582 230.907C476.582 230.248 475.373 231.017 475.209 231.16C474.913 231.357 474.662 231.615 474.473 231.916C474.283 232.217 474.16 232.554 474.11 232.906C474.212 236.027 474.19 239.14 474.044 242.245C474.044 242.926 474.692 242.707 475.088 242.454C475.483 242.201 476.483 241.355 476.516 240.696H476.494Z" fill="#333333"/>
<path d="M474.351 249.771C474.163 251.335 474.079 252.909 474.099 254.484C474.15 256.03 474.3 257.572 474.549 259.098C474.637 259.736 475.714 259.011 475.922 258.846C476.362 258.472 477.131 257.747 477.021 257.088C476.781 255.608 476.634 254.115 476.582 252.616C476.554 251.148 476.631 249.679 476.812 248.222C476.889 247.529 476.142 247.782 475.769 248.013C475.23 248.364 474.417 249.112 474.34 249.771H474.351Z" fill="#333333"/>
<path d="M183.524 569.506V575.427C183.524 576.021 183.59 577.46 185.271 577.46H415.794C418.112 577.46 421.869 575.581 424.187 573.252L451.654 547.983V536.359" fill="#333333"/>
<path d="M182.282 570.506V574.395C182.131 575.501 182.225 576.626 182.557 577.691C183.348 579.196 186.391 578.658 187.787 578.658H414.705C418.474 578.603 421.989 576.131 424.648 573.67C427.604 570.923 430.581 568.177 433.558 565.463L448.313 551.861C449.544 550.763 450.807 549.664 451.994 548.477C453.455 547.038 452.928 544.61 452.928 542.709V535.315C452.928 534.645 451.708 535.447 451.554 535.568C451.26 535.767 451.01 536.025 450.82 536.325C450.631 536.626 450.507 536.963 450.456 537.315V548.895L451.247 547.434L428.713 568.199C425.505 571.143 421.726 575.68 417.177 576.142C415.617 576.296 414.002 576.142 412.442 576.142H189.588C188.226 576.142 185.084 576.724 184.798 574.878C184.639 572.732 184.639 570.576 184.798 568.429C184.798 567.77 183.579 568.561 183.425 568.682C183.129 568.882 182.878 569.141 182.689 569.444C182.499 569.747 182.376 570.086 182.326 570.44L182.282 570.506Z" fill="#333333"/>
<path d="M451.103 536.359H224.273C222.174 536.359 218.527 538.062 216.11 540.16L185.589 566.693C183.172 568.781 182.919 570.483 185.017 570.483H411.848C413.947 570.483 417.594 568.781 420.011 566.693L450.532 540.16C452.949 538.062 453.202 536.359 451.103 536.359Z" fill="#333333"/>
<path d="M452.104 535.116H226.625C224.087 535.113 221.593 535.78 219.395 537.05C215.88 539.006 212.88 542.104 209.87 544.741C201.784 551.761 193.665 558.749 185.622 565.824C184.524 566.813 179.986 571.559 184.018 571.746H407.278C408.377 571.746 409.564 571.746 410.706 571.746C414.859 571.746 418.474 568.911 421.484 566.252L447.314 543.84C448.413 542.917 449.434 542.005 450.478 541.082C451.522 540.159 456.136 535.325 452.104 535.138C451.751 535.186 451.413 535.309 451.112 535.498C450.81 535.688 450.553 535.94 450.357 536.237C450.225 536.413 449.456 537.577 450.104 537.61C452.631 537.731 450.028 539.742 449.193 540.467L444.38 544.653L429.966 557.188C426.67 560.023 423.44 562.869 420.177 565.692C417.979 567.615 415.167 569.241 412.167 569.241H199.026C194.862 569.241 190.687 569.241 186.523 569.241C186.234 569.263 185.944 569.263 185.655 569.241C183.568 568.955 186.348 566.879 187.029 566.285L198.916 555.925L212.551 544.07C215.605 541.412 219.011 537.775 223.285 537.555C226.339 537.401 229.437 537.555 232.503 537.555H450.104C450.456 537.505 450.794 537.381 451.095 537.192C451.396 537.002 451.653 536.752 451.851 536.457C451.939 536.336 452.752 535.116 452.104 535.116Z" fill="#333333"/>
<path d="M186.26 571.725H407.092C408.268 571.725 409.432 571.725 410.608 571.725C414.508 571.725 418.079 569.22 420.925 566.748L444.941 545.873L447.139 543.94C447.468 543.665 448.534 542.709 448.237 542.193C447.941 541.676 447.139 542.193 446.864 542.445L425.067 561.419C421.858 564.21 418.475 567.869 414.278 568.989C413.194 569.211 412.086 569.293 410.982 569.231H200.664C196.698 569.231 192.731 569.231 188.765 569.231H188.26C187.908 569.282 187.571 569.405 187.27 569.595C186.969 569.784 186.711 570.034 186.513 570.33C186.392 570.483 185.601 571.703 186.26 571.703V571.725Z" fill="white"/>
<path d="M108.584 551.454L108.518 552.014C106.65 571.999 142.862 570.692 162.265 568.143C177.646 566.099 188.27 556.914 192.346 549.235L185.446 521.867L148.004 520.999L114.363 536.38L108.584 551.454Z" fill="#333333"/>
<path d="M107.342 552.233C107.045 554.098 107.159 556.004 107.675 557.82C108.191 559.636 109.097 561.318 110.33 562.748C112.967 565.659 116.769 567.329 120.46 568.439C129.986 571.273 140.401 571.13 150.223 570.493C155.39 570.271 160.533 569.651 165.604 568.636C171.982 567.197 177.976 564.406 183.183 560.451C185.436 558.736 187.508 556.796 189.368 554.661C190.197 553.707 190.975 552.71 191.698 551.673C192.478 550.76 193.095 549.719 193.521 548.597C193.545 547.913 193.425 547.232 193.17 546.597L192.071 542.202L186.699 520.855C186.688 520.795 186.659 520.739 186.616 520.696C186.573 520.653 186.517 520.624 186.457 520.614L168.692 520.196L156.079 519.91C153.805 519.856 151.453 519.636 149.179 519.746C147.806 519.812 146.323 520.844 145.103 521.394L134.776 526.118L115.461 534.907C114.44 535.282 113.607 536.044 113.143 537.028C112.506 538.489 112.044 540.027 111.418 541.51L107.441 551.926C107.199 552.552 107.496 552.739 108.078 552.563C108.818 552.245 109.408 551.655 109.726 550.915L115.505 535.819L113.857 537.467L132.666 528.876L144.312 523.613C145.279 523.173 146.312 522.789 147.246 522.273C147.828 521.954 147.246 522.393 147.092 522.273C147.092 522.339 147.718 522.273 147.784 522.273L172.24 522.844L183.084 523.097C183.449 523.141 183.818 523.141 184.183 523.097C184.578 522.976 184.282 523.195 184.183 522.932C184.391 523.921 184.677 524.898 184.919 525.876L190.907 549.651L191.049 550.234L191.313 549.432C188.017 555.628 182.128 560.243 175.844 563.187C168.977 566.395 161.561 567.252 154.057 567.845C147.48 568.427 140.867 568.478 134.281 567.999C128.502 567.527 122.339 566.615 117.164 563.835C111.989 561.056 109.122 556.518 109.814 550.651C109.957 549.487 107.452 551.365 107.342 552.233Z" fill="#333333"/>
<path d="M554.115 449.816C561.718 447.619 568.914 444.773 574.221 444.916C576.506 444.982 579.121 445.872 580.34 447.619C580.366 447.653 580.388 447.69 580.406 447.729C575.275 425.975 565.464 397.97 556.378 384.083C543.766 364.812 533.141 356.539 511.531 348.541C493.853 341.949 475.143 340.444 455.103 337.873C448.269 349.958 433.58 359.352 419.429 359.55C404.993 359.758 390.26 350.64 379.548 340.817C372.692 342.894 365.716 343.993 361.354 345.41L318.088 513.506L316.66 528.459L499.819 527.492L567.211 461.034L554.115 449.816Z" fill="white"/>
<path d="M553.314 451.058C558.192 449.651 562.982 447.86 567.959 446.784C569.916 446.276 571.941 446.083 573.958 446.212C575.782 446.41 578.287 447.135 579.21 448.904C579.572 449.596 581.792 447.465 581.616 446.707C578.658 434.258 574.903 422.012 570.376 410.044C566.432 399.607 561.939 389.312 555.621 380.073C549.831 371.602 543.097 363.812 534.549 358.033C525.221 351.716 514.301 347.376 503.501 344.366C488.031 340.048 471.947 338.642 456.071 336.609C455.324 336.511 454.401 337.499 454.094 338.049C449.627 345.589 442.878 351.515 434.823 354.968C426.405 358.689 416.917 359.201 408.147 356.407C398.765 353.518 390.283 347.97 382.878 341.586C382.296 341.081 381.263 339.752 380.516 339.554C380.087 339.433 379.143 339.894 378.747 340.004C378.066 340.202 377.374 340.389 376.693 340.565C374.089 341.235 371.474 341.817 368.859 342.41C366.816 342.883 364.772 343.333 362.761 343.938C362.159 344.054 361.596 344.322 361.125 344.716C360.654 345.11 360.291 345.617 360.07 346.19C359.136 348.958 358.587 351.936 357.872 354.77L352.379 375.953L344.853 405.188L336.47 437.797L328.318 469.482L321.605 495.564L317.507 511.462C316.409 515.758 316.233 520.109 315.815 524.536L315.376 529.184C315.376 529.338 315.376 529.656 315.618 529.656L326.604 529.601L354.554 529.447L392.316 529.25L432.845 529.041L468.662 528.854L492.745 528.722H498.15C498.736 528.669 499.305 528.494 499.819 528.208C500.334 527.922 500.783 527.533 501.139 527.063L519.695 508.759L547.931 480.919L566.718 462.396L567.652 461.473C567.883 461.253 568.75 460.231 568.366 459.858L555.182 448.662C554.457 448.047 552.194 450.431 552.853 450.992L566.037 462.187L566.751 460.572L560.038 467.164L543.921 483.051L524.529 502.178L507.665 518.801L502.105 524.295C501.237 525.152 500.26 525.965 499.469 526.898C499.431 526.941 499.391 526.982 499.348 527.019L500.809 526.228L482.494 526.316L438.8 526.547L385.987 526.833L340.118 527.074L325.154 527.151H320.43C319.609 527.041 318.778 527.041 317.958 527.151C317.856 527.168 317.752 527.168 317.65 527.151L317.881 527.624L318.826 517.637C318.905 515.93 319.074 514.228 319.331 512.539C319.815 510.144 320.562 507.771 321.166 505.398L325.187 489.807L330.757 468.153L337.272 442.818L344.15 416.087L350.742 390.609L356.389 368.636L360.487 352.672C361.146 350.123 361.959 347.552 362.476 344.981C362.476 344.871 362.531 344.762 362.564 344.652L360.542 346.673C364.003 345.575 367.596 344.882 371.122 344.058C372.99 343.63 374.847 343.179 376.682 342.663C377.901 342.333 378.384 342.037 379.362 342.916C380.153 343.63 380.966 344.322 381.79 345.014C387.485 349.87 393.85 353.881 400.687 356.924C407.189 359.906 414.342 361.188 421.474 360.648C428.132 359.878 434.523 357.585 440.152 353.946C446.694 349.901 452.155 344.324 456.06 337.697L454.083 339.136C479.835 342.432 506.643 344.74 529.363 358.572C547.524 369.624 558.643 388.708 566.311 408.012C571.573 421.277 575.861 434.907 579.144 448.794L581.55 446.597C580.682 444.938 578.254 444.125 576.562 443.839C574.489 443.586 572.389 443.698 570.355 444.169C565.081 445.191 560.016 447.135 554.874 448.618C554.135 448.867 553.511 449.374 553.116 450.047C552.941 450.299 552.567 451.266 553.314 451.058Z" fill="#333333"/>
<path d="M136.423 520.428C132.27 521.307 121.327 524.174 119.031 525.921C115.295 528.844 106.879 540.401 104.66 546.367C102.606 551.861 108.44 553.289 114.548 548.125" fill="white"/>
<path d="M137.204 519.198C133.083 520.075 129.012 521.176 125.009 522.494C123.26 523.008 121.564 523.689 119.944 524.526C118.616 525.362 117.423 526.396 116.406 527.591C113.325 530.974 110.542 534.617 108.089 538.479C106.836 540.395 105.685 542.375 104.64 544.412C103.816 546.027 102.849 547.906 103.014 549.763C103.178 551.619 104.925 552.674 106.782 552.619C109.748 552.52 112.506 550.729 114.725 548.917C115.055 548.642 116.11 547.675 115.824 547.159C115.538 546.642 114.725 547.159 114.451 547.422C112.715 548.84 110.43 550.301 108.067 550.114C107.72 550.12 107.374 550.055 107.052 549.923C106.731 549.791 106.439 549.594 106.196 549.345C105.953 549.096 105.764 548.8 105.64 548.475C105.516 548.15 105.46 547.803 105.475 547.455C105.71 545.764 106.318 544.147 107.254 542.72C108.166 541.028 109.177 539.424 110.232 537.776C112.303 534.536 114.633 531.468 117.197 528.602C117.835 527.826 118.574 527.139 119.395 526.559C120.837 525.851 122.337 525.267 123.877 524.812C127.735 523.562 131.655 522.513 135.622 521.67C136.369 521.429 136.997 520.915 137.38 520.23C137.567 519.912 137.907 519.033 137.171 519.198H137.204Z" fill="#333333"/>
<path d="M160.165 510.594C154.562 512.286 137.159 517.703 133.05 520.823C128.15 524.558 118.163 536.479 115.417 542.203C111.088 551.201 119.613 551.553 124.986 546.872C130.787 541.83 135.621 535.073 139.477 532.392C141.169 531.216 145.85 530.283 150.585 529.612L179.238 525.009L181.787 505.101L160.165 510.594Z" fill="white"/>
<path d="M160.945 509.364C156.342 510.748 151.76 512.209 147.212 513.758C142.663 515.308 137.829 516.824 133.808 519.428C132.03 520.661 130.391 522.082 128.919 523.668C126.722 525.866 124.744 528.118 122.799 530.458C119.503 534.479 115.68 538.885 113.768 543.818C113.054 545.653 112.351 548.29 113.889 549.927C115.12 551.223 117.185 551.201 118.8 550.86C121.222 550.29 123.457 549.11 125.293 547.433C128.11 544.894 130.774 542.19 133.27 539.335C135.127 537.292 137.071 534.633 139.477 533.205C140.835 532.538 142.288 532.086 143.784 531.864C145.773 531.425 147.794 531.128 149.805 530.766C151.815 530.403 154.133 530.074 156.287 529.722L178.469 526.261C178.946 526.122 179.38 525.865 179.732 525.514C180.083 525.162 180.34 524.728 180.479 524.251L183.017 504.288C183.017 503.969 182.908 503.739 182.556 503.826L160.945 509.32C160.2 509.557 159.572 510.067 159.187 510.748C159.001 511.045 158.649 511.979 159.385 511.792L181.007 506.298L180.545 505.837L178.007 525.756L180.018 523.745L162.077 526.624L152.485 528.162C151.387 528.338 150.343 528.481 149.266 528.656C146.245 529.151 142.795 529.568 140.093 531.117C137.84 532.617 135.819 534.438 134.094 536.523C131.732 539.072 129.446 541.697 126.963 544.137C125.041 546.026 123.074 547.828 120.371 548.388C118.833 548.718 116.79 548.674 115.889 547.147C114.79 545.246 116.032 542.598 116.988 540.906C118.185 538.786 119.54 536.759 121.042 534.842C124.254 530.423 127.893 526.331 131.907 522.625C135.203 519.702 140.29 518.164 144.575 516.637C149.475 514.89 154.463 513.341 159.418 511.803C160.156 511.547 160.779 511.036 161.176 510.364C161.308 510.122 161.681 509.133 160.945 509.364Z" fill="#333333"/>
<path d="M129.523 523.998C124.381 529.162 117.602 537.643 115.416 542.203C114.919 543.142 114.549 544.143 114.317 545.18" fill="white"/>
<path d="M129.073 523.547C125.64 527.019 122.447 530.719 119.515 534.622C116.977 537.984 114.021 541.741 113.12 545.96C112.967 546.674 113.846 546.345 114.164 546.158C114.848 545.777 115.359 545.147 115.592 544.4C116.405 540.676 119.141 537.314 121.404 534.358C124.05 530.882 126.916 527.579 129.985 524.47C130.249 524.196 131.084 523.262 130.688 522.844C130.293 522.427 129.304 523.328 129.073 523.558V523.547Z" fill="#333333"/>
<path d="M167.681 513.396C158.584 519.988 144.346 535.524 140.764 545.005C136.798 555.519 146.839 554.124 151.981 548.982C155.958 545.005 163.902 533.788 169.56 532.392C175.218 530.997 180.777 536.787 180.777 536.787C180.777 536.787 172.592 541.929 166.055 545.434C159.518 548.938 156.002 557.816 169.56 555.717C183.117 553.619 191.753 548.938 208.815 543.093C211.265 542.258 312.156 513.495 312.156 513.495" fill="white"/>
<path d="M167.549 512.638C161.289 517.377 155.603 522.831 150.607 528.887C147.936 531.98 145.473 535.246 143.235 538.666C141.29 541.44 139.826 544.523 138.907 547.784C138.379 549.982 138.39 552.838 140.84 553.827C143.038 554.717 145.828 553.827 147.839 552.728C150.472 551.261 152.796 549.299 154.683 546.949C157.144 544.126 159.496 541.214 162.11 538.523C164.725 535.831 167.538 532.92 171.46 533.469C174.573 534.056 177.412 535.632 179.557 537.962L180.92 535.82C177.624 537.875 174.328 539.863 170.966 541.797C167.274 543.928 163.363 545.642 160.77 549.18C159.43 551.004 157.881 554.157 160.045 556.013C161.365 556.932 162.955 557.381 164.56 557.288C167.173 557.24 169.773 556.916 172.317 556.321C182.952 554.19 192.939 549.729 203.08 546.071C204.618 545.51 206.167 544.972 207.716 544.423C209.265 543.873 207.595 544.423 208.189 544.269L209.188 543.972C210.463 543.588 211.748 543.225 213.023 542.873C224.009 539.676 235.084 536.534 246.115 533.37L287.501 521.548C295.313 519.351 303.146 517.154 310.947 514.868L311.298 514.759C312.042 514.518 312.668 514.008 313.056 513.33C313.232 513.045 313.595 512.078 312.859 512.287L294.236 517.604L254.761 528.876C242.866 532.282 230.964 535.692 219.054 539.105C216.143 539.951 213.231 540.775 210.331 541.643C202.289 544.038 194.587 547.499 186.677 550.267C181.987 551.95 177.171 553.254 172.273 554.168C169.813 554.77 167.266 554.938 164.747 554.662C164.126 554.625 163.523 554.441 162.986 554.126C162.45 553.811 161.995 553.374 161.66 552.849C160.638 550.652 162.978 548.268 164.604 547.147C166.659 545.752 168.999 544.697 171.131 543.445C173.262 542.192 175.591 540.819 177.799 539.468L180.502 537.798C180.887 537.556 182.436 536.248 181.864 535.655C180.213 533.967 178.236 532.633 176.053 531.733C174.589 531.108 172.992 530.863 171.409 531.023C169.825 531.182 168.309 531.74 167 532.645C161.177 536.402 157.112 542.39 152.519 547.444C150.909 549.359 148.756 550.742 146.345 551.41C144.422 551.872 141.895 551.74 141.247 549.476C140.456 546.686 142.214 543.368 143.532 540.984C145.365 537.791 147.46 534.755 149.794 531.909C154.986 525.228 161.042 519.265 167.802 514.176C168.142 513.924 169.186 512.924 168.9 512.418C168.615 511.913 167.867 512.418 167.527 512.671L167.549 512.638Z" fill="#333333"/>
<path d="M167.681 513.396C162.221 517.563 157.203 522.279 152.706 527.47L167.681 513.396Z" fill="white"/>
<path d="M167.548 512.638C161.85 516.97 156.638 521.906 152.002 527.36C151.76 527.646 151.167 528.459 151.749 528.733C152.331 529.008 153.21 527.942 153.496 527.635C157.764 522.645 162.56 518.132 167.801 514.176C168.207 513.879 169.108 513 168.899 512.418C168.691 511.836 167.801 512.495 167.526 512.671L167.548 512.638Z" fill="#333333"/>
<path d="M567.662 461.44C572.069 460.223 576.006 457.703 578.956 454.211C580.527 452.31 581.714 449.662 580.307 447.619C579.088 445.872 576.473 444.982 574.188 444.916C568.881 444.773 561.685 447.651 554.082 449.816" fill="#333333"/>
<path d="M566.881 462.627C571.09 461.421 574.932 459.182 578.054 456.112C580.526 453.651 584.273 448.806 580.757 445.641C577.703 442.906 573 443.543 569.353 444.345C564.442 445.444 559.696 447.191 554.861 448.586C554.122 448.834 553.498 449.342 553.104 450.014C552.939 450.3 552.565 451.267 553.312 451.058C557.322 449.904 561.267 448.52 565.299 447.432C568.529 446.564 572.187 445.609 575.516 446.498C577.12 446.938 579.076 447.916 579.559 449.663C580.043 451.409 578.9 453.31 577.714 454.618C575.181 457.259 571.974 459.158 568.441 460.111C567.702 460.359 567.077 460.867 566.683 461.539C566.507 461.825 566.145 462.803 566.881 462.583V462.627Z" fill="#333333"/>
<path d="M573.001 529.678H592.667C593.019 529.626 593.355 529.501 593.656 529.312C593.956 529.123 594.215 528.873 594.414 528.579C594.535 528.426 595.315 527.206 594.667 527.206H574.99C574.636 527.257 574.298 527.381 573.995 527.57C573.692 527.76 573.433 528.01 573.232 528.305C573.111 528.459 572.331 529.678 572.979 529.678H573.001Z" fill="#333333"/>
<path d="M287.227 529.678H371.22C371.572 529.627 371.909 529.503 372.21 529.313C372.51 529.124 372.768 528.874 372.967 528.579C373.088 528.426 373.868 527.206 373.22 527.206H289.238C288.885 527.256 288.548 527.38 288.247 527.569C287.946 527.758 287.688 528.009 287.491 528.305C287.37 528.459 286.579 529.678 287.227 529.678Z" fill="#333333"/>
<path d="M61.066 529.678H107.441C107.794 529.627 108.133 529.503 108.435 529.314C108.738 529.125 108.998 528.875 109.199 528.579C109.319 528.426 110.1 527.206 109.451 527.206H63.0656C62.7139 527.257 62.3769 527.382 62.076 527.571C61.7752 527.76 61.5172 528.01 61.3188 528.305C61.1979 528.459 60.4178 529.678 61.066 529.678Z" fill="#333333"/>
<path d="M139.357 565.945C134.621 562.056 130.392 556.485 131.842 549.992C133.226 543.884 138.95 539.709 143.927 536.621C144.433 536.303 145.366 535.523 145.355 534.864C145.344 534.204 144.751 534.391 144.312 534.655C138.357 538.324 131.963 543.279 129.699 550.19C127.337 557.408 131.545 563.824 136.973 568.285C137.72 568.889 139.961 566.494 139.302 565.945H139.357Z" fill="#333333"/>
<path d="M568.297 445.038L508.2 463.638L513.606 479.865C513.606 479.865 443.818 497.005 428.162 500.993C412.506 504.981 391.006 508.936 376.294 522.021C365.308 531.799 357.716 539.083 357.716 544.225C357.644 544.847 357.8 545.474 358.156 545.99C358.511 546.505 359.042 546.874 359.65 547.027C357.881 549.488 356.672 551.839 356.848 553.542C356.98 554.827 358.298 555.3 360.144 555.333C359.684 556.198 359.5 557.183 359.617 558.156C360.43 562.837 369.197 559.563 369.197 559.563L369.384 559.497C367.725 563.298 373.482 564.924 378.777 562.661C385.084 559.958 411.254 548.752 417.231 547.28C420.073 546.62 422.929 546.023 425.8 545.489C458.101 539.424 490.754 536.513 523.494 533.656C569.814 529.613 571.604 524.647 578.427 507.969C583.778 494.719 570.154 452.948 568.297 445.038Z" fill="white"/>
<path d="M569.078 443.862L548.819 450.113L516.397 460.133L508.981 462.418C508.333 462.616 506.663 463.78 506.96 464.615L512.365 480.832L514.376 478.634L497.434 482.809C485.671 485.695 473.912 488.596 462.156 491.511C452.059 494.005 441.974 496.488 431.899 499.026C417.55 502.629 402.729 505.53 389.468 512.352C381.14 516.637 374.285 522.702 367.561 529.151C364.656 531.813 361.994 534.729 359.606 537.863C358.123 539.907 356.563 542.324 356.475 544.928C356.363 545.663 356.524 546.414 356.929 547.038C357.335 547.662 357.955 548.116 358.673 548.312V547.213C357.332 549.114 355.761 551.399 355.618 553.805C355.475 556.002 357.277 556.508 359.134 556.574L358.991 555.827C358.321 557.398 357.838 559.452 359.178 560.826C359.683 561.242 360.265 561.553 360.891 561.742C361.517 561.931 362.175 561.993 362.826 561.924C364.897 561.842 366.94 561.411 368.868 560.65L368.231 560.002C368.004 560.44 367.881 560.926 367.873 561.42C367.865 561.915 367.971 562.404 368.184 562.85C368.397 563.296 368.711 563.687 369.1 563.991C369.489 564.296 369.944 564.506 370.428 564.605C373.087 565.253 375.888 564.953 378.35 563.759C381.558 562.408 384.755 561.023 387.963 559.672C396.324 556.145 404.696 552.531 413.232 549.509C418.374 547.697 423.857 546.895 429.196 545.939C437.095 544.521 445.028 543.291 452.971 542.192C468.946 539.995 484.997 538.303 501.06 536.809C515.343 535.49 529.625 534.611 543.809 532.524C551.269 531.425 559.19 530.074 565.87 526.316C570.265 523.741 573.795 519.917 576.011 515.33C577.23 512.957 578.208 510.474 579.219 508.013C580.359 504.978 580.896 501.75 580.801 498.509C580.801 489.116 578.714 479.667 576.56 470.57C574.681 462.66 572.44 454.848 570.287 447.015C570.012 446.026 569.737 445.037 569.496 444.037C569.254 443.038 566.793 445.136 567.013 446.048C568.518 452.42 570.54 458.683 572.188 465.022C574.731 474.156 576.618 483.459 577.835 492.862C578.369 496.692 578.454 500.571 578.087 504.42C577.628 507.161 576.777 509.821 575.56 512.319C574.705 514.487 573.669 516.578 572.462 518.571C571.453 520.197 570.158 521.626 568.639 522.79C563.991 526.426 557.059 527.932 551.159 529.041C538.722 531.392 526.021 532.205 513.431 533.315C497.819 534.71 482.196 536.193 466.628 538.094C451.246 539.984 435.865 542.093 420.725 545.378C412.87 547.092 405.344 550.531 397.972 553.585C393.819 555.299 389.677 557.046 385.535 558.793C382.129 560.243 378.24 562.572 374.471 562.408C372.637 562.331 369.538 561.419 370.494 558.958C370.725 558.365 370.494 558.09 369.857 558.31C368.4 558.853 366.878 559.204 365.331 559.353C362.331 559.617 359.837 558.167 361.254 554.794C361.331 554.618 361.496 554.069 361.112 554.047C359.694 554.047 357.969 553.783 358.09 551.992C358.211 550.202 359.563 548.29 360.617 546.796C360.782 546.565 361.112 545.862 360.617 545.697C357.53 544.961 359.376 540.676 360.409 539.006C362.392 536.08 364.716 533.399 367.33 531.019C373.867 524.614 380.613 518.494 388.82 514.319C401.751 507.727 416.133 504.936 430.075 501.432C439.655 499.029 449.232 496.652 458.805 494.301C470.29 491.452 481.771 488.618 493.248 485.798C499.664 484.216 506.125 482.743 512.508 481.051L512.805 480.986C513.464 480.821 515.112 479.601 514.826 478.788L509.421 462.55L507.399 464.747L527.659 458.496L560.091 448.476L567.496 446.191C568.234 445.934 568.857 445.424 569.254 444.751C569.496 444.576 569.814 443.576 569.078 443.862Z" fill="#333333"/>
<path d="M372.253 557.188C373.022 554.991 375.911 553.387 377.823 552.156C380.218 550.607 382.69 549.179 385.184 547.762C389.755 545.202 394.413 542.807 399.104 540.477L402.126 539.005C402.857 538.675 403.443 538.089 403.774 537.357C403.927 536.819 403.774 536.401 403.125 536.709C394.336 540.928 385.393 545.356 377.263 550.794C374.505 552.651 371.099 554.892 369.957 558.166C369.407 559.781 371.978 557.957 372.253 557.166V557.188Z" fill="#333333"/>
<path d="M396.457 525.745C392.531 528.154 388.623 530.586 384.734 533.04C379.3 536.28 374.115 539.919 369.221 543.927C365.991 546.718 362.453 549.926 360.739 553.936C360.464 554.563 360.816 554.749 361.376 554.574C362.114 554.253 362.704 553.664 363.024 552.926C364.386 549.75 367.364 547.212 369.946 545.026C372.227 543.102 374.615 541.309 377.098 539.654C381.987 536.358 386.986 533.314 391.985 530.227L396.061 527.7C396.566 527.392 397.5 526.601 397.489 525.942C397.478 525.283 396.896 525.47 396.457 525.745Z" fill="#333333"/>
<path d="M362.287 544.938C367.298 538.399 373.217 532.609 379.866 527.744C382.355 525.839 384.948 524.075 387.634 522.46C388.732 521.8 389.633 521.273 390.589 520.801C391.325 520.476 391.913 519.889 392.237 519.153C392.402 518.614 392.237 518.197 391.589 518.504C387.34 520.694 383.315 523.292 379.569 526.261C372.451 531.476 366.114 537.68 360.749 544.686C360.496 545.037 359.936 545.784 360.496 546.059C361.057 546.334 362.035 545.224 362.243 544.96L362.287 544.938Z" fill="#333333"/>
<path d="M506.509 482.919L520.473 480.722C521.222 480.492 521.853 479.98 522.231 479.294C522.44 478.942 522.748 478.14 522.022 478.195L508.058 480.392C507.308 480.626 506.678 481.142 506.3 481.832C506.092 482.172 505.784 482.985 506.509 482.864V482.919Z" fill="#333333"/>
<path d="M271.954 314.889H333.282C334.553 314.902 335.811 314.64 336.971 314.12C338.131 313.601 339.164 312.836 340 311.878C340.835 310.92 341.453 309.793 341.811 308.573C342.168 307.354 342.257 306.071 342.071 304.814L338.775 282.06C338.489 279.939 337.438 277.994 335.82 276.592C334.201 275.19 332.127 274.427 329.986 274.447H268.757C267.489 274.442 266.235 274.71 265.08 275.233C263.925 275.756 262.895 276.521 262.062 277.477C261.228 278.432 260.61 279.556 260.248 280.771C259.887 281.987 259.791 283.266 259.968 284.521L263.165 307.275C263.451 309.397 264.502 311.341 266.121 312.743C267.739 314.145 269.813 314.908 271.954 314.889Z" fill="white"/>
<path d="M270.944 316.13H314.165C320.098 316.13 326.031 316.13 331.964 316.13C334.404 316.088 336.77 315.283 338.73 313.829C340.69 312.375 342.146 310.345 342.895 308.022C343.895 304.847 342.895 301.123 342.423 297.914L340.533 284.412C340.379 283.313 340.237 282.214 340.072 281.116C339.873 279.725 339.361 278.397 338.575 277.233C337.789 276.068 336.75 275.097 335.534 274.392C333.337 273.139 331.019 273.194 328.591 273.194H270.845C269.048 273.121 267.258 273.457 265.61 274.176C263.962 274.896 262.498 275.98 261.33 277.347C260.353 278.456 259.618 279.757 259.173 281.167C258.729 282.576 258.584 284.064 258.749 285.532C258.869 286.521 259.034 287.499 259.166 288.488L261.056 301.881C261.484 304.99 261.517 308.846 263.121 311.626C263.931 312.982 265.075 314.108 266.445 314.895C267.815 315.682 269.364 316.103 270.944 316.119C271.298 316.072 271.638 315.949 271.941 315.759C272.244 315.57 272.503 315.318 272.702 315.021C272.822 314.856 273.602 313.658 272.954 313.647C271.328 313.628 269.738 313.158 268.363 312.289C266.988 311.42 265.88 310.186 265.165 308.725C264.66 307.472 264.349 306.15 264.242 304.803L262.561 292.872C262.132 289.784 261.649 286.686 261.264 283.588C260.946 281.061 261.616 278.193 263.89 276.765C265.169 276.009 266.635 275.628 268.12 275.666C273.778 275.611 279.436 275.666 285.095 275.666H312.352C317.846 275.666 323.339 275.666 328.832 275.666C330.968 275.628 333.043 276.376 334.663 277.768C336.284 279.159 337.337 281.098 337.622 283.214C338.116 286.51 338.545 289.806 339.006 293.102L340.643 304.693C340.947 306.201 340.921 307.756 340.566 309.253C340.146 310.573 339.303 311.719 338.167 312.513C337.032 313.307 335.666 313.705 334.282 313.647C329.525 313.768 324.756 313.647 319.999 313.647H272.954C272.602 313.697 272.264 313.82 271.963 314.009C271.662 314.199 271.404 314.45 271.207 314.746C271.087 314.911 270.296 316.13 270.944 316.13Z" fill="#333333"/>
<path d="M286.667 284.379L281.294 290.301C279.888 291.85 277.9 293.904 279.438 296.036C280.192 296.921 281.082 297.682 282.075 298.288L285.371 300.705L292.171 305.671C292.973 306.253 295.16 303.814 294.5 303.342C290.688 300.562 286.81 297.849 283.052 294.992C282.233 294.495 281.626 293.712 281.349 292.795C281.196 291.85 282.239 291.092 282.811 290.466L287.546 285.247C287.799 284.972 288.645 284.049 288.26 283.632C287.875 283.214 286.854 284.093 286.634 284.335L286.667 284.379Z" fill="#333333"/>
<path d="M302.905 285.972L296.697 304.935C296.466 305.66 297.477 305.297 297.741 305.143C298.406 304.741 298.911 304.119 299.169 303.385L305.377 284.411C305.607 283.686 304.596 284.049 304.278 284.214C303.609 284.613 303.103 285.235 302.85 285.972H302.905Z" fill="#333333"/>
<path d="M309.112 286.664L320.483 294.882L321.197 293.256L311.628 303.88C311.375 304.166 310.529 305.077 310.925 305.506C311.32 305.934 312.32 305.034 312.54 304.792L322.109 294.168C322.296 293.959 323.285 292.893 322.812 292.553L311.441 284.324C310.628 283.741 308.453 286.18 309.112 286.664Z" fill="#333333"/>
<path d="M285.886 513.538H378.591C387.062 513.538 392.962 506.474 391.775 497.772L371.241 347.573C370.055 338.861 362.221 331.808 353.751 331.808H145.169C136.698 331.808 130.798 338.861 131.985 347.573L152.508 497.772C153.705 506.474 161.539 513.538 169.999 513.538H226.646" fill="white"/>
<path d="M284.874 514.781H376.646C379.042 514.864 381.43 514.445 383.655 513.55C386.143 512.443 388.309 510.722 389.95 508.548C391.591 506.375 392.654 503.821 393.038 501.124C393.212 498.217 393.005 495.299 392.422 492.445L390.555 478.745L384.38 433.6L377.546 383.589L372.987 350.234C372.504 346.718 372.086 343.389 370.317 340.192C368.689 337.254 366.3 334.81 363.399 333.116C360.499 331.422 357.196 330.542 353.837 330.567H145.794C143.082 330.67 140.442 331.473 138.132 332.898C135.822 334.322 133.919 336.32 132.61 338.698C130.335 342.774 130.577 346.993 131.181 351.365L132.84 363.582L138.784 407.068L145.706 457.606L150.584 493.368C150.848 495.291 151.067 497.213 151.375 499.125C151.876 502.105 153.077 504.925 154.881 507.35C156.684 509.776 159.037 511.739 161.746 513.078C164.396 514.311 167.296 514.909 170.217 514.825H225.612C225.964 514.774 226.301 514.65 226.602 514.461C226.903 514.272 227.161 514.021 227.359 513.726C227.48 513.572 228.271 512.353 227.611 512.353H172.217C169.232 512.453 166.267 511.823 163.581 510.518C160.985 509.164 158.743 507.219 157.036 504.839C155.33 502.459 154.208 499.711 153.759 496.818C152.77 490.127 151.924 483.425 151.012 476.723L144.794 431.227L138.059 381.985L133.664 349.926C133.159 346.212 132.566 342.565 134.214 338.939C136.334 334.27 141.047 333.083 145.717 333.083H351.761C355.005 333.04 358.202 333.863 361.022 335.468C363.842 337.073 366.182 339.402 367.801 342.213C369.636 345.388 369.999 348.805 370.493 352.266L372.262 365.186L378.261 409.133L385.072 458.925L389.819 493.686C390.093 495.653 390.434 497.631 390.61 499.608C391.126 505.321 388.313 510.749 382.458 512.034C380.973 512.308 379.462 512.419 377.953 512.364H286.884C286.531 512.414 286.192 512.538 285.889 512.727C285.587 512.916 285.327 513.167 285.127 513.462C285.006 513.616 284.226 514.836 284.874 514.836V514.781Z" fill="#333333"/>
<path d="M257.641 592.094H292.699C303.576 592.094 301.928 584.765 288.304 582.272C283.734 581.426 279.427 580.481 275.022 579.635" fill="white"/>
<path d="M256.639 593.335H289.336C291.756 593.506 294.188 593.295 296.543 592.708C297.502 592.448 298.392 591.98 299.151 591.338C299.911 590.697 300.52 589.897 300.937 588.995C301.509 587.435 300.597 586.018 299.443 585.018C297.004 582.919 293.576 581.92 290.5 581.26C285.699 580.228 280.854 579.316 276.031 578.382C275.097 578.206 273.174 580.711 274.031 580.876C277.931 581.634 281.832 582.469 285.743 583.216C288.975 583.659 292.12 584.593 295.071 585.985C296.378 586.688 298.367 587.874 298.597 589.5C298.597 589.599 298.597 590.094 298.597 590.138C298.74 590.357 298.487 589.907 298.894 589.852C298.612 589.959 298.34 590.091 298.081 590.247C297.541 590.432 296.986 590.568 296.422 590.654C294.233 590.896 292.029 590.962 289.83 590.852H258.639C258.287 590.902 257.95 591.026 257.649 591.216C257.348 591.405 257.09 591.655 256.892 591.95C256.771 592.104 255.98 593.324 256.639 593.324V593.335Z" fill="#333333"/>
<path d="M246.751 463.417H284.326C288.347 463.417 291.423 467.252 290.83 471.526L274.921 586.073C274.747 587.694 273.99 589.198 272.793 590.305C271.595 591.411 270.036 592.047 268.406 592.093H215.242C210.847 592.093 207.683 587.556 208.924 583.029L240.445 468.482C240.793 467.062 241.599 465.796 242.739 464.88C243.879 463.965 245.29 463.45 246.751 463.417Z" fill="white"/>
<path d="M245.751 464.66H283.315C284.724 464.704 286.08 465.204 287.18 466.086C288.279 466.968 289.063 468.183 289.412 469.549C289.681 470.85 289.681 472.192 289.412 473.493L287.841 484.842L281.788 528.459L275.602 572.999L273.921 585.084C273.844 585.667 273.778 586.183 273.679 586.82C273.614 587.919 273.126 588.95 272.316 589.695C271.507 590.441 270.44 590.844 269.34 590.82H218.252C216.109 590.82 214.099 590.885 212.319 589.369C208.693 586.271 210.176 582.184 211.22 578.383L220.812 543.544L233.721 496.598L241.477 468.395C241.543 468.175 241.598 467.956 241.664 467.736C241.886 466.829 242.413 466.025 243.157 465.461C243.902 464.897 244.818 464.606 245.751 464.638C246.103 464.585 246.439 464.46 246.74 464.271C247.04 464.082 247.299 463.833 247.498 463.539C247.619 463.396 248.399 462.144 247.751 462.166C243.598 462.287 240.258 465.55 239.159 469.428C238.896 470.34 238.654 471.263 238.401 472.186L234.622 485.919L222.108 531.426L210.484 573.669C209.591 576.877 208.704 580.093 207.825 583.316C207.393 584.638 207.306 586.049 207.574 587.415C207.841 588.78 208.453 590.054 209.352 591.116C211.143 593.105 213.461 593.314 215.944 593.314H267.362C268.634 593.274 269.882 592.959 271.02 592.39C272.158 591.821 273.159 591.011 273.954 590.018C276.261 587.282 276.36 583.777 276.822 580.404L282.26 541.27L288.984 492.928L291.291 476.327C291.654 473.658 292.598 470.241 291.884 467.538C291.561 466.23 290.873 465.04 289.901 464.107C288.928 463.173 287.711 462.535 286.391 462.265C285.706 462.175 285.015 462.145 284.325 462.177H247.751C247.399 462.227 247.062 462.351 246.761 462.54C246.46 462.73 246.202 462.98 246.004 463.275C245.883 463.44 245.103 464.66 245.751 464.66Z" fill="#333333"/>
<path d="M268.455 497.131C273.622 492.315 274.419 484.773 270.236 480.286C266.053 475.799 258.474 476.065 253.308 480.881C248.141 485.697 247.344 493.239 251.527 497.726C255.71 502.214 263.289 501.947 268.455 497.131Z" fill="white"/>
<path d="M274.032 488.226C274.68 483.106 272.186 478.129 267.154 476.415C261.661 474.569 255.717 477.25 251.992 481.282C248.268 485.314 246.18 491.225 248.696 496.378C251.026 501.19 256.574 503.036 261.584 501.761C264.726 500.907 267.565 499.184 269.772 496.79C271.98 494.396 273.468 491.427 274.065 488.226C274.174 487.512 273.372 487.819 273.021 488.017C272.34 488.402 271.83 489.03 271.593 489.775C271.284 492.021 270.315 494.124 268.809 495.818C267.303 497.512 265.327 498.72 263.133 499.289C261.039 499.895 258.808 499.828 256.755 499.099C254.701 498.37 252.928 497.014 251.685 495.224C250.55 493.308 250.02 491.094 250.163 488.871C250.306 486.648 251.116 484.521 252.487 482.765C253.875 481.007 255.742 479.687 257.862 478.964C259.983 478.241 262.267 478.146 264.44 478.689C266.788 479.333 268.816 480.819 270.135 482.865C271.455 484.91 271.974 487.371 271.593 489.775C271.505 490.489 272.274 490.192 272.636 489.984C273.31 489.599 273.809 488.969 274.032 488.226Z" fill="#333333"/>
<path d="M58.5073 468.67H133.03L121.241 384.852C120.843 382.354 119.584 380.073 117.682 378.404C115.78 376.734 113.355 375.782 110.826 375.711H54.5741C53.4201 375.68 52.2737 375.906 51.2182 376.374C50.1626 376.841 49.2246 377.538 48.4722 378.413C47.7198 379.289 47.172 380.321 46.8687 381.435C46.5653 382.549 46.5141 383.716 46.7186 384.852L58.5073 468.67Z" fill="white"/>
<path d="M57.5178 469.91H132.04C132.919 469.91 134.424 468.625 134.293 467.713L132.04 451.706L127.371 418.504L123.339 389.774C123.064 387.851 122.823 385.928 122.526 384.017C122.117 381.388 120.789 378.989 118.776 377.249C116.764 375.508 114.2 374.539 111.539 374.513C103.354 374.513 95.1691 374.513 86.9841 374.513H55.6061C53.9464 374.541 52.3173 374.965 50.8537 375.748C49.3902 376.532 48.1344 377.652 47.1903 379.018C45.1798 381.841 45.3336 384.83 45.7731 388.016L49.1789 412.252L53.9801 446.311L57.1003 468.559L57.2541 469.658C57.375 470.471 59.8799 468.636 59.7481 467.658L57.5508 452.2L53.0023 419.69L48.9482 390.795C48.6406 388.598 48.322 386.401 48.0253 384.258C47.6756 382.517 47.9396 380.708 48.7724 379.139C49.8711 377.37 52.0684 376.941 54.0131 376.941C62.1871 376.941 70.3722 376.941 78.5463 376.941H107.408C108.188 376.941 108.957 376.941 109.737 376.941C111.39 376.968 113.014 377.38 114.48 378.142C115.946 378.905 117.215 379.998 118.186 381.336C119.812 383.533 120.043 386.06 120.384 388.664L123.866 413.428L128.58 446.981L131.612 468.526L131.755 469.625L133.952 467.427H59.5064C59.1537 467.475 58.8153 467.598 58.514 467.788C58.2127 467.977 57.9554 468.229 57.7595 468.526C57.6387 468.691 56.8476 469.91 57.5178 469.91Z" fill="#333333"/>
<path d="M93.6306 452.815H91.3673C91.2421 452.819 91.1177 452.794 91.0035 452.743C90.8892 452.692 90.7882 452.615 90.7081 452.519C90.3494 452.121 90.0395 451.682 89.7852 451.211C89.126 450.112 88.4888 448.937 87.8406 447.794L87.5 447.179C87.4745 447.129 87.4315 447.09 87.3792 447.069L85.4675 446.333C85.4415 446.322 85.4134 446.316 85.3851 446.316C85.3568 446.316 85.3287 446.322 85.3027 446.333C83.9623 446.937 82.6329 447.553 81.2926 448.146C80.9596 448.284 80.6184 448.402 80.2708 448.497C80.1186 448.538 79.9583 448.538 79.806 448.498C79.6537 448.457 79.5147 448.378 79.4028 448.267C78.1723 447.227 76.9492 446.176 75.7333 445.114C75.621 445.019 75.5376 444.894 75.4929 444.754C75.4482 444.614 75.444 444.465 75.4806 444.322C75.5539 443.76 75.6603 443.202 75.7992 442.652C76.1178 441.455 76.4694 440.279 76.81 439.082C76.8284 439.038 76.8379 438.992 76.8379 438.944C76.8379 438.897 76.8284 438.851 76.81 438.807C76.5024 438.258 76.1947 437.708 75.8981 437.17C75.8772 437.132 75.849 437.099 75.815 437.073C75.781 437.047 75.742 437.027 75.7003 437.016C74.2941 436.511 72.8878 436.017 71.4924 435.5C71.02 435.324 70.5696 435.083 70.1081 434.863C70.0243 434.817 69.9436 434.766 69.8664 434.709C69.7807 434.651 69.7088 434.574 69.6556 434.485C69.6025 434.396 69.5695 434.296 69.5588 434.193C69.3391 432.688 69.1303 431.171 68.9106 429.655C68.8854 429.553 68.8919 429.446 68.9292 429.348C68.9665 429.25 69.0328 429.165 69.1193 429.106C69.4279 428.878 69.7549 428.675 70.0971 428.502C71.3496 427.93 72.6131 427.403 73.8766 426.843L74.1732 426.722C74.231 426.707 74.2829 426.675 74.3221 426.629C74.3613 426.584 74.386 426.528 74.3929 426.469C74.5358 425.931 74.6896 425.37 74.8434 424.876C74.8618 424.838 74.8714 424.797 74.8714 424.755C74.8714 424.713 74.8618 424.672 74.8434 424.634C74.0523 423.294 73.2503 421.954 72.4812 420.613C72.2663 420.219 72.0756 419.811 71.9099 419.394C71.8418 419.269 71.8158 419.126 71.8355 418.985C71.8553 418.845 71.92 418.715 72.0198 418.614C72.9427 417.581 73.8546 416.537 74.7665 415.504C74.8676 415.395 74.9987 415.318 75.1432 415.283C75.2878 415.248 75.4395 415.256 75.5795 415.307C76.1398 415.461 76.6782 415.614 77.2495 415.823C78.5898 416.317 79.9192 416.834 81.2486 417.339C81.3192 417.367 81.3978 417.367 81.4683 417.339L83.1273 416.636C83.1779 416.601 83.2163 416.551 83.2372 416.493C83.4679 415.548 83.6986 414.593 83.9403 413.648C84.1077 412.895 84.343 412.16 84.6435 411.45C84.7143 411.301 84.8028 411.161 84.9072 411.033C84.9531 410.976 85.0122 410.932 85.0791 410.903C85.1461 410.874 85.2191 410.862 85.2917 410.868C86.8408 410.868 88.3899 410.868 89.9391 410.868C90.0507 410.866 90.1614 410.89 90.2624 410.937C90.3634 410.985 90.452 411.055 90.5213 411.143C90.7775 411.441 91.0124 411.757 91.2245 412.088C91.9276 413.274 92.6088 414.472 93.29 415.669C93.4548 415.944 93.5976 416.23 93.7514 416.504C93.7847 416.562 93.8345 416.607 93.8943 416.636L95.795 417.361C95.8486 417.378 95.9061 417.378 95.9598 417.361C96.8167 416.966 97.6627 416.548 98.5306 416.164C99.2118 415.856 99.9259 415.581 100.629 415.307C100.812 415.238 101.005 415.197 101.2 415.186C101.317 415.178 101.434 415.194 101.543 415.234C101.653 415.273 101.753 415.336 101.838 415.417L105.474 418.537C105.57 418.605 105.648 418.696 105.702 418.801C105.755 418.907 105.783 419.023 105.782 419.141C105.766 419.45 105.733 419.758 105.683 420.064C105.441 421.338 105.057 422.558 104.694 423.788C104.617 424.074 104.518 424.36 104.441 424.645C104.42 424.713 104.42 424.786 104.441 424.854L105.375 426.524C105.394 426.566 105.421 426.603 105.455 426.633C105.489 426.664 105.529 426.686 105.573 426.7C106.672 427.084 107.825 427.469 108.946 427.886C109.638 428.15 110.33 428.447 111.011 428.754C111.196 428.847 111.366 428.966 111.517 429.106C111.598 429.183 111.655 429.282 111.682 429.392C111.692 429.468 111.692 429.546 111.682 429.622C111.89 431.073 112.088 432.523 112.308 434.017C112.339 434.144 112.331 434.277 112.283 434.399C112.236 434.521 112.153 434.625 112.044 434.698C111.651 434.952 111.244 435.183 110.825 435.39C109.561 435.962 108.265 436.489 106.99 437.06C106.931 437.086 106.884 437.133 106.859 437.192C106.694 437.763 106.529 438.291 106.375 438.917C106.375 438.917 106.375 439.038 106.375 439.093C106.968 440.082 107.573 441.059 108.155 442.048C108.518 442.674 108.847 443.323 109.188 443.971C109.268 444.144 109.33 444.324 109.374 444.509C109.412 444.608 109.42 444.717 109.397 444.82C109.373 444.924 109.32 445.018 109.243 445.092L107.957 446.553C107.485 447.091 107.001 447.651 106.529 448.179C106.425 448.311 106.282 448.407 106.12 448.453C105.958 448.498 105.786 448.491 105.628 448.431C104.991 448.245 104.354 448.058 103.727 447.827C102.475 447.366 101.222 446.882 99.9699 446.399C99.9058 446.377 99.8363 446.377 99.7721 446.399L98.1351 447.102C98.1041 447.118 98.0765 447.139 98.0538 447.166C98.0312 447.192 98.014 447.223 98.0033 447.256C97.8495 447.893 97.6956 448.552 97.5308 449.19C97.3057 450.183 97.0233 451.162 96.6849 452.123C96.6123 452.303 96.5241 452.475 96.4212 452.639C96.3678 452.723 96.2925 452.791 96.2035 452.836C96.1145 452.88 96.015 452.9 95.9158 452.892L93.6306 452.815ZM82.0397 431.831C82.1749 432.758 82.4528 433.658 82.8637 434.5C83.5798 435.968 84.6387 437.242 85.9509 438.214C87.3501 439.277 89.0073 439.948 90.7521 440.159C91.4812 440.256 92.2202 440.256 92.9494 440.159C93.7102 440.06 94.4513 439.845 95.1467 439.521C96.2481 439.016 97.1986 438.232 97.9044 437.247C98.8861 435.856 99.3488 434.165 99.2118 432.468C99.1511 431.614 98.966 430.774 98.6625 429.974C98.1455 428.617 97.3309 427.393 96.2784 426.392C94.8936 425.017 93.1368 424.078 91.2245 423.69C90.0904 423.453 88.9198 423.453 87.7857 423.69C86.6836 423.887 85.6464 424.351 84.7643 425.041C83.7392 425.821 82.9445 426.864 82.4648 428.06C81.985 429.255 81.8381 430.558 82.0397 431.831Z" fill="#333333"/>
<path d="M94.1363 452.2C92.697 452.2 91.5434 452.453 90.6755 451.101C89.8075 449.75 89.2362 448.629 88.5441 447.399C88.3897 447.03 88.1659 446.694 87.8849 446.41C87.2972 446.051 86.6496 445.802 85.9732 445.674C85.0064 445.674 83.7759 446.564 82.875 446.959C82.2812 447.286 81.6553 447.551 81.0072 447.75C80.1832 447.926 79.7657 447.476 79.1725 446.97C78.0738 446.025 75.8765 444.872 76.1951 443.279C76.4368 441.883 76.9202 440.554 77.2937 439.181C77.3856 438.663 77.3314 438.129 77.1374 437.64C76.9434 437.151 76.6171 436.726 76.1951 436.412C75.1458 435.883 74.0401 435.474 72.8991 435.192C72.2644 434.984 71.6442 434.735 71.0423 434.445C69.9437 433.918 70.0755 433.204 69.9437 432.16C69.9099 431.394 69.8032 430.632 69.625 429.886V429.633C69.2515 429.446 69.2515 429.304 69.625 429.205C69.8008 428.952 70.3172 428.853 70.5809 428.732C71.8272 428.301 73.0361 427.768 74.1955 427.139C74.7891 426.677 75.1824 426.004 75.2942 425.261C75.6567 423.942 75.0744 423.404 74.3823 422.239C73.811 421.283 72.1849 419.35 72.7453 418.262C73.2045 417.631 73.7232 417.046 74.2944 416.515C74.9756 415.746 75.1513 415.9 76.1401 416.208C77.5354 416.658 78.8648 417.306 80.2601 417.746C80.7421 417.859 81.2436 417.859 81.7257 417.746C82.2078 417.634 82.6575 417.412 83.0398 417.097C83.2886 416.924 83.5003 416.702 83.6625 416.445C83.8248 416.189 83.9342 415.903 83.9846 415.603C84.2153 414.702 84.479 411.813 85.325 411.45C86.0934 411.335 86.8747 411.335 87.6432 411.45C88.3287 411.354 89.0264 411.391 89.6977 411.56C90.7963 412.099 91.4885 414.065 92.0818 415.087C92.3738 415.778 92.7424 416.434 93.1805 417.043C93.5363 417.292 93.9347 417.474 94.356 417.581C94.7308 417.795 95.1547 417.909 95.5865 417.91C96.2362 417.711 96.8568 417.426 97.4323 417.064C98.4101 416.614 100.212 415.449 101.267 415.966C101.928 416.415 102.536 416.939 103.079 417.526C103.75 418.097 104.749 418.691 105.024 419.526C105.398 420.712 104.574 422.525 104.233 423.689C103.995 424.165 103.903 424.7 103.967 425.227C104.032 425.755 104.25 426.252 104.596 426.656C105.222 427.623 106.474 427.755 107.529 428.128C108.584 428.502 110.737 428.93 111.155 430.095C111.309 430.725 111.398 431.369 111.418 432.017C111.607 432.736 111.714 433.473 111.737 434.215C111.66 434.797 112.154 434.017 111.506 434.577C111.104 434.838 110.668 435.041 110.21 435.182L108.012 436.115C107.647 436.222 107.306 436.402 107.012 436.643C106.717 436.885 106.475 437.184 106.299 437.522C105.595 439.027 105.848 439.565 106.65 440.884C107.068 441.576 107.485 442.257 107.87 442.96C108.155 443.465 108.869 444.355 108.847 444.96C108.825 445.564 107.639 446.476 107.32 446.838C106.65 447.596 106.507 447.849 105.497 447.542C103.98 447.08 102.541 446.377 101.036 445.904C100.529 445.798 100.005 445.812 99.5048 445.945C99.0047 446.079 98.5431 446.328 98.1574 446.674C97.2895 447.355 97.2565 448.53 97.0038 449.53C96.8934 450.347 96.6716 451.146 96.3446 451.903C96.037 452.409 96.2897 452.277 95.5756 452.211C95.1251 452.211 94.6527 452.211 94.2022 452.211C93.7518 452.211 93.0047 452.859 93.1035 453.31C93.1035 453.705 94.4219 452.793 94.356 452.31L93.2574 453.408C94.2352 453.408 95.5756 453.672 96.4325 453.101C97.1423 452.461 97.6179 451.603 97.7839 450.662C98.0036 449.937 98.1794 449.19 98.3662 448.464C98.4116 448.047 98.5113 447.637 98.6628 447.245C98.4321 447.607 98.509 447.333 98.8496 447.245C99.1902 447.157 99.4209 446.97 99.8603 447.036C100.265 447.151 100.658 447.301 101.036 447.487C101.816 447.783 102.585 448.102 103.376 448.376C104.376 448.728 105.518 449.343 106.496 448.684C107.612 447.73 108.605 446.642 109.452 445.443C110.056 444.751 110.342 444.344 109.957 443.389C109.322 442.036 108.587 440.733 107.76 439.488C107.497 439.165 107.331 438.773 107.282 438.358C107.234 437.944 107.304 437.524 107.485 437.148C107.123 437.686 107.859 437.148 108.067 437.038L109.276 436.522C110.487 436.133 111.608 435.506 112.572 434.676C113.198 433.973 113.033 433.347 112.902 432.479C112.77 431.611 112.682 430.875 112.561 430.062C112.484 429.468 112.561 428.831 112.056 428.403C110.045 426.524 104.64 427.304 105.365 423.382C105.639 421.899 106.397 420.492 106.463 418.987C106.463 417.625 104.651 416.68 103.706 415.878C102.761 415.076 102.277 414.34 101.102 414.691C99.7175 415.098 98.487 415.878 97.1467 416.394C96.6892 416.553 96.1994 416.594 95.7217 416.516C95.2441 416.437 94.7936 416.24 94.411 415.944C93.9706 415.336 93.6019 414.68 93.3123 413.988C92.752 413.01 91.9609 410.835 90.8403 410.341C90.1401 410.186 89.4173 410.164 88.7089 410.275H86.3907C86.0249 410.228 85.6534 410.286 85.319 410.441C84.9846 410.597 84.7011 410.844 84.501 411.154C83.8072 412.347 83.352 413.665 83.1606 415.032C83.0837 415.318 82.5893 416.79 83.0398 416.284C82.2817 417.13 81.1281 416.493 80.3261 416.186C78.9926 415.546 77.5925 415.056 76.1511 414.724C75.2283 414.603 74.7009 415.23 74.1296 415.878L72.4157 417.823C71.9457 418.218 71.5702 418.713 71.317 419.273C71.0753 420.273 72.2619 421.778 72.7343 422.569C73.2067 423.36 73.6022 423.887 73.9208 424.579C74.1137 425.06 74.1744 425.583 74.0966 426.096C74.0966 426.425 73.9208 426.656 74.2285 426.304C73.4932 426.755 72.6979 427.099 71.8663 427.326C71.1536 427.615 70.46 427.949 69.7898 428.326C69.4343 428.484 69.122 428.725 68.8792 429.029C68.6363 429.333 68.4701 429.691 68.3945 430.073C68.4184 430.706 68.503 431.335 68.6472 431.951C68.6743 432.889 68.8032 433.821 69.0318 434.731C69.5042 435.929 71.3939 436.269 72.4926 436.665C73.2726 436.95 74.0746 437.181 74.8327 437.5C75.3532 437.785 75.7584 438.242 75.9788 438.794C76.1993 439.345 76.2214 439.955 76.0413 440.521C75.7336 441.894 74.7338 443.707 74.9426 445.135C75.0415 445.74 75.6348 446.058 76.0413 446.432C76.8543 447.135 77.6563 447.86 78.4913 448.541C79.5899 449.431 80.3151 449.102 81.5566 448.541C83.1716 447.849 85.347 446.256 86.995 447.772C87.4427 448.355 87.8121 448.994 88.0936 449.673C88.5331 450.442 88.9506 451.222 89.412 451.969C89.7087 452.453 90.0602 453.156 90.6206 453.375C91.4821 453.544 92.3655 453.57 93.2354 453.452C93.6199 453.441 94.4879 452.2 94.1363 452.2Z" fill="#333333"/>
<path d="M81.4135 432.336C81.7459 434.237 82.6046 436.006 83.8922 437.443C85.1798 438.881 86.8447 439.928 88.6977 440.466C90.511 441.044 92.4654 441 94.2505 440.34C96.0355 439.68 97.5489 438.442 98.5501 436.823C99.5512 435.205 99.9828 433.298 99.7763 431.406C99.5698 429.514 98.7369 427.746 97.4101 426.381C96.1573 424.895 94.4912 423.814 92.6231 423.276C90.7551 422.738 88.7693 422.767 86.9178 423.36C85.131 424.027 83.6192 425.274 82.6235 426.901C81.6279 428.528 81.2057 430.441 81.4245 432.336C81.4245 432.721 82.7209 431.831 82.677 431.336C82.3694 428.249 83.6218 425.261 86.8299 424.382C88.4481 424.002 90.1377 424.058 91.7276 424.542C93.3175 425.026 94.751 425.922 95.883 427.139C98.1682 429.457 99.4207 433.16 98.0034 436.258C96.5092 439.554 92.4331 440.148 89.3019 439.093C87.6098 438.508 86.1057 437.479 84.9462 436.115C83.7868 434.751 83.0145 433.101 82.7099 431.336C82.6001 430.919 81.3366 431.853 81.4135 432.336Z" fill="#333333"/>
<path d="M61.8355 394.18H51.7827C51.4292 394.231 51.0903 394.354 50.7876 394.544C50.4848 394.733 50.225 394.983 50.0248 395.279C49.9039 395.433 49.1239 396.652 49.7721 396.652H59.8249C60.1783 396.602 60.5173 396.478 60.82 396.289C61.1228 396.1 61.3826 395.849 61.5828 395.554C61.7036 395.4 62.4837 394.18 61.8355 394.18Z" fill="#333333"/>
<path d="M121.01 394.18H71.8012C71.4478 394.231 71.1088 394.354 70.8061 394.544C70.5034 394.733 70.2435 394.983 70.0433 395.279C69.9225 395.433 69.1424 396.652 69.7907 396.652H119.044C119.397 396.602 119.736 396.478 120.039 396.289C120.342 396.1 120.602 395.849 120.802 395.554C120.923 395.4 121.703 394.18 121.054 394.18H121.01Z" fill="#333333"/>
<path d="M72.7766 300.539L50.6934 287.355L72.7766 300.539Z" fill="white"/>
<path d="M73.9964 299.376L51.9132 286.192C51.0233 285.665 48.9578 288.148 49.5841 288.532L71.6673 301.716C72.5572 302.244 74.6337 299.761 73.9964 299.376Z" fill="#333333"/>
<path d="M88.7969 347.892H249.301L235.425 249.122C235.136 247.002 234.084 245.061 232.466 243.661C230.848 242.261 228.775 241.5 226.636 241.52H84.0177C82.7469 241.506 81.4882 241.768 80.3285 242.288C79.1687 242.808 78.1355 243.573 77.3 244.53C76.4645 245.488 75.8466 246.615 75.489 247.835C75.1313 249.055 75.0424 250.337 75.2284 251.594L88.7969 347.892Z" fill="white"/>
<path d="M87.7973 349.146H241.721C243.819 349.146 245.939 349.244 248.027 349.146C248.118 349.14 248.21 349.14 248.302 349.146C249.18 349.146 250.686 347.849 250.554 346.893L246.665 319.251L239.721 269.811L237.293 252.606C237.106 251.276 236.93 249.936 236.733 248.607C236.566 247.051 236.015 245.562 235.129 244.273C234.243 242.984 233.049 241.936 231.657 241.224C229.042 239.938 225.9 240.279 223.065 240.279H85.7318C84.1158 240.218 82.5056 240.504 81.0088 241.116C79.5119 241.728 78.1631 242.653 77.0523 243.828C75.9415 245.003 75.0944 246.402 74.5677 247.931C74.041 249.46 73.8468 251.084 73.998 252.694C74.4046 255.99 74.9099 259.286 75.3714 262.516L81.8865 308.835L87.226 346.838L87.5117 348.882C87.6215 349.684 90.1375 347.849 89.9946 346.871L86.1273 319.295L79.3046 270.778L76.9864 254.298C76.8216 253.133 76.6568 251.979 76.503 250.826C75.9427 246.706 78.0851 243.135 82.4468 242.762C84.4683 242.597 86.5448 242.762 88.5774 242.762H225.01C227.294 242.655 229.537 243.399 231.305 244.849C233.044 246.472 234.114 248.686 234.305 251.057L236.018 263.241L242.61 310.176L247.774 346.948L248.049 348.904L250.301 346.652H109.518C103.047 346.652 96.5317 346.41 90.0715 346.652H89.7969C89.4456 346.704 89.109 346.829 88.8084 347.018C88.5077 347.207 88.2495 347.456 88.05 347.75C87.9291 347.915 87.182 349.146 87.7973 349.146Z" fill="#333333"/>
<path d="M117.064 261.582L137.115 261.494L117.064 261.582Z" fill="white"/>
<path d="M116.054 262.834L136.116 262.746C136.467 262.693 136.803 262.568 137.104 262.379C137.404 262.19 137.663 261.941 137.863 261.648C137.983 261.494 138.764 260.274 138.115 260.274L118.065 260.362C117.712 260.41 117.374 260.533 117.072 260.722C116.771 260.912 116.514 261.164 116.318 261.461C116.197 261.604 115.406 262.834 116.054 262.834Z" fill="#333333"/>
<path d="M117.472 270.964L163.978 270.876L117.472 270.964Z" fill="white"/>
<path d="M116.461 272.218L162.979 272.13C163.33 272.077 163.666 271.952 163.967 271.762C164.267 271.573 164.526 271.324 164.726 271.031C164.847 270.877 165.627 269.658 164.978 269.658L118.472 269.746C118.119 269.793 117.781 269.916 117.479 270.106C117.178 270.295 116.921 270.547 116.725 270.844C116.604 270.987 115.813 272.218 116.461 272.218Z" fill="#333333"/>
<path d="M122.525 306.934L155.222 306.846L122.525 306.934Z" fill="white"/>
<path d="M121.526 308.176L154.222 308.088C154.574 308.036 154.911 307.912 155.211 307.723C155.512 307.534 155.77 307.284 155.969 306.99C156.09 306.836 156.87 305.605 156.222 305.616L123.526 305.704C123.173 305.753 122.835 305.877 122.534 306.066C122.233 306.256 121.976 306.507 121.779 306.803C121.658 306.957 120.867 308.176 121.526 308.176Z" fill="#333333"/>
<path d="M163.309 306.934L180.635 306.846L163.309 306.934Z" fill="white"/>
<path d="M162.308 308.176L179.623 308.088C179.977 308.038 180.316 307.914 180.618 307.725C180.921 307.536 181.181 307.285 181.381 306.99C181.502 306.836 182.282 305.605 181.634 305.616L164.319 305.704C163.965 305.755 163.626 305.878 163.324 306.068C163.021 306.257 162.761 306.507 162.561 306.803C162.44 306.957 161.66 308.176 162.308 308.176Z" fill="#333333"/>
<path d="M188.336 306.935L205.651 306.847L188.336 306.935Z" fill="white"/>
<path d="M187.325 308.176L204.651 308.088C205.002 308.038 205.34 307.914 205.641 307.724C205.942 307.535 206.199 307.285 206.397 306.99C206.518 306.836 207.298 305.605 206.65 305.616L189.335 305.704C188.983 305.753 188.645 305.877 188.344 306.066C188.043 306.256 187.785 306.507 187.588 306.803C187.467 306.957 186.676 308.176 187.325 308.176Z" fill="#333333"/>
<path d="M118.977 290.048H134.611C134.963 289.996 135.3 289.872 135.601 289.683C135.902 289.494 136.16 289.244 136.358 288.949C136.479 288.795 137.259 287.576 136.611 287.576H120.977C120.625 287.628 120.289 287.753 119.988 287.942C119.688 288.131 119.429 288.38 119.23 288.674C119.109 288.817 118.329 290.048 118.977 290.048Z" fill="#333333"/>
<path d="M140.082 290.048H149.97C150.324 289.999 150.664 289.876 150.967 289.686C151.27 289.497 151.529 289.246 151.728 288.95C151.838 288.796 152.629 287.576 151.981 287.576H142.093C141.74 287.624 141.402 287.747 141.101 287.936C140.799 288.126 140.542 288.378 140.346 288.675C140.225 288.818 139.434 290.048 140.082 290.048Z" fill="#333333"/>
<path d="M156.508 290.048H166.396C166.749 290 167.087 289.877 167.389 289.688C167.69 289.498 167.947 289.246 168.143 288.949C168.264 288.795 169.055 287.576 168.396 287.576H158.508C158.156 287.625 157.818 287.748 157.517 287.938C157.216 288.127 156.958 288.378 156.761 288.674C156.64 288.817 155.849 290.048 156.508 290.048Z" fill="#333333"/>
<path d="M173.581 290.048H187.775C188.128 289.998 188.465 289.875 188.766 289.685C189.067 289.496 189.325 289.245 189.522 288.95C189.654 288.796 190.434 287.576 189.786 287.576H175.58C175.229 287.627 174.892 287.752 174.591 287.941C174.29 288.13 174.032 288.38 173.833 288.675C173.713 288.818 172.932 290.048 173.581 290.048Z" fill="#333333"/>
<path d="M195.861 290.048H217.23C217.582 289.996 217.919 289.872 218.22 289.683C218.52 289.494 218.778 289.244 218.977 288.949C219.098 288.795 219.878 287.576 219.23 287.576H197.861C197.508 287.625 197.17 287.748 196.869 287.938C196.568 288.127 196.311 288.378 196.114 288.674C195.993 288.817 195.213 290.048 195.861 290.048Z" fill="#333333"/>
<path d="M124.469 329.16H140.103C140.456 329.111 140.794 328.987 141.095 328.798C141.396 328.609 141.653 328.358 141.85 328.061C141.971 327.908 142.762 326.677 142.103 326.688H126.469C126.118 326.741 125.781 326.865 125.48 327.054C125.18 327.244 124.922 327.493 124.722 327.787C124.601 327.941 123.821 329.16 124.469 329.16Z" fill="#333333"/>
<path d="M147.663 329.16H157.551C157.904 329.11 158.243 328.986 158.546 328.797C158.849 328.607 159.108 328.357 159.309 328.061C159.418 327.908 160.21 326.677 159.561 326.688H149.673C149.319 326.737 148.98 326.86 148.677 327.05C148.374 327.239 148.115 327.49 147.915 327.787C147.806 327.941 147.015 329.16 147.663 329.16Z" fill="#333333"/>
<path d="M164.737 329.16H178.932C179.285 329.11 179.624 328.986 179.927 328.797C180.23 328.607 180.489 328.357 180.69 328.061C180.81 327.908 181.59 326.677 180.942 326.688H166.748C166.394 326.739 166.056 326.863 165.753 327.052C165.45 327.242 165.19 327.492 164.99 327.787C164.869 327.941 164.089 329.16 164.737 329.16Z" fill="#333333"/>
<path d="M187.017 329.16H208.386C208.739 329.111 209.076 328.987 209.378 328.798C209.679 328.609 209.936 328.358 210.133 328.061C210.254 327.908 211.045 326.677 210.397 326.688H189.028C188.675 326.739 188.336 326.863 188.033 327.052C187.731 327.242 187.471 327.492 187.27 327.787C187.149 327.941 186.369 329.16 187.017 329.16Z" fill="#333333"/>
<path d="M173.372 270.964L219.879 270.876L173.372 270.964Z" fill="white"/>
<path d="M172.373 272.218L218.879 272.13C219.232 272.077 219.57 271.952 219.872 271.763C220.175 271.574 220.435 271.325 220.637 271.031C220.758 270.877 221.538 269.658 220.89 269.658L174.372 269.746C174.02 269.795 173.682 269.918 173.381 270.108C173.08 270.297 172.822 270.548 172.625 270.844C172.505 270.987 171.724 272.218 172.373 272.218Z" fill="#333333"/>
<path d="M123.845 316.317L170.351 316.229L123.845 316.317Z" fill="white"/>
<path d="M122.844 317.515L169.351 317.427C169.703 317.377 170.041 317.254 170.342 317.065C170.643 316.875 170.901 316.624 171.098 316.328C171.219 316.174 172.01 314.944 171.35 314.955L124.844 315.043C124.492 315.092 124.154 315.215 123.853 315.405C123.551 315.594 123.294 315.845 123.097 316.141C122.976 316.295 122.185 317.515 122.844 317.515Z" fill="#333333"/>
<path d="M179.744 316.317L226.262 316.229L179.744 316.317Z" fill="white"/>
<path d="M178.745 317.515L225.251 317.427C225.605 317.376 225.944 317.252 226.246 317.063C226.549 316.874 226.809 316.624 227.009 316.328C227.13 316.174 227.91 314.944 227.262 314.955L180.755 315.043C180.402 315.093 180.063 315.217 179.76 315.406C179.457 315.595 179.198 315.846 178.997 316.141C178.877 316.295 178.097 317.515 178.745 317.515Z" fill="#333333"/>
<path d="M95.2793 261.681L110.287 261.615L95.2793 261.681Z" fill="white"/>
<path d="M94.278 262.923L109.286 262.857C109.638 262.807 109.975 262.683 110.276 262.494C110.577 262.305 110.835 262.054 111.033 261.758C111.153 261.615 111.945 260.385 111.296 260.385L96.2775 260.451C95.927 260.506 95.5914 260.632 95.2911 260.82C94.9908 261.009 94.7321 261.257 94.5307 261.549C94.4098 261.703 93.6297 262.923 94.278 262.923Z" fill="#333333"/>
<path d="M122.207 298.199L133.534 298.111L122.207 298.199Z" fill="white"/>
<path d="M121.24 299.453L132.567 299.354C132.919 299.303 133.256 299.179 133.557 298.99C133.858 298.801 134.116 298.551 134.314 298.255C134.435 298.101 135.215 296.871 134.567 296.882L123.239 296.97C122.888 297.02 122.55 297.144 122.249 297.334C121.948 297.523 121.691 297.773 121.493 298.068C121.372 298.211 120.592 299.442 121.24 299.442V299.453Z" fill="#333333"/>
<path d="M100.42 298.299L116.614 298.233L100.42 298.299Z" fill="white"/>
<path d="M99.4205 299.54L115.604 299.474C115.957 299.423 116.296 299.299 116.598 299.11C116.901 298.921 117.161 298.671 117.362 298.376C117.483 298.233 118.263 297.002 117.614 297.002L101.431 297.068C101.078 297.121 100.741 297.246 100.438 297.435C100.136 297.624 99.8754 297.873 99.6732 298.167C99.5524 298.321 98.7723 299.54 99.4205 299.54Z" fill="#333333"/>
<path d="M116.78 279.062L129.799 278.974L116.78 279.062Z" fill="white"/>
<path d="M115.747 280.292L128.766 280.204C129.118 280.153 129.455 280.029 129.756 279.84C130.056 279.651 130.314 279.401 130.513 279.106C130.634 278.963 131.414 277.732 130.765 277.732L117.746 277.82C117.395 277.873 117.059 277.999 116.758 278.188C116.458 278.377 116.199 278.626 115.999 278.919C115.879 279.073 115.098 280.292 115.747 280.292Z" fill="#333333"/>
<path d="M97.7275 279.138L110.011 279.072L97.7275 279.138Z" fill="white"/>
<path d="M96.7282 280.379L109 280.313C109.354 280.263 109.693 280.139 109.995 279.95C110.298 279.761 110.558 279.51 110.758 279.215C110.879 279.061 111.659 277.83 111.011 277.841L98.7387 277.907C98.3853 277.958 98.0463 278.082 97.7436 278.271C97.4409 278.46 97.181 278.71 96.9808 279.006C96.86 279.16 96.0799 280.39 96.7282 280.379Z" fill="#333333"/>
<path d="M70.7669 309.89L44.333 307.363L70.7669 309.89Z" fill="white"/>
<path d="M71.8004 308.649L45.3555 306.111C44.3886 306.023 42.5649 308.528 43.3559 308.605L69.7898 311.143C70.7676 311.23 72.5804 308.725 71.8004 308.649Z" fill="#333333"/>
<path d="M72.8986 319.119L52.3096 330.919L72.8986 319.119Z" fill="white"/>
<path d="M73.0846 318.141L52.5066 329.941C51.9682 330.249 51.1113 331.04 51.0783 331.699C51.0454 332.358 51.7155 332.127 52.177 331.897L72.744 320.108C73.2824 319.8 74.1393 319.009 74.1723 318.35C74.2053 317.691 73.5351 317.911 73.1395 318.141H73.0846Z" fill="#333333"/>
<path d="M372.835 555.75C373.287 556.138 373.648 556.62 373.893 557.163C374.138 557.706 374.261 558.296 374.252 558.892C374.24 559.14 374.203 559.387 374.142 559.628C374.142 559.694 374.142 559.76 374.088 559.826C374.088 559.716 374.088 559.771 374.088 559.826C374.069 559.891 374.043 559.953 374.011 560.013C374.011 560.013 373.879 560.32 373.956 560.133C374.033 559.947 373.956 560.134 373.956 560.21L373.857 560.386C373.758 560.551 374.055 560.134 373.857 560.386C373.807 560.432 373.763 560.484 373.725 560.54C373.725 560.485 373.967 560.276 373.802 560.441C373.637 560.606 373.802 560.441 373.912 560.353C373.837 560.402 373.768 560.457 373.703 560.518C373.549 560.65 374.022 560.298 373.703 560.518C373.021 560.902 372.511 561.53 372.275 562.276C372.154 563.001 372.978 562.704 373.318 562.485C374.183 561.958 374.93 561.259 375.512 560.431C376.094 559.603 376.499 558.664 376.702 557.672C376.812 556.9 376.73 556.112 376.463 555.378C376.197 554.645 375.755 553.987 375.175 553.465C374.725 553.08 373.835 553.882 373.549 554.179C373.26 554.451 373.025 554.775 372.857 555.135C372.791 555.31 372.659 555.64 372.857 555.794L372.835 555.75Z" fill="#333333"/>
<path d="M363.958 549.872C364.799 550.324 365.491 551.009 365.951 551.845C366.411 552.682 366.619 553.633 366.55 554.585C366.502 555.005 366.383 555.414 366.199 555.794C366.199 555.871 366.199 555.882 366.199 555.794L366.133 555.915C366.133 555.915 365.858 556.299 366.067 556.036L365.946 556.189C366.1 556.003 365.847 556.288 365.814 556.321C365.507 556.629 366.089 556.124 365.737 556.387C365.386 556.651 365.836 556.387 365.672 556.387L365.386 556.563C365.584 556.453 365.221 556.64 365.21 556.651C364.801 556.822 364.367 556.926 363.925 556.958C363.222 557.024 362.507 557.837 362.167 558.387C361.826 558.936 361.65 559.485 362.365 559.485C363.863 559.244 365.264 558.588 366.409 557.592C367.555 556.596 368.399 555.3 368.847 553.849C369.184 552.665 369.115 551.402 368.648 550.262C368.182 549.123 367.347 548.173 366.276 547.565C365.353 547.06 363.331 549.553 363.947 549.894L363.958 549.872Z" fill="#333333"/>
<path d="M360.75 546.664C361.249 547.081 361.657 547.598 361.947 548.18L361.87 548.026C362.205 548.709 362.367 549.464 362.343 550.224V550.004C362.343 550.081 362.343 550.169 362.343 550.246C362.343 550.322 362.343 550.652 362.573 550.707C362.863 550.715 363.147 550.621 363.376 550.443C363.737 550.218 364.057 549.932 364.32 549.597C364.56 549.346 364.727 549.035 364.804 548.696C364.894 547.887 364.784 547.068 364.483 546.311C364.182 545.554 363.7 544.883 363.079 544.357C362.892 544.203 362.606 544.302 362.409 544.357C362.051 544.528 361.727 544.763 361.453 545.049C361.164 545.321 360.929 545.645 360.761 546.005C360.695 546.18 360.563 546.51 360.761 546.664H360.75Z" fill="#333333"/>
<path d="M360.749 538.347C360.969 538.394 361.183 538.468 361.386 538.567L361.221 538.49C361.854 538.811 362.367 539.327 362.682 539.962L362.606 539.808C362.82 540.254 362.929 540.742 362.924 541.237V541.017V541.346C362.924 541.555 362.924 541.764 363.155 541.819C363.447 541.821 363.733 541.729 363.968 541.555C364.327 541.326 364.643 541.036 364.902 540.698C365.135 540.441 365.305 540.132 365.396 539.797C365.529 538.9 365.317 537.985 364.803 537.237C364.327 536.538 363.605 536.044 362.781 535.853C362.489 535.851 362.204 535.943 361.968 536.117C361.611 536.352 361.292 536.641 361.023 536.974C360.789 537.228 360.623 537.538 360.54 537.875C360.54 538.083 360.54 538.292 360.771 538.347H360.749Z" fill="#333333"/>
<path d="M164.583 547.135C165.457 547.123 166.315 547.371 167.047 547.849C167.778 548.326 168.351 549.011 168.692 549.816C169 550.608 169.054 551.476 168.846 552.299C168.821 552.455 168.772 552.607 168.703 552.75C168.703 552.75 168.538 553.112 168.604 552.958C168.67 552.804 168.538 553.09 168.516 553.112C168.494 553.134 168.242 553.442 168.516 553.178L168.406 553.31C168.33 553.409 168.406 553.376 168.505 553.2L168.428 553.288C168.297 553.42 168.319 553.398 168.494 553.233C168.099 553.519 168.494 553.288 168.494 553.233C167.812 553.619 167.299 554.246 167.055 554.991C166.945 555.705 167.769 555.43 168.154 555.2C170.351 553.694 172.186 550.97 171.45 548.223C171.126 547.119 170.434 546.159 169.488 545.503C168.543 544.847 167.401 544.535 166.253 544.619C165.918 544.711 165.609 544.88 165.352 545.114C165.014 545.374 164.728 545.694 164.506 546.059C164.265 546.465 163.99 547.157 164.704 547.091L164.583 547.135Z" fill="#333333"/>
<path d="M142.554 540.895C143.562 541.272 144.428 541.954 145.031 542.846C145.633 543.738 145.943 544.796 145.916 545.872C145.885 546.345 145.773 546.81 145.586 547.245C145.476 547.487 145.586 547.245 145.476 547.443C145.476 547.443 145.213 547.839 145.388 547.586C145.388 547.586 145.059 547.993 145.323 547.707C145.225 547.811 145.123 547.91 145.015 548.004C145.081 547.938 145.191 547.85 145.015 548.004L144.828 548.124C144.668 548.23 144.494 548.315 144.312 548.377C143.855 548.565 143.366 548.662 142.873 548.663C142.519 548.713 142.18 548.837 141.877 549.026C141.575 549.215 141.315 549.466 141.115 549.761C140.994 549.915 140.214 551.135 140.862 551.135C142.568 551.027 144.197 550.392 145.526 549.317C146.855 548.243 147.816 546.781 148.278 545.136C148.602 543.753 148.403 542.299 147.719 541.054C147.036 539.808 145.916 538.86 144.575 538.39C143.718 538.094 141.653 540.587 142.576 540.873L142.554 540.895Z" fill="#333333"/>
<path d="M116.593 539.709C117.37 540.136 118.006 540.777 118.427 541.557C118.848 542.336 119.035 543.221 118.966 544.104C118.92 544.486 118.809 544.858 118.637 545.203C118.571 545.334 118.724 545.082 118.637 545.291C118.549 545.499 118.362 545.642 118.582 545.378L118.483 545.51C118.686 545.279 118.791 544.977 118.776 544.67C118.761 544.362 118.626 544.072 118.402 543.862C118.177 543.651 117.879 543.537 117.571 543.542C117.263 543.547 116.969 543.671 116.752 543.889C116.534 544.107 116.409 544.401 116.404 544.709C116.399 545.016 116.514 545.314 116.725 545.539C116.935 545.764 117.225 545.898 117.532 545.913C117.84 545.928 118.141 545.823 118.373 545.62L118.461 545.543L118.318 545.664C118.098 545.84 118.439 545.598 118.318 545.664L118.043 545.829C118.274 545.697 117.911 545.884 117.9 545.884C117.521 546.038 117.122 546.134 116.714 546.169C116.374 546.252 116.061 546.418 115.802 546.653C115.472 546.922 115.187 547.241 114.956 547.598C114.714 547.982 114.451 548.696 115.154 548.641C116.585 548.41 117.924 547.783 119.019 546.832C120.113 545.881 120.921 544.643 121.35 543.258C121.666 542.153 121.606 540.975 121.181 539.907C120.755 538.84 119.988 537.943 118.999 537.358C118.087 536.842 116.044 539.336 116.67 539.687L116.593 539.709Z" fill="#333333"/>
<path d="M105.617 543.521C106.227 543.917 106.75 544.433 107.154 545.038C107.558 545.642 107.835 546.322 107.968 547.037C108.099 547.72 108.099 548.42 107.968 549.103C107.968 549.289 107.88 549.476 107.836 549.663C107.792 549.85 107.836 549.784 107.836 549.663C107.836 549.762 107.77 549.861 107.726 549.96C107.694 550.039 107.657 550.116 107.616 550.19C107.529 550.355 107.55 550.333 107.616 550.19L107.452 550.454C107.287 550.718 107.638 550.201 107.452 550.454C107.265 550.707 106.562 551.685 107.188 551.827C107.814 551.97 108.638 551.113 108.946 550.729C109.562 549.98 110.017 549.113 110.284 548.182C110.55 547.25 110.622 546.273 110.495 545.312C110.386 544.478 110.102 543.677 109.661 542.961C109.219 542.245 108.631 541.631 107.935 541.159C107.067 540.61 104.969 543.082 105.606 543.488L105.617 543.521Z" fill="#333333"/>
</svg>
